<svg width="104" height="24" viewBox="0 0 104 24" fill="none" xmlns="http://www.w3.org/2000/svg">
<g id="1 1">
<g id="Group">
<path id="Vector" d="M10.1399 6.3498C9.30795 5.9998 8.37195 5.7998 7.22795 5.7998H1.92395V18.1498H4.31595V14.5998H7.22795C8.37195 14.5998 9.35995 14.3998 10.1399 14.0498C10.9719 13.6998 11.5959 13.1998 12.0119 12.5498C12.4279 11.8998 12.6879 11.0998 12.6879 10.1998C12.6879 9.2998 12.4799 8.4998 12.0119 7.8498C11.5959 7.1998 10.9719 6.6998 10.1399 6.3498ZM9.51595 12.0498C8.99595 12.4998 8.16395 12.6998 7.12395 12.6998H4.31595V7.7998H7.12395C8.16395 7.7998 8.99595 7.9998 9.51595 8.4498C10.0359 8.8498 10.2959 9.4998 10.2959 10.2498C10.2959 10.9998 10.0359 11.5998 9.51595 12.0498Z" fill="#363062"/>
<path id="Vector_2" d="M23.504 14.0498C24.336 13.6998 24.96 13.1998 25.376 12.5498C25.792 11.8998 26.052 11.0998 26.052 10.1998C26.052 9.2998 25.844 8.4998 25.376 7.8498C24.96 7.1998 24.284 6.6998 23.504 6.3498C22.672 5.9998 21.736 5.7998 20.592 5.7998H15.288V18.1498H17.68V14.5498H20.592C20.748 14.5498 20.904 14.4998 21.06 14.4998L23.712 18.1498H26.26L23.296 14.0998C23.348 14.0998 23.452 14.0998 23.504 14.0498ZM22.828 8.3998C23.348 8.7998 23.608 9.4498 23.608 10.1998C23.608 10.9998 23.348 11.5998 22.828 11.9998C22.308 12.4498 21.476 12.6498 20.436 12.6498H17.68V7.6998H20.488C21.528 7.7498 22.308 7.9498 22.828 8.3998Z" fill="#363062"/>
<path id="Vector_3" d="M53.612 14.1998L46.54 5.7998H44.564V18.1998H46.904V9.7998L54.028 18.1998H56.004V5.7998H53.612V14.1998Z" fill="#363062"/>
<path id="Vector_4" d="M62.0359 12.8498H68.2239V10.9498H62.0359V7.7498H69.0039V5.7998H59.6439V18.1998H69.2639V16.2498H62.0359V12.8498Z" fill="#363062"/>
<path id="Vector_5" d="M85.176 15.2498L81.9 5.7998H79.716L76.388 15.1998L73.216 5.7998H70.72L74.984 18.1998H77.532L80.756 9.0498L83.928 18.1998H86.476L90.74 5.7998H88.452L85.176 15.2498Z" fill="#363062"/>
<path id="Vector_6" d="M101.66 13.0999C101.4 12.6999 101.036 12.3499 100.568 12.0999C100.1 11.8499 99.6319 11.6499 99.0599 11.4999C98.5399 11.3499 97.9679 11.1999 97.3959 11.0999C96.8239 10.9999 96.3559 10.8499 95.8879 10.6999C95.4199 10.5499 95.0559 10.3999 94.7959 10.1499C94.5359 9.8999 94.3799 9.5999 94.3799 9.2499C94.3799 8.9499 94.4839 8.6499 94.6399 8.3999C94.8479 8.1499 95.1079 7.9499 95.5239 7.7999C95.9399 7.6499 96.4599 7.5499 97.1359 7.5499C97.7079 7.5499 98.2799 7.6499 98.9039 7.7999C99.5279 7.9499 100.1 8.1999 100.672 8.5499L101.4 6.7499C100.828 6.3999 100.152 6.1499 99.4239 5.9499C98.6439 5.7499 97.9159 5.6499 97.1359 5.6499C95.9399 5.6499 95.0039 5.7999 94.2239 6.1499C93.4439 6.4999 92.8719 6.9499 92.5079 7.4999C92.1439 8.0499 91.9359 8.6999 91.9359 9.3499C91.9359 9.9999 92.0919 10.5499 92.3519 10.9999C92.6119 11.3999 92.9759 11.7499 93.4439 11.9999C93.9119 12.2499 94.3799 12.4499 94.9519 12.5999C95.4719 12.7499 96.0439 12.8999 96.5639 12.9999C97.0839 13.0999 97.6039 13.2499 98.0719 13.3999C98.5399 13.5499 98.9039 13.6999 99.1639 13.9499C99.4239 14.1999 99.5799 14.4999 99.5799 14.8499C99.5799 15.1499 99.4759 15.4499 99.2679 15.6499C99.0599 15.8999 98.7479 16.0999 98.3319 16.1999C97.9159 16.3499 97.3959 16.3999 96.7199 16.3999C95.9399 16.3999 95.1599 16.2499 94.3799 15.9999C93.5999 15.7499 92.9759 15.3999 92.4559 15.0499L91.6239 16.8499C92.1439 17.2999 92.8719 17.6499 93.8079 17.8999C94.7439 18.1999 95.6799 18.2999 96.6679 18.2999C97.8639 18.2999 98.7999 18.1499 99.5799 17.7999C100.36 17.4499 100.932 16.9999 101.296 16.4499C101.66 15.8999 101.868 15.2999 101.868 14.5999C102.076 14.0499 101.92 13.4999 101.66 13.0999Z" fill="#363062"/>
<path id="Vector_7" d="M39.1039 13.75C38.8959 14.25 38.584 14.75 38.168 15.15C37.752 15.55 37.2839 15.85 36.7119 16.05C36.1399 16.25 35.5679 16.35 34.8919 16.35C34.2679 16.35 33.6439 16.25 33.0719 16.05C32.4999 15.85 32.0319 15.55 31.6159 15.15C31.1999 14.75 30.8879 14.3 30.6799 13.75C30.4719 13.2 30.3159 12.65 30.3159 12H27.924C27.924 12.9 28.08 13.75 28.444 14.55C28.808 15.3 29.2759 16 29.8999 16.55C30.5239 17.1 31.252 17.55 32.084 17.9C32.9159 18.2 33.8519 18.4 34.8399 18.4C35.8279 18.4 36.764 18.25 37.596 17.9C38.428 17.6 39.1559 17.15 39.7799 16.55C40.4039 16 40.872 15.3 41.236 14.55C41.6 13.75 41.756 12.9 41.756 12H39.3639C39.4159 12.65 39.3119 13.2 39.1039 13.75Z" fill="#53D9F7"/>
</g>
</g>
</svg>
