<svg width="128" height="128" viewBox="0 0 128 128" fill="none" xmlns="http://www.w3.org/2000/svg">
<path d="M97.7456 85.5993C97.0852 82.5176 94.6089 80.4265 91.4722 80.3714C91.087 80.3714 90.7017 80.3714 90.3165 80.3714C90.3165 80.0413 90.3165 79.7661 90.3165 79.491C90.3165 74.5383 90.3165 69.5856 90.3165 64.6329C90.3165 62.2666 89.1059 61.0009 86.6845 61.0009C81.4017 61.0009 76.1738 61.0009 70.8909 61.0009C70.6157 61.0009 70.3406 61.0009 70.0654 60.9458C70.0654 52.8014 70.0654 44.767 70.0654 36.6776C70.1755 36.7326 70.2306 36.7876 70.2856 36.7876C72.7069 39.0989 75.0732 41.4102 77.4395 43.7214C77.9348 44.2167 78.1549 44.767 78.1549 45.4824C78.1549 47.6836 78.1549 49.8848 78.1549 52.086C78.1549 53.7369 78.1549 55.4428 78.1549 57.0937C78.1549 57.8641 78.5401 58.3044 79.1454 58.3044C79.7507 58.3044 80.0809 57.8641 80.0809 57.0937C80.0809 53.2416 80.0809 49.3345 80.0809 45.4824C80.0809 44.1616 79.5856 43.1161 78.6501 42.2356C75.7335 39.4291 72.817 36.5675 69.9004 33.761C69.4051 33.3207 68.9648 33.2107 68.3045 33.4308C63.1867 35.1917 58.1239 36.8977 53.0061 38.6036C52.786 38.6586 52.5109 38.7137 52.2357 38.8237C52.2357 37.558 52.2357 36.3474 52.2357 35.1367C52.1807 33.3207 50.86 32 49.154 32C47.283 32 46.0173 33.2657 46.0173 35.1918C46.0173 36.8977 46.0173 38.6036 46.0173 40.3646C46.0173 40.8598 45.8522 41.0249 45.412 41.19C44.3114 41.5202 43.2658 41.9054 42.2202 42.2906C39.8539 43.0611 38.8634 44.4368 38.8634 46.9682C38.8634 57.8641 38.8634 68.7051 38.8634 79.601C38.8634 79.8762 38.8634 80.1513 38.8634 80.4265C38.6983 80.4815 38.6433 80.4815 38.5882 80.4815C34.6261 80.8117 31.5994 83.5082 31.1592 87.4703C30.884 89.5615 31.0491 91.7076 31.0491 93.8538C31.0491 94.5692 31.4343 95.2296 32.0947 95.5047C32.7 95.7799 33.4154 95.9449 34.0758 95.9449C54.3268 95.9449 74.5229 95.945 94.774 96C96.2598 96 97.3604 95.5047 97.9107 94.0739C97.9107 91.3775 97.9107 88.681 97.9107 85.9845C97.8556 85.7644 97.8006 85.7094 97.7456 85.5993ZM38.8634 82.3525C38.8634 84.1685 38.8634 85.9295 38.8634 87.7455C36.9373 87.7455 35.0663 87.7455 33.0852 87.7455C33.2503 84.9389 35.9468 82.3525 38.8634 82.3525ZM38.8634 93.9089C37.4876 93.9089 36.1119 93.9089 34.7361 93.9089C32.755 93.9089 32.9752 94.0189 32.9752 92.1479C32.9752 91.3775 32.9752 90.6071 32.9752 89.7816C34.9563 89.7816 36.8823 89.7816 38.8634 89.7816C38.8634 91.1574 38.8634 92.5331 38.8634 93.9089ZM47.9984 34.9716C47.9984 34.3663 48.4386 33.9811 49.099 33.9811C49.7593 33.9811 50.2546 34.3663 50.3097 35.0267C50.3647 35.632 50.3097 36.2373 50.3097 36.8427C50.3097 37.558 50.3097 38.3285 50.3097 39.0439C50.3097 39.209 50.1996 39.4841 50.0895 39.5391C49.4292 39.8143 48.7688 40.0344 47.9984 40.2545C47.9984 38.4385 47.9984 36.7326 47.9984 34.9716ZM51.7955 93.8538C50.5298 93.8538 49.3191 93.8538 47.9984 93.8538C47.9984 91.4325 47.9984 89.0112 47.9984 86.6449C47.9984 86.4798 48.1635 86.2046 48.3286 86.1496C49.4842 85.8194 50.5848 85.4892 51.7955 85.1591C51.7955 88.1307 51.7955 90.9922 51.7955 93.8538ZM57.5736 93.8538C56.363 93.8538 55.0973 93.8538 53.8316 93.8538C53.8316 90.7721 53.8316 87.6904 53.8316 84.6088C55.0422 84.2786 56.3079 83.9484 57.5736 83.5632C57.5736 87.0301 57.5736 90.4419 57.5736 93.8538ZM46.0723 56.3783C46.2374 56.8186 46.5676 57.0937 47.0629 57.0387C47.338 56.9837 47.6132 56.9286 47.8883 56.8186C54.3819 54.6174 60.8754 52.4712 67.369 50.27C67.534 50.215 67.7542 50.1599 68.0293 50.0499C68.0293 51.7008 68.0293 53.1866 68.0293 54.7274C68.0293 54.8925 67.6991 55.1126 67.479 55.1677C63.9021 56.3783 60.2701 57.589 56.6931 58.7997C53.4464 59.9003 50.2546 60.9458 47.0078 62.0464C46.7877 62.1015 46.5676 62.2115 46.4025 62.3216C46.0173 62.5967 45.9072 63.037 46.1274 63.4772C46.3475 63.9725 46.7877 64.1376 47.338 63.9725C48.0534 63.7524 48.7688 63.5322 49.4292 63.2571C55.3724 61.276 61.3707 59.2399 67.3139 57.2588C67.5341 57.2038 67.6991 57.1487 68.0293 57.0387C68.0293 58.1943 68.0293 59.2949 68.0293 60.3955C68.0293 61.9914 68.0293 61.9914 66.5435 62.4867C60.105 64.6328 53.6115 66.834 47.1729 68.9802C47.0629 69.0352 46.8978 69.0352 46.7877 69.0903C46.1824 69.3104 45.9072 69.8057 46.0723 70.356C46.2374 70.9063 46.7877 71.1264 47.393 70.9063C48.4937 70.5761 49.5943 70.1909 50.6398 69.8057C56.3079 67.9346 61.921 66.0086 67.5891 64.1376C67.6992 64.0825 67.8092 64.0825 67.9743 64.0275C67.9743 64.2476 68.0293 64.4127 68.0293 64.6329C68.0293 65.8985 68.0293 67.1642 68.0293 68.4299C68.0293 68.8701 67.8642 69.0903 67.479 69.2003C63.3518 70.5761 59.2245 71.9518 55.1523 73.3276C54.9872 73.3826 54.8771 73.4376 54.712 73.4927C54.1617 73.7128 53.9416 74.2081 54.1067 74.7034C54.2718 75.2537 54.7671 75.5288 55.3724 75.3087C57.0233 74.7584 58.6742 74.2081 60.3251 73.6578C62.6914 72.8323 65.1127 72.0619 67.479 71.2365C67.6441 71.1814 67.8092 71.1264 68.0293 71.0714C68.0293 78.6105 68.0293 86.1496 68.0293 93.6887C65.2778 93.6887 62.4713 93.6887 59.6097 93.6887C59.6097 93.4686 59.6097 93.1935 59.6097 92.9733C59.6097 89.9467 59.5547 86.9751 59.6097 83.9484C59.6648 82.1324 58.179 81.0318 56.5281 81.5821C53.7215 82.4626 50.8599 83.178 48.0534 83.9484C46.6226 84.3336 46.0173 85.159 46.0173 86.5898C46.0173 88.9011 46.0173 91.1573 46.0173 93.4686C46.0173 93.5236 46.0173 93.5787 45.9623 93.6337C44.2563 93.6337 42.5504 93.6337 40.8445 93.6337C40.8445 93.3586 40.8445 93.1384 40.8445 92.8633C40.8445 77.4549 40.8445 61.9914 40.8445 46.583C40.8445 44.9871 41.2847 44.3267 42.8256 43.8315C50.97 41.08 59.0594 38.3835 67.2039 35.632C67.424 35.577 67.6991 35.4669 68.0293 35.4119C68.0293 35.632 68.0844 35.742 68.0844 35.9071C68.0844 37.3379 68.0844 38.7137 68.0844 40.1445C68.0844 40.5297 67.9743 40.6948 67.5891 40.8598C60.8754 43.1161 54.1067 45.3723 47.393 47.6285C47.1179 47.7386 46.8428 47.7936 46.6226 47.9037C46.1274 48.1238 45.9623 48.5641 46.1274 49.0593C46.2925 49.5546 46.6777 49.7747 47.1729 49.7197C47.4481 49.6647 47.6682 49.6096 47.9433 49.4996C54.3819 47.3534 60.8754 45.1522 67.3139 43.006C67.5341 42.951 67.7542 42.8409 68.0844 42.7309C68.0844 43.7214 68.0844 44.712 68.0844 45.6475C68.0844 46.3078 68.3045 47.1883 67.9743 47.6285C67.6441 48.0688 66.7637 48.1789 66.1583 48.399C59.8299 50.5451 53.5014 52.6913 47.1179 54.7825C46.9528 54.8375 46.7327 54.8925 46.5676 55.0026C46.1274 55.4979 45.9623 55.8831 46.0723 56.3783ZM84.4283 93.8538C79.6407 93.8538 74.9081 93.8538 70.0654 93.8538C70.0654 92.5331 70.0654 91.2124 70.0654 89.8366C74.8531 89.8366 79.5856 89.8366 84.4283 89.8366C84.4283 91.1573 84.4283 92.4781 84.4283 93.8538ZM84.4283 87.6354C84.4283 87.6904 84.4283 87.6904 84.3733 87.8005C79.6407 87.8005 74.8531 87.8005 70.0654 87.8005C70.0654 79.546 70.0654 71.2915 70.0654 62.9819C70.3406 62.9819 70.5607 62.9819 70.7808 62.9819C76.0637 62.9819 81.3466 62.9819 86.6295 62.9819C87.9502 62.9819 88.3354 63.3121 88.3354 64.6879C88.3354 69.8607 88.3354 75.0335 88.3354 80.2064C88.3354 80.6466 88.2254 80.9218 87.7851 81.1419C85.639 82.3525 84.5383 84.2236 84.4283 86.6449C84.4283 87.0301 84.4833 87.3052 84.4283 87.6354ZM88.0603 83.3981C89.7112 82.0774 91.5822 81.9673 93.4532 82.8478C95.2692 83.6732 96.0947 85.4342 95.8746 87.8005C92.7379 87.8005 89.6011 87.8005 86.5195 87.8005C86.0792 86.3697 86.7396 84.4437 88.0603 83.3981ZM95.3793 93.9089C92.4077 93.9089 89.4911 93.9089 86.4644 93.9089C86.4644 92.5331 86.4644 91.1573 86.4644 89.8366C89.6011 89.8366 92.7378 89.8366 95.9296 89.8366C95.9296 91.0473 95.9296 92.1479 95.9296 93.3035C95.9296 93.6337 95.7645 93.9089 95.3793 93.9089Z" fill="white"/>
<path d="M47.3381 78.1703C48.5487 77.785 49.7594 77.3998 50.97 76.9596C51.3002 76.8495 51.5203 76.4093 51.6304 76.2442C51.5754 75.3637 50.97 74.9235 50.3097 75.1436C49.099 75.5288 47.9434 75.914 46.7327 76.3543C46.1274 76.5744 45.9073 77.0697 46.0724 77.5649C46.2374 78.0602 46.7327 78.3353 47.3381 78.1703Z" fill="white"/>
<path d="M83.878 72.8323C80.6862 72.8323 77.4945 72.8323 74.3028 72.8323C73.3122 72.8323 72.7069 73.5477 72.6519 74.4832C72.6519 75.1986 72.6519 75.859 72.6519 76.5744C72.6519 77.8401 73.2572 78.4454 74.5229 78.4454C76.0087 78.4454 77.5495 78.4454 79.0353 78.4454C80.6312 78.4454 82.2271 78.4454 83.823 78.4454C84.8135 78.4454 85.4738 77.8951 85.5289 76.9596C85.5839 76.0791 85.5839 75.1986 85.5289 74.3732C85.4738 73.4377 84.8135 72.8323 83.878 72.8323ZM83.5478 76.4643C80.5762 76.4643 77.6596 76.4643 74.6329 76.4643C74.6329 75.914 74.6329 75.3637 74.6329 74.8134C77.6045 74.8134 80.5762 74.8134 83.5478 74.8134C83.5478 75.3637 83.5478 75.914 83.5478 76.4643Z" fill="white"/>
<path d="M74.578 71.0163C76.0638 71.0163 77.6046 71.0163 79.0904 71.0163C80.6863 71.0163 82.2821 71.0163 83.878 71.0163C84.8686 71.0163 85.5289 70.466 85.584 69.4755C85.639 68.595 85.639 67.7145 85.584 66.8891C85.5289 66.0086 84.8686 65.4032 83.9881 65.4032C80.7963 65.4032 77.5496 65.4032 74.3578 65.4032C73.4223 65.4032 72.762 66.1186 72.762 67.0541C72.762 67.7695 72.762 68.4299 72.762 69.1453C72.6519 70.411 73.2572 71.0163 74.578 71.0163ZM74.633 67.3843C77.6046 67.3843 80.5762 67.3843 83.5478 67.3843C83.5478 67.9346 83.5478 68.4849 83.5478 69.0352C80.5762 69.0352 77.6596 69.0352 74.633 69.0352C74.633 68.4849 74.633 67.9346 74.633 67.3843Z" fill="white"/>
<path d="M77.4944 80.3715C76.4488 80.3715 75.3482 80.3164 74.3027 80.3715C73.3672 80.3715 72.7068 81.0318 72.7068 81.9674C72.7068 82.7928 72.7068 83.5632 72.7068 84.3887C72.7618 85.3242 73.3672 85.9845 74.3027 85.9845C74.7979 85.9845 75.3482 85.9845 75.8435 85.9845C76.3388 85.9845 76.8891 85.9845 77.3843 85.9845C78.3749 85.9845 79.0353 85.3242 79.0903 84.3887C79.1453 83.5632 79.1453 82.7928 79.0903 81.9674C79.0903 81.0318 78.4299 80.4265 77.4944 80.3715ZM77.1092 84.0035C76.2837 84.0035 75.4583 84.0035 74.6328 84.0035C74.6328 83.4532 74.6328 82.9579 74.6328 82.3526C75.4583 82.3526 76.2287 82.3526 77.1092 82.3526C77.1092 82.9029 77.1092 83.4532 77.1092 84.0035Z" fill="white"/>
</svg>
