<svg width="128" height="128" viewBox="0 0 128 128" fill="none" xmlns="http://www.w3.org/2000/svg">
<g id="Frame 44">
<g id="Group">
<path id="Vector" d="M95.751 43.885C95.5019 43.5866 95.3027 43.338 95.0039 43.0894C91.6669 39.7576 88.33 36.3761 84.993 33.0443C84.744 32.7957 84.4451 32.547 84.1463 32.2984C84.0467 32.1989 83.8973 32.0995 83.7977 32H45.4973C45.4475 32 45.4475 32 45.3977 32.0497C45.2981 32.0995 45.1984 32.1492 45.0988 32.1492C43.5051 32.6465 42.5588 33.8897 42.5089 35.5307V35.6799C42.5089 36.1274 42.4591 36.6247 42.5089 37.0723C42.6086 37.8679 42.2101 38.216 41.6124 38.5144C35.586 41.4981 32.2988 46.4211 32 53.1842C32 53.6317 32.0498 53.9301 32.249 54.1787C32.4482 54.3776 32.7969 54.4771 33.2949 54.4771C37.9268 54.4771 42.758 54.4771 48.0872 54.4771C49.0833 54.4771 49.3821 54.129 49.4319 53.1344C49.4319 48.2113 49.4319 43.2883 49.4319 38.3652C49.4319 37.8679 49.3323 37.5198 49.0833 37.3209C48.884 37.122 48.5354 37.0225 48.0374 37.0723C47.3401 37.122 46.6428 37.1717 45.8957 37.2712C45.5471 37.3209 45.2483 37.3209 44.8996 37.3706L44.6506 37.4204V36.0777C44.6506 34.5859 45.1486 34.0389 46.6428 34.0389H82.5525V37.0723C82.5525 38.6138 82.5525 40.1554 82.5525 41.6472C82.5525 44.0342 84.0467 45.526 86.3876 45.526C87.9315 45.526 89.4755 45.526 91.0195 45.526H94.0078V55.77C94.0078 67.9037 94.0078 80.0373 94.0078 92.1709C94.0078 93.5136 93.4599 94.0109 92.1152 94.0109C88.7284 94.0109 85.3914 94.0109 82.0047 94.0109H71.0475C62.8794 94.0109 54.7113 94.0109 46.5432 94.0109C45.1486 94.0109 44.6008 93.4639 44.6008 92.0715C44.6008 91.1764 44.6008 90.331 44.6008 89.4359V86.4522C44.6008 84.9604 44.6008 83.4685 44.6008 81.9767C44.6008 81.3302 44.3518 80.8827 43.9035 80.7335C43.5549 80.634 43.256 80.6838 43.007 80.8329C42.7082 81.0319 42.5588 81.4297 42.5588 81.927C42.5588 82.5237 42.5588 83.1702 42.5588 83.7669C42.5588 86.6014 42.5588 89.4856 42.6086 92.3698C42.6086 92.9666 42.8078 93.613 43.1564 94.359C43.6047 95.3038 44.6008 95.7016 45.5471 96H93.0615C94.4062 95.5524 95.2031 94.9557 95.6514 93.9611C95.751 93.7622 95.8506 93.5136 95.9004 93.3147C95.9502 93.2152 95.9502 93.1158 96 93.066V44.1336C95.9502 44.1336 95.8506 43.9845 95.751 43.885ZM47.091 39.2106H47.3401V52.4382H34.1416V52.1896C34.2412 49.2059 35.6358 46.073 37.9767 43.6364C40.4171 41.0008 43.6545 39.4592 47.091 39.2106ZM88.2802 43.4872C88.0809 43.4872 87.8319 43.4872 87.6327 43.4872C87.4335 43.4872 87.2342 43.4872 86.9852 43.4872C86.6864 43.4872 86.3876 43.4872 86.1385 43.4872C85.1922 43.4375 84.5945 42.8904 84.5447 42.0451C84.4949 40.6527 84.5447 39.2603 84.5447 37.9176C84.5447 37.3706 84.5447 36.8734 84.5447 36.3263V35.7793L92.2646 43.4872H88.2802Z" fill="white"/>
<path id="Vector_2" d="M56.0562 74.07C64.9216 72.3295 70.699 63.6768 68.9558 54.8252C67.4617 47.366 60.8873 41.7964 53.3169 41.5975C52.7192 41.5975 52.3706 41.6473 52.1714 41.8462C51.9722 42.0451 51.8725 42.4429 51.8725 43.0397C51.8725 45.5261 51.8725 48.0125 51.8725 50.4491V56.9635H47.2406C46.0951 56.9635 44.9496 56.9635 43.8041 56.9635C41.8118 56.9635 39.7698 56.9635 37.7776 56.9635C37.2795 56.9635 36.9807 57.063 36.7815 57.2619C36.5823 57.4608 36.4827 57.8089 36.5325 58.2564C36.5823 59.1515 36.6321 60.1958 36.8313 61.1407C37.678 65.4173 40.1185 69.0971 43.8041 71.5338C47.4399 74.0699 51.7729 74.9651 56.0562 74.07ZM53.9644 43.7358H54.2134C56.8531 43.8353 60.2399 45.2774 61.9831 46.9184L62.1325 47.0676L53.9644 55.223V43.7358ZM38.6243 59.251V59.0024H39.5706C40.6663 59.0024 41.7122 59.0024 42.808 59.0024C45.9457 59.0024 49.1831 59.0024 52.3706 59.0024C53.0181 59.0024 53.5161 58.8034 53.9644 58.3559C56.0562 56.2673 58.1978 54.129 60.2399 52.0404C61.1364 51.1453 62.0827 50.2005 62.9792 49.3054C63.0788 49.2059 63.1784 49.1065 63.278 48.9573C63.3278 48.9076 63.3776 48.8578 63.4274 48.8081L63.5768 48.6092L63.776 48.8081C65.3698 50.4491 66.5652 52.9355 67.0134 55.5711C67.5115 58.6045 67.113 61.5882 65.7683 64.3232C63.3278 69.2961 58.1978 72.4289 52.8687 72.4289C51.9224 72.4289 50.9262 72.3295 49.9799 72.1306C42.9076 70.5393 38.9231 64.4724 38.6243 59.251Z" fill="white"/>
<path id="Vector_3" d="M68.3082 79.7886C68.0094 79.4903 67.9098 79.1919 68.0094 78.7443C68.2584 77.6503 68.0592 76.5563 67.3619 75.7109C66.7144 74.8656 65.6685 74.3683 64.5728 74.3683C63.4273 74.3683 62.4312 74.9153 61.7339 75.8104C61.0864 76.7055 60.8872 77.8492 61.2359 78.9433C61.3853 79.3908 61.2857 79.6892 60.9868 79.9875C59.5425 81.4297 58.2475 82.6729 57.0522 83.9161C56.7534 84.2642 56.4047 84.3139 56.0063 84.1647C55.6078 84.0155 55.2094 83.9658 54.8608 83.9658C54.1635 83.9658 53.4662 84.2144 52.8187 84.662C51.3246 85.756 50.9261 87.6954 51.8724 89.2867C52.7689 90.8283 54.7113 91.425 56.3549 90.7288C58.0483 89.9829 58.8452 88.1429 58.2475 86.4025C58.0981 85.9549 58.1977 85.6566 58.4965 85.3582C59.0942 84.8112 59.6421 84.2144 60.1899 83.6674C60.937 82.9215 61.6841 82.1756 62.4312 81.4794C62.6304 81.2805 63.0786 81.181 63.3775 81.2308C64.4234 81.5291 65.2203 81.4794 65.9176 81.1313C66.4156 80.8827 66.7145 81.0816 66.9635 81.3302C68.358 82.7723 69.7028 84.0653 70.9479 85.3582C71.2467 85.6566 71.3464 86.0046 71.1969 86.4522C70.6989 87.8943 71.2467 89.5353 72.4919 90.4304C73.6872 91.2758 75.3806 91.2758 76.5759 90.4304C77.8709 89.4856 78.3689 87.944 77.8709 86.4522C77.7215 86.0544 77.8211 85.756 78.1199 85.4576C80.2615 83.3193 82.453 81.1313 84.6444 78.8935C84.993 78.5454 85.2919 78.5952 85.5907 78.6449C85.6903 78.6449 85.7899 78.6946 85.8895 78.6946C86.537 78.7941 87.1845 78.8935 87.7323 78.7941C88.6288 78.5952 89.3759 78.0482 89.874 77.2525C90.372 76.4569 90.5214 75.4623 90.2724 74.5175C89.7744 72.6278 87.8818 71.4841 86.039 71.9316C85.0927 72.1803 84.246 72.777 83.7977 73.6224C83.3495 74.418 83.2 75.3628 83.4491 76.3077C83.5985 76.7552 83.4989 77.1033 83.1502 77.4017C81.0086 79.4903 78.8172 81.728 76.6257 83.9658C76.3767 84.2144 76.0779 84.4133 75.6296 84.2144C74.8825 83.9161 74.1355 83.9161 73.3884 84.2144C72.8903 84.4133 72.5915 84.2144 72.3425 83.9161C71.0973 82.5237 69.7028 81.181 68.3082 79.7886ZM54.9106 88.9883C54.0639 88.9883 53.4164 88.2424 53.4164 87.4468C53.4164 87.0489 53.6156 86.7008 53.8646 86.4025C54.1635 86.1041 54.5121 85.9549 54.9106 86.0046C55.309 86.0046 55.6576 86.2036 55.9565 86.5019C56.2553 86.8003 56.4047 87.1484 56.3549 87.5462C56.3549 88.3419 55.7074 88.9883 54.9106 88.9883ZM64.5728 79.3411C64.1744 79.3411 63.7759 79.1919 63.5269 78.8935C63.2779 78.5952 63.1285 78.2471 63.1285 77.8493C63.1285 77.0536 63.7759 76.4071 64.6226 76.4071C64.6226 76.4071 64.6226 76.4071 64.6724 76.4071C65.0709 76.4071 65.4195 76.5563 65.7183 76.8547C65.9674 77.1531 66.1168 77.5012 66.1168 77.899C66.067 78.6946 65.3697 79.3411 64.5728 79.3411ZM86.9853 73.871C87.3837 73.871 87.7323 74.0202 88.0312 74.3186C88.33 74.6169 88.4296 74.965 88.4296 75.3628C88.4296 76.1585 87.7323 76.805 86.9355 76.805C86.9355 76.805 86.9355 76.805 86.8857 76.805C86.4872 76.805 86.1386 76.606 85.8397 76.3077C85.5409 76.0093 85.4413 75.6612 85.4413 75.2634C85.4911 74.5175 86.1884 73.871 86.9853 73.871ZM73.5378 86.4025C73.8366 86.1041 74.1853 86.0046 74.5837 86.0046C74.9821 86.0046 75.3308 86.2036 75.6296 86.5019C75.9285 86.8003 76.0779 87.1484 76.0281 87.5462C76.0281 88.3419 75.3308 88.9883 74.5339 88.9883C74.5339 88.9883 74.5339 88.9883 74.4841 88.9883C73.6872 88.9883 73.0397 88.2921 73.0397 87.4468C73.0895 87.0489 73.239 86.7008 73.5378 86.4025Z" fill="white"/>
<path id="Vector_4" d="M74.2348 51.5929C75.9779 51.5929 77.7709 51.5929 79.5141 51.5929C80.2114 51.5929 80.9585 51.5929 81.6558 51.5929H83.7974C85.5904 51.5929 87.3834 51.5929 89.1764 51.5929C89.6246 51.5929 89.9733 51.4437 90.2223 51.2448C90.4215 51.0459 90.4713 50.7972 90.4215 50.4989C90.3717 49.9021 89.9235 49.6037 89.1266 49.554C86.3873 49.554 83.648 49.554 80.9087 49.554H77.9204C77.5717 49.554 77.2231 49.554 76.8246 49.554C76.476 49.554 76.1274 49.554 75.7289 49.554C75.2309 49.554 74.683 49.554 74.185 49.554C73.5375 49.554 73.1888 49.8027 73.0394 50.3497C72.9896 50.6978 73.0394 50.9464 73.1888 51.195C73.3881 51.4437 73.7865 51.5929 74.2348 51.5929Z" fill="white"/>
<path id="Vector_5" d="M73.0398 56.9635C73.239 57.411 73.5877 57.6099 74.1853 57.6099H79.5145C82.7519 57.6099 85.9394 57.6099 89.1768 57.6099C89.376 57.6099 89.5752 57.5602 89.7246 57.5105C90.1729 57.3613 90.3721 57.0629 90.3721 56.5656C90.3721 56.1181 90.1729 55.77 89.7246 55.6208C89.4756 55.5214 89.1768 55.5214 88.9277 55.5214C87.0849 55.5214 85.2421 55.5214 83.3993 55.5214H76.7254C76.4764 55.5214 76.1775 55.5214 75.9285 55.5214C75.3308 55.5214 74.6834 55.5214 74.0857 55.5214C73.6873 55.5214 73.2888 55.7203 73.1394 56.0186C72.9402 56.3667 72.9402 56.6651 73.0398 56.9635Z" fill="white"/>
<path id="Vector_6" d="M78.3192 61.6379C78.0203 61.6379 77.7215 61.6379 77.4227 61.6379C77.074 61.6379 76.7752 61.6379 76.4266 61.6379C76.1277 61.6379 75.7791 61.6379 75.4803 61.6379C75.032 61.6379 74.6336 61.6379 74.1853 61.6379C73.488 61.6379 72.99 62.0854 72.99 62.6822C72.99 63.2789 73.488 63.6767 74.1853 63.6767C76.2273 63.6767 78.3192 63.6767 80.411 63.6767C81.1581 63.6767 81.6063 63.2789 81.6561 62.6822C81.6561 62.4335 81.5565 62.1849 81.4071 61.986C81.2079 61.7871 80.8593 61.6379 80.411 61.6379C79.7137 61.6379 79.0164 61.6379 78.3192 61.6379Z" fill="white"/>
<path id="Vector_7" d="M85.3916 62.6822C85.3916 62.9308 85.4912 63.2292 85.6904 63.4281C85.8897 63.627 86.1387 63.7265 86.3877 63.7265C86.9356 63.7265 87.3838 63.2292 87.3838 62.7319C87.3838 62.4833 87.2842 62.2346 87.085 62.0357C86.8858 61.8368 86.6367 61.7374 86.3877 61.7374C85.8399 61.6379 85.3916 62.1352 85.3916 62.6822Z" fill="white"/>
<path id="Vector_8" d="M43.5549 76.1585C43.3059 76.1585 43.0569 76.258 42.8577 76.4569C42.6584 76.6558 42.5588 76.9044 42.509 77.1531C42.509 77.6503 42.9573 78.1973 43.5051 78.1973C43.7542 78.1973 44.0032 78.0979 44.2024 77.899C44.4016 77.7001 44.5013 77.4514 44.5511 77.2028C44.6009 76.6558 44.1028 76.1585 43.5549 76.1585C43.6048 76.1585 43.6048 76.1585 43.5549 76.1585Z" fill="white"/>
</g>
</g>
</svg>
