<svg width="128" height="128" viewBox="0 0 128 128" fill="none" xmlns="http://www.w3.org/2000/svg">
<g id="Frame 45">
<g id="Group">
<path id="Vector" d="M95.9502 43.4977C95.9005 38.7698 92.2177 35.0871 87.5397 35.0373C78.93 34.9876 69.9222 34.9876 60.0187 35.0373C56.0871 35.0373 52.703 37.7745 51.8569 41.6563C51.4588 43.5474 51.5086 45.5381 51.6081 47.479C51.6579 48.2255 51.6579 49.0218 51.6579 49.7683C51.6579 50.2659 52.1555 50.5646 52.6034 50.6143C52.902 50.6143 53.1509 50.5148 53.3002 50.3655C53.4992 50.1664 53.5988 49.8678 53.6485 49.4697C53.6485 48.2255 53.6485 46.9813 53.6485 45.7869C53.6485 45.1897 53.6485 44.6423 53.6485 44.0451C53.6485 42.0544 54.2955 40.3126 55.5894 39.0187C56.8336 37.7745 58.5754 37.0778 60.5661 37.0778C64.7963 37.0778 69.0264 37.0778 73.3064 37.0778H76.2426C77.3375 37.0778 78.4821 37.0778 79.577 37.0778C82.1649 37.0778 84.8523 37.0778 87.5397 37.0778C90.9736 37.1275 93.9098 39.9642 93.9098 43.2986C93.9596 50.5645 93.9596 57.084 93.9098 63.3048C93.86 65.5443 92.7652 67.3857 90.675 68.6299C89.4806 69.3266 88.1369 69.6252 86.4946 69.5257C85.7978 69.4759 85.3002 69.675 84.8523 70.1726C84.4044 70.6703 83.9067 71.168 83.409 71.6159C83.21 71.7652 83.0607 71.9642 82.8616 72.1135C82.6625 72.3126 82.4137 72.5117 82.1649 72.7605L81.3686 73.507V71.4168C81.3686 70.521 81.3188 69.9736 81.07 69.7247C80.8212 69.4759 80.2737 69.4261 79.3779 69.4261H74.5008L74.451 69.2271C73.4557 65.4946 72.9082 64.1509 71.1664 61.9611C68.0809 58.1291 64.1493 56.0389 59.4712 55.8398C55.9378 55.6905 52.3546 55.7403 48.9207 55.7403H48.3732C46.93 55.7403 45.6361 55.8896 44.4914 56.1882C38.818 57.6314 34.9362 61.1649 32.9456 66.5894C32.5972 67.4852 32.4479 68.4806 32.2488 69.4759C32.1493 69.9238 32.0995 70.3717 32 70.8196V73.1586C32 73.1586 32 73.1586 32 73.2084C32.0498 73.2582 32.0498 73.3577 32.0498 73.4572C32.4479 77.6376 34.2395 81.2208 37.3748 84.1571C37.6236 84.4059 37.7232 84.8041 37.7729 85.1027C37.7729 85.9487 37.7729 86.745 37.7729 87.591C37.7729 88.6859 37.7729 89.8305 37.8227 90.9751C37.8227 91.3235 38.0218 91.7216 38.2208 91.9705C38.3701 92.1198 38.5194 92.2193 38.7185 92.2193C39.0171 92.2193 39.3157 92.07 39.6641 91.7714C41.0575 90.4277 42.2022 89.283 43.1975 88.1882C43.5459 87.79 43.944 87.7901 44.3421 87.8398L44.6905 87.8896C45.6361 88.0389 46.5816 88.238 47.5272 88.238C50.5132 88.2877 53.549 88.2877 56.4852 88.2877H58.1773C60.5163 88.2877 62.6065 87.8896 64.4479 87.0933C69.3748 85.0031 72.6096 81.4199 74.0529 76.3935C74.3515 75.3982 74.5008 74.353 74.6501 73.2084C74.6998 72.7107 74.7994 72.2131 74.8989 71.6656L74.9487 71.4666H79.3779V71.7154C79.3779 72.1135 79.3779 72.4619 79.3779 72.86C79.3779 73.8056 79.3779 74.6516 79.3779 75.5972C79.3779 76.1944 79.4775 76.6423 80.0249 76.8912C80.5723 77.14 80.9705 76.8911 81.4184 76.4432C81.8663 75.9953 82.3141 75.5474 82.7621 75.0995C83.7076 74.2037 84.6532 73.2582 85.549 72.2628C86.0964 71.6656 86.6936 71.4168 87.4899 71.4168C92.2177 71.367 95.9502 67.6345 96 62.9565C96 56.3375 96 49.7185 95.9502 43.4977ZM72.0622 76.1944C71.0171 79.6283 68.6283 82.5645 65.3935 84.4557C63.3033 85.6501 60.9642 86.297 58.4261 86.297H57.3313C54.1462 86.297 50.9114 86.2971 47.6765 86.2473C46.4323 86.1975 45.1882 85.9487 44.1431 85.6501C43.3468 85.451 42.8491 85.6003 42.3515 86.1478C41.9036 86.6454 41.4557 87.0933 40.958 87.591C40.7589 87.7901 40.5599 87.9891 40.3608 88.1882L40.2613 88.2877L39.8134 88.0887V87.9393C39.8134 87.591 39.8134 87.2924 39.8134 86.944C39.8134 86.1975 39.8134 85.4013 39.8134 84.6548C39.8631 83.9083 39.6143 83.311 38.9673 82.8134C36.8274 81.0218 35.3344 78.633 34.5381 75.7963C33.0451 70.4215 35.0855 64.2504 39.5645 60.8663C42.1524 58.8756 45.0886 57.8803 48.2737 57.8803C49.0202 57.8803 49.7667 57.8803 50.5132 57.8803C53.3997 57.8305 56.3857 57.8305 59.3717 57.9798C64.647 58.2784 68.6781 60.916 71.0669 65.6936C72.7589 69.028 73.1073 72.7605 72.0622 76.1944Z" fill="white"/>
<path id="Vector_2" d="M87.7386 47.0809H85.101C78.8304 47.0809 72.5598 47.0809 66.3389 47.0809H66.2394C66.1897 47.0809 66.1399 47.0809 66.1399 47.0809C65.9906 47.0809 65.891 47.0809 65.7915 47.0809C65.2441 47.1804 64.8459 47.5785 64.8459 48.0762C64.8459 48.5739 65.2441 49.0218 65.7915 49.0715C65.9408 49.0715 66.0901 49.0715 66.2892 49.0715H66.3887C69.2752 49.0715 72.2114 49.0715 75.0979 49.0715H79.975C82.6127 49.0715 85.2005 49.0715 87.8382 49.0715C88.2861 49.0715 88.6344 48.972 88.8833 48.7729C89.1321 48.5739 89.2316 48.3748 89.2316 48.0264C89.1321 47.1804 88.1865 47.0809 87.7386 47.0809Z" fill="white"/>
<path id="Vector_3" d="M79.0792 55.1929H80.9703C83.2098 55.1929 85.4494 55.1929 87.6889 55.1929C87.9377 55.1929 88.2363 55.1929 88.4851 55.0933C89.0325 54.8943 89.1321 54.4961 89.1321 54.1478C89.1321 53.6999 88.933 53.3515 88.4851 53.2022C88.2363 53.1027 87.9377 53.1027 87.7386 53.1027C82.6126 53.1027 77.0885 53.1027 70.37 53.1027C70.171 53.1027 69.9221 53.1027 69.7231 53.1524C69.2752 53.252 68.9766 53.6501 68.9766 54.098C68.9766 54.5459 69.2752 54.944 69.7231 55.0436C69.9221 55.0933 70.2207 55.0933 70.4198 55.0933C72.7091 55.0933 74.9486 55.0933 77.2378 55.0933L79.0792 55.1929Z" fill="white"/>
<path id="Vector_4" d="M77.5366 61.2146C78.7808 61.2146 80.025 61.2146 81.2194 61.2146C81.7171 61.2146 82.2147 61.2146 82.7621 61.2146H84.2054C85.3998 61.2146 86.644 61.2146 87.8384 61.2146C88.2863 61.2146 88.6844 61.0653 88.8835 60.8663C89.0328 60.6672 89.1323 60.4681 89.1323 60.1695C89.1323 59.5226 88.6346 59.1742 87.8384 59.1742C86.6937 59.1742 85.5491 59.1742 84.4045 59.1742H82.9612C82.4138 59.1742 81.9161 59.1742 81.3687 59.1742C80.871 59.1742 80.3236 59.1742 79.8259 59.1742C79.0296 59.1742 78.2831 59.1742 77.4869 59.1742C76.7404 59.1742 76.3422 59.5226 76.2925 60.1198C76.2925 60.4184 76.3422 60.6672 76.5413 60.8165C76.7901 61.1151 77.1385 61.2146 77.5366 61.2146Z" fill="white"/>
<path id="Vector_5" d="M60.168 49.1213C60.6656 49.1213 61.1633 48.6734 61.2131 48.126C61.2131 47.6283 60.7652 47.1306 60.2177 47.0809C59.7201 47.0809 59.2224 47.5785 59.2224 48.0762C59.2224 48.325 59.3219 48.5739 59.521 48.7729C59.6205 49.0218 59.9191 49.1213 60.168 49.1213Z" fill="white"/>
<path id="Vector_6" d="M53.5987 65.1462C51.5583 64.9471 49.6174 66.4899 49.269 68.5801C49.1695 69.1275 49.2192 69.5754 49.4183 69.874C49.5676 70.0731 49.7667 70.2224 50.0653 70.2722C50.3639 70.3219 50.6127 70.2722 50.8118 70.0731C51.0108 69.874 51.1601 69.4759 51.2597 68.9782C51.409 68.0327 52.1555 67.3359 53.1508 67.2364C53.2006 67.2364 53.2503 67.2364 53.3001 67.2364C54.0964 67.2364 54.9424 67.7838 55.241 68.5303C55.5894 69.4261 55.2908 70.4712 54.5443 70.9689C54.2954 71.1182 54.0466 71.2178 53.8475 71.3173C53.748 71.3671 53.6982 71.367 53.5987 71.4168C53.101 71.6159 52.5038 72.014 52.4043 72.7605C52.3048 73.7061 52.3545 74.7014 52.4043 75.5972C52.4541 76.1446 52.902 76.4433 53.3499 76.4433C53.8475 76.4433 54.2457 76.0949 54.3452 75.5972C54.395 75.0995 54.395 74.6019 54.395 74.154C54.3452 73.6065 54.5443 73.2582 55.0917 73.0093C56.5349 72.3624 57.381 71.168 57.4805 69.675C57.4307 67.2364 55.888 65.3453 53.5987 65.1462Z" fill="white"/>
<path id="Vector_7" d="M53.3 78.8818C52.7526 78.8818 52.3047 79.3795 52.3047 79.8772C52.3047 80.126 52.4042 80.3748 52.6033 80.5739C52.8024 80.773 53.0512 80.8725 53.3 80.8725C53.5489 80.8725 53.7977 80.773 53.9968 80.5739C54.1958 80.3748 54.2954 80.126 54.2954 79.8772C54.2954 79.3795 53.8475 78.8818 53.3 78.8818Z" fill="white"/>
</g>
</g>
</svg>
