<svg width="128" height="128" viewBox="0 0 128 128" fill="none" xmlns="http://www.w3.org/2000/svg">
<g id="Frame 42">
<g id="Group">
<path id="Vector" d="M43.9799 49.495C44.5236 49.1985 44.8201 49.3467 45.0178 49.9398C45.3637 50.9282 46.0556 51.4224 47.0935 51.4718C47.5877 51.4718 48.0819 51.4718 48.5761 51.4718C49.6139 51.4718 50.3058 50.9282 50.6023 49.9398C50.8 49.3467 51.0965 49.2479 51.6896 49.5444C52.5297 49.9892 53.3699 49.8903 54.0618 49.2973C54.5066 48.9019 55.0008 48.4571 55.3961 47.9629C55.9892 47.271 56.088 46.4803 55.6433 45.6402C55.3467 45.0471 55.4456 44.7506 56.088 44.5529C57.027 44.2564 57.5707 43.5645 57.5707 42.5266C57.5707 42.0324 57.5707 41.5382 57.5707 41.044C57.5707 39.9568 57.027 39.3143 56.0386 38.9683C55.495 38.7707 55.3467 38.4247 55.6433 37.9305C56.088 37.0409 55.9892 36.2008 55.3467 35.4595C55.0502 35.1135 54.7043 34.817 54.3583 34.471C53.4687 33.5815 52.7274 33.4826 51.5907 34.0263C51.1459 34.2239 50.8 34.1251 50.7012 33.6803C50.4541 32.7907 49.9104 32.2965 49.1197 32C48.2795 32 47.4394 32 46.5992 32C45.8579 32.2965 45.2649 32.6919 45.0178 33.4826C44.8201 34.1251 44.5236 34.2239 43.9305 33.9274C43.0903 33.532 42.2502 33.5815 41.5583 34.2239C41.1135 34.6193 40.6687 35.0641 40.2734 35.5089C39.6309 36.2008 39.5815 37.0409 39.9768 37.8811C40.2734 38.4741 40.1251 38.7707 39.4826 38.9683C38.5931 39.2649 38.0494 39.9568 38 40.9452C38 41.4888 38 41.983 38 42.5266C38 43.5645 38.4942 44.2564 39.4826 44.6023C40.0757 44.8 40.224 45.0965 39.9274 45.6402C39.4826 46.4803 39.5815 47.3699 40.2239 48.0618C40.6193 48.5066 41.0147 48.9019 41.4595 49.2973C42.2502 49.8409 43.0904 49.9398 43.9799 49.495ZM40.1251 42.6749C40.0757 42.6749 40.0757 42.6255 39.9274 42.5761C39.9274 42.0819 39.9274 41.5382 39.9274 40.9946C39.9274 40.8958 40.1251 40.6981 40.2734 40.6981C41.756 40.3027 42.5467 38.4247 41.756 37.0903C41.6571 36.9421 41.7066 36.695 41.8054 36.5467C41.9043 36.349 42.1514 36.2008 42.2996 36.0031C42.6456 35.6077 42.9421 35.41 43.4363 35.8054C43.6834 36.0031 44.1776 36.0031 44.573 35.9537C45.0672 35.8548 45.5614 35.6571 45.9568 35.41C46.2533 35.2124 46.5004 34.817 46.6981 34.471C46.8463 34.2734 46.8958 33.878 46.9946 33.878C47.5382 33.8286 48.1313 33.878 48.6749 33.9274C48.7243 33.9274 48.7738 34.1745 48.8232 34.3228C48.922 34.9158 49.268 35.3112 49.7622 35.5583C50.1575 35.7066 50.5035 35.9042 50.9483 36.0031C51.2448 36.0525 51.5907 36.0525 51.9367 36.0031C52.2332 35.9537 52.6286 35.6077 52.7768 35.7066C53.1722 35.9537 53.5182 36.349 53.8641 36.7444C53.9629 36.8432 53.9135 37.0903 53.8147 37.2386C53.0734 38.573 53.8641 40.451 55.2973 40.7969C55.4456 40.8463 55.6433 40.9452 55.6433 41.044C55.6927 41.5382 55.6927 42.0324 55.6433 42.5266C55.6433 42.6255 55.4456 42.7243 55.2973 42.7737C53.8147 43.1691 53.0734 45.0471 53.8147 46.332C53.9135 46.4803 53.8147 46.7768 53.7158 46.9745C53.617 47.1722 53.3699 47.271 53.2216 47.4687C52.8757 47.8641 52.5792 48.1112 52.0849 47.617C52.0355 47.5676 51.9367 47.5181 51.8378 47.5181C50.9977 47.2216 49.0703 47.9135 48.922 48.7537C48.7243 49.7421 48.1807 49.6432 47.4888 49.6432C47.2417 49.6432 47.044 49.6432 46.7969 49.6432C46.451 48.1606 45.0178 47.1722 43.7328 47.5181C43.634 47.5181 43.5846 47.5676 43.4857 47.5676C43.2386 47.6664 42.8432 47.9629 42.7444 47.8641C42.2996 47.5676 41.9537 47.1228 41.6077 46.7274C41.5583 46.678 41.6077 46.4803 41.6572 46.3815C42.5962 44.8 41.8054 43.0208 40.1251 42.6749Z" fill="white"/>
<path id="Vector_2" d="M88.4586 77.3683C88.508 77.3189 88.508 77.2694 88.5574 77.22C89.6941 75.9351 89.9906 74.4525 89.2493 72.871C88.508 71.2895 87.1736 70.647 85.4439 70.6965C84.9497 70.6965 84.5049 70.6965 84.0107 70.6965C84.0107 69.6092 84.0107 68.6208 84.0107 67.6324C84.0107 66.9405 83.5165 66.4957 82.9234 66.644C82.3304 66.7428 82.1327 67.1876 82.1327 67.7312C82.1327 68.7196 82.1327 69.6586 82.1327 70.647C81.0949 70.647 80.1559 70.647 79.1675 70.647C79.1675 70.3505 79.1675 70.1034 79.1675 69.8563C79.1675 65.6061 79.1675 61.4053 79.1675 57.1552C79.1675 56.908 79.1675 56.7104 79.1675 56.4633C79.0686 56.0185 78.8215 55.7219 78.3273 55.6725C77.8331 55.6231 77.5366 55.8702 77.3883 56.315C77.3389 56.5621 77.3389 56.8586 77.3389 57.1057C77.3389 61.3559 77.3389 65.6061 77.3389 69.8563C77.3389 70.1034 77.3389 70.3505 77.3389 70.5976C76.5481 70.5976 75.8068 70.5976 74.9173 70.5976C74.9173 70.3505 74.9173 70.1034 74.9173 69.9057C74.9173 67.8301 74.9173 65.7544 74.9173 63.7281C74.9173 61.3559 73.4346 59.9227 71.0624 59.9227C70.5682 59.9227 70.074 59.9227 69.5798 59.9227C67.8995 59.9227 67.0593 60.7629 67.0593 62.4926C67.0593 65.1613 67.0593 67.8795 67.0593 70.5482C67.0593 70.7459 66.9605 71.0918 66.8617 71.1413C65.6261 71.586 64.44 72.2285 63.2045 72.3274C60.3875 72.525 57.5705 72.3768 54.7535 72.3768C54.6053 72.3768 54.3582 72.1791 54.3582 72.0803C53.9134 70.3505 53.1226 69.708 51.3435 69.708C48.9219 69.708 46.5003 69.708 44.0786 69.708C42.1512 69.708 41.064 70.7459 41.064 72.6733C41.064 79.4934 41.064 86.264 41.064 93.0841C41.064 94.9621 42.1512 96 44.0292 96C46.4014 96 48.7242 96 51.0964 96C53.0732 96 53.864 95.4069 54.4076 93.5289C55.9891 93.5289 57.62 93.6278 59.2014 93.5289C61.969 93.3312 64.6377 93.7266 67.1582 94.8633C67.603 95.061 68.0972 95.2092 68.5914 95.2092C74.3242 95.2092 80.057 95.2586 85.7898 95.2092C88.2609 95.2092 89.9906 93.2818 89.6447 90.959C89.4964 90.1189 89.0022 89.3776 88.6562 88.488C89.2493 87.8455 89.6941 86.9559 89.6941 85.8687C89.6941 84.7814 89.2493 83.8424 88.508 83.1011C90.04 80.7783 90.04 79.7405 88.4586 77.3683ZM52.3813 82.854C52.3813 86.1652 52.3813 89.5258 52.3813 92.837C52.3813 93.8749 52.1837 94.0725 51.1458 94.0725C48.7736 94.0725 46.4014 94.0725 44.0292 94.0725C43.1396 94.0725 42.8925 93.8254 42.8925 92.9359C42.8925 86.1652 42.8925 79.444 42.8925 72.6733C42.8925 71.7837 43.1396 71.5366 43.9798 71.5366C46.4014 71.5366 48.8725 71.5366 51.2941 71.5366C52.1837 71.5366 52.3813 71.7343 52.3813 72.6239C52.3813 76.0339 52.3813 79.444 52.3813 82.854ZM86.3335 78.3567C87.2725 78.7026 87.7667 79.3945 87.7173 80.2347C87.6678 81.1737 87.1736 81.7667 86.3335 82.0138C85.8393 82.1621 85.4933 82.4586 85.4933 83.0023C85.4933 83.5459 85.8393 83.793 86.3335 83.9413C87.1736 84.2378 87.6678 84.8308 87.7173 85.7698C87.7667 86.5606 87.2725 87.2525 86.3829 87.5984C85.8887 87.7961 85.4933 88.0432 85.4933 88.5868C85.4933 89.1799 85.9381 89.3776 86.3829 89.5752C87.2231 89.8718 87.6678 90.5142 87.6678 91.3544C87.6678 92.1451 87.2725 92.7382 86.5312 93.0841C86.2346 93.2324 85.8393 93.2818 85.4933 93.2818C79.9088 93.2818 74.3242 93.2818 68.7396 93.2818C68.4431 93.2818 68.1466 93.2324 67.8995 93.0841C64.9342 91.7992 61.8207 91.305 58.6084 91.5521C57.1752 91.6509 55.742 91.5521 54.2593 91.5521C54.2593 85.7698 54.2593 80.037 54.2593 74.2054C55.6431 74.2054 56.9281 74.2054 58.2624 74.2054C58.5589 74.2054 58.9049 74.1559 59.2014 74.2054C62.2161 74.5019 65.0825 73.9088 67.8501 72.7227C68.6408 72.3768 68.8385 72.2285 68.8385 71.3389C68.8385 68.4231 68.8385 65.4579 68.8385 62.542C68.8385 61.8996 69.0362 61.7019 69.6292 61.7513C70.1234 61.8007 70.6671 61.7513 71.2107 61.7513C72.298 61.7513 72.9898 62.4432 72.9898 63.5799C72.9898 66.1003 72.9898 68.5714 72.9898 71.0918C72.9898 72.2285 73.2369 72.4756 74.3736 72.4756C78.1296 72.4756 81.935 72.4756 85.691 72.4756C86.4817 72.4756 87.1242 72.7721 87.5196 73.464C87.9149 74.1559 87.9149 74.8972 87.4207 75.5397C87.1736 75.8857 86.7783 76.1328 86.3335 76.3305C85.8887 76.5281 85.4933 76.7752 85.4933 77.3189C85.4933 77.9119 85.8887 78.159 86.3335 78.3567Z" fill="white"/>
<path id="Vector_3" d="M76.7956 47.8641C77.1416 48.1112 77.2404 48.3089 77.2404 48.7042C77.2404 49.9892 77.2404 51.2247 77.2404 52.5096C77.2404 53.2509 77.5864 53.6957 78.1794 53.6957C78.7725 53.6957 79.1184 53.3004 79.1184 52.5096C79.1184 51.027 79.069 49.495 79.1184 48.0123C79.1184 47.271 78.8713 46.8757 78.2288 46.5297C76.2026 45.4425 75.1647 43.3174 75.5601 41.044C75.8072 39.7591 76.4497 38.7212 77.6358 37.8316C77.6358 38.7706 77.6852 39.6108 77.6358 40.4509C77.5369 41.6865 78.0311 42.5266 79.069 43.1197C79.8597 43.5645 80.5516 43.861 81.3918 43.3668C82.3802 42.7737 83.3686 42.2301 83.2698 40.8463C83.2203 39.8579 83.2698 38.8695 83.2698 37.7328C83.4674 37.8811 83.5663 37.9305 83.6651 37.9799C86.581 40.2038 86.235 44.8 82.9732 46.5297C82.2813 46.9251 81.9848 47.3699 81.9848 48.1606C82.0342 53.2015 81.9848 58.2425 81.9848 63.2834C81.9848 64.2224 82.2813 64.7166 82.9238 64.6672C83.5663 64.6672 83.8628 64.2224 83.8628 63.234C83.8628 58.3907 83.8628 53.5475 83.8628 48.7042C83.8628 48.3583 83.9122 48.1112 84.2582 47.8641C86.6798 46.2826 87.7671 44.0092 87.4211 41.1428C87.0752 38.3258 85.4937 36.3984 82.825 35.41C81.886 35.0641 81.2929 35.41 81.2929 36.4479C81.2929 37.7822 81.2929 39.166 81.2929 40.5004C81.2929 40.9946 80.7493 41.6865 80.3539 41.6865C79.9586 41.6865 79.4149 41.044 79.4149 40.5004C79.4149 39.166 79.4149 37.8316 79.4149 36.4973C79.4149 35.5583 78.8219 35.1135 77.9817 35.4594C75.3624 36.5467 73.781 38.5235 73.5339 41.3899C73.3856 44.1575 74.5223 46.332 76.7956 47.8641Z" fill="white"/>
<path id="Vector_4" d="M59.6954 42.6749C60.0414 42.8726 60.4367 43.0209 60.8321 43.1691C61.6228 43.5151 62.4136 43.5645 63.1054 42.922C63.4514 42.6255 63.7479 42.7243 64.0444 43.0209C64.4398 43.4162 64.8352 43.8116 65.2305 44.207C65.5765 44.5529 65.6259 44.8494 65.28 45.2448C64.7857 45.8378 64.7363 46.5297 64.9834 47.2216C65.0823 47.4687 65.2305 47.7653 65.3294 48.0124C65.6259 48.8525 66.1695 49.3962 67.1085 49.4456C67.5533 49.495 67.751 49.7421 67.751 50.1869C67.751 50.7305 67.751 51.2741 67.751 51.8178C67.751 52.3614 67.5533 52.6085 67.0097 52.6085C66.3178 52.6579 65.8236 53.0533 65.5271 53.6958C65.3788 54.0417 65.2305 54.4371 65.0823 54.783C64.7363 55.5243 64.7858 56.2656 65.3294 56.8587C65.6259 57.2046 65.5765 57.5012 65.28 57.8471C64.8846 58.2425 64.4892 58.6379 64.0939 59.0332C63.7479 59.3792 63.4514 59.3792 63.056 59.0826C62.463 58.5884 61.7711 58.4896 61.0792 58.8355C60.8321 58.9344 60.5356 59.0826 60.2884 59.1815C59.4483 59.478 58.9047 60.0216 58.8552 60.9606C58.8058 61.4054 58.5587 61.5537 58.1634 61.5537C57.6197 61.5537 57.1255 61.5043 56.5819 61.5537C55.9888 61.6031 55.6923 61.4054 55.6429 60.7629C55.5935 60.1205 55.2475 59.6757 54.7039 59.3792C54.3085 59.1815 53.9626 59.0332 53.5672 58.885C52.7765 58.539 52.0846 58.5884 51.3927 59.1321C51.0467 59.4286 50.7502 59.3792 50.4043 59.0332C50.0583 58.6873 49.7124 58.2919 49.317 57.9954C48.8228 57.6 48.8228 57.2541 49.2182 56.7104C50.0583 55.6232 49.1193 53.0533 47.8344 52.6579C47.7356 52.6579 47.6861 52.6085 47.5873 52.6085C46.9448 52.5097 46.5 52.7568 46.4012 53.251C46.2529 53.7946 46.4506 54.19 47.0437 54.4371C47.5379 54.6348 47.785 55.5243 47.4884 55.9691C46.846 56.9081 46.8954 58.0448 47.6367 58.885C48.1803 59.5274 48.8228 60.1205 49.4653 60.7135C50.256 61.4054 51.3433 61.4548 52.2329 60.8618C52.8753 60.4664 53.7155 60.8124 53.8637 61.5043C54.1108 62.5915 54.951 63.3328 56.0383 63.3823C56.829 63.4317 57.6197 63.4317 58.4105 63.3823C59.5471 63.3328 60.3873 62.5421 60.6344 61.4548C60.7827 60.8124 61.6228 60.417 62.2159 60.8124C63.1549 61.4054 64.2421 61.4054 65.0329 60.7135C65.6753 60.1205 66.3178 59.5274 66.9108 58.885C67.6027 58.0942 67.6522 56.9575 67.0591 56.1174C66.6637 55.4749 66.9603 54.6348 67.7016 54.4865C68.8383 54.2394 69.5796 53.3498 69.629 52.1637C69.629 51.8178 69.629 51.4718 69.629 51.0765C69.629 50.7799 69.629 50.4834 69.629 50.1869C69.629 48.7537 68.9371 47.9135 67.5533 47.617C67.0591 47.5182 66.6637 46.5792 66.9603 46.1344C67.6522 45.0471 67.6027 43.9599 66.7132 43.0209C66.1695 42.4772 65.6259 41.8842 65.0823 41.39C64.2915 40.6981 63.2043 40.6487 62.3641 41.1923C61.6722 41.5877 60.9803 41.39 60.6344 40.6981C60.4367 40.2533 60.0908 40.105 59.5966 40.2039C59.1024 40.3027 58.9047 40.5992 58.8552 41.0934C58.7564 41.7359 59.0529 42.329 59.6954 42.6749Z" fill="white"/>
<path id="Vector_5" d="M57.6199 56.3151C55.2476 56.4634 53.5179 55.4255 52.4307 53.3499C52.0847 52.7074 51.5411 52.5097 51.0469 52.8062C50.5527 53.1028 50.4538 53.597 50.7998 54.2394C52.1341 56.8093 54.3087 58.0943 56.6809 58.1931C62.4631 58.2919 66.0214 52.5591 63.5998 47.8641C62.8585 46.3815 61.6724 45.2448 60.1897 44.5529C59.5473 44.2564 59.0531 44.4047 58.8059 44.8989C58.5588 45.3931 58.7565 45.8873 59.3002 46.1838C59.4484 46.2827 59.6461 46.3321 59.7944 46.4309C61.7712 47.5182 62.8585 49.8904 62.3643 52.1143C61.87 54.4371 59.8932 56.1668 57.6199 56.3151Z" fill="white"/>
<path id="Vector_6" d="M47.8345 46.2826C50.355 46.2826 52.4801 44.1081 52.4307 41.6371C52.3813 39.1166 50.355 37.0903 47.8345 37.0409C45.3635 37.0409 43.189 39.166 43.189 41.6371C43.189 44.2069 45.3141 46.2826 47.8345 46.2826ZM47.7851 38.9189C49.2677 38.9189 50.5527 40.1544 50.5527 41.6371C50.5527 43.1197 49.3172 44.3552 47.8345 44.3552C46.3519 44.3552 45.1164 43.1691 45.067 41.6865C45.067 40.2533 46.3025 38.9683 47.7851 38.9189Z" fill="white"/>
</g>
</g>
</svg>
