<svg width="128" height="128" viewBox="0 0 128 128" fill="none" xmlns="http://www.w3.org/2000/svg">
<g id="Frame 43">
<g id="Group">
<path id="Vector" d="M92.8126 76.7209C92.5489 74.6641 91.3359 73.1875 89.3319 72.5547C88.7518 72.3965 88.6464 72.1328 88.6464 71.6054C88.6464 66.5427 88.6464 61.4272 88.6464 56.3644C88.6464 55.7843 88.7518 55.5734 89.3319 55.3624C91.3887 54.6769 92.5489 53.2002 92.7598 51.038C92.9708 48.8231 92.0743 47.1355 90.123 46.028C88.3299 45.026 86.115 45.237 84.4801 46.5026C84.2165 46.7136 84.0055 46.9245 83.7418 47.1355C83.6891 47.0828 83.6363 47.0828 83.5836 47.0828C78.89 44.3932 74.2492 41.7036 69.5556 39.014C69.2392 38.8031 69.2392 38.6448 69.2919 38.3284C69.872 35.8498 68.6591 33.4239 66.3387 32.4219C65.9168 32.2637 65.4949 32.1055 65.073 32C64.5983 32 64.071 32 63.5963 32C63.4909 32.0527 63.3854 32.1055 63.3327 32.1055C60.4321 32.7911 58.7445 35.4279 59.3774 38.2757C59.4829 38.7503 59.3774 38.9085 59.0082 39.1195C54.5256 41.7036 50.0429 44.2877 45.613 46.8718C45.1911 47.1355 44.9802 47.1882 44.5583 46.7663C43.0289 45.2897 40.7613 44.9733 38.8627 45.9225C36.9642 46.8718 35.8567 48.7703 36.015 50.9853C36.1204 52.9893 37.5443 54.7823 39.5483 55.4152C40.0229 55.5734 40.1811 55.7843 40.1811 56.259C40.1811 61.4272 40.1811 66.5427 40.1811 71.7109C40.1811 72.1855 40.0757 72.4492 39.5483 72.5547C37.5443 73.1348 36.1204 74.9806 36.015 76.9318C35.8567 79.1468 36.9642 81.0453 38.8627 81.9946C40.7613 82.9438 42.9762 82.5747 44.5583 81.2035C44.7165 81.0453 44.8747 80.9398 45.0329 80.7816C45.2439 80.8871 45.4021 80.9926 45.5603 81.0453C49.9902 83.5767 54.4201 86.1608 58.85 88.6922C59.3774 89.0086 59.6938 89.2723 59.4301 89.9051C59.3246 90.1161 59.3246 90.3798 59.3246 90.5907C59.2719 92.7529 60.2212 94.3878 62.1197 95.3898C63.9655 96.339 65.864 96.1808 67.5516 94.9151C69.2919 93.5967 69.9248 91.8036 69.4501 89.6414C69.3447 89.2195 69.4501 89.0086 69.8193 88.7976C72.6143 87.2155 75.3567 85.5807 78.1517 83.9986C80.0502 82.8911 81.9488 81.8364 83.8473 80.7289C84.0582 80.9398 84.2165 81.0981 84.4274 81.2563C84.6384 81.4145 84.8493 81.5727 85.0603 81.7309C85.5349 81.9946 86.0623 81.8891 86.3259 81.4672C86.5896 81.0453 86.5369 80.5179 86.115 80.2015C85.9568 80.0433 85.7986 79.9379 85.6404 79.8324C84.4802 78.8304 84.2165 77.2483 84.902 75.9298C85.5876 74.6114 87.0643 73.9258 88.5409 74.2423C89.9648 74.5587 91.0195 75.8771 91.0195 77.3537C91.0195 78.5667 90.4922 79.4632 89.5429 80.1488C88.8573 80.6234 88.8573 81.5199 89.5429 81.7836C89.8593 81.8891 90.3867 81.8364 90.7031 81.6254C92.3379 80.4125 93.0763 78.7249 92.8126 76.7209ZM64.3874 33.7403C66.1805 33.7403 67.6571 35.1642 67.6571 36.9573C67.6571 38.7503 66.2332 40.227 64.4401 40.227C62.6471 40.227 61.1704 38.7503 61.1704 36.9573C61.1704 35.2169 62.6471 33.7931 64.3874 33.7403ZM37.9135 50.2997C37.9662 48.5594 39.4428 47.1882 41.1832 47.241C42.9762 47.2937 44.4528 48.7703 44.4001 50.5634C44.3474 52.3564 42.8707 53.7803 41.0777 53.7276C39.2319 53.6749 37.808 52.1455 37.9135 50.2997ZM41.1304 80.6234C39.3373 80.6234 37.8607 79.1995 37.8607 77.4065C37.8607 75.6134 39.2846 74.1368 41.1304 74.1368C42.9235 74.1368 44.4001 75.6134 44.4001 77.4065C44.3474 79.1468 42.9235 80.5707 41.1304 80.6234ZM64.3874 94.0713C62.5943 94.0713 61.1704 92.5947 61.1704 90.8016C61.1704 89.0086 62.6998 87.5847 64.4929 87.5847C66.2332 87.5847 67.7098 89.0613 67.7098 90.8544C67.6571 92.5947 66.1805 94.0713 64.3874 94.0713ZM86.8006 71.7636C86.8006 72.1328 86.6951 72.3437 86.2732 72.4492C83.5836 73.2403 82.0543 75.8771 82.7398 78.6194C82.8453 78.9358 82.7926 79.1468 82.4762 79.305C77.8353 81.9946 73.1417 84.6842 68.5009 87.3737C68.4481 87.4265 68.3954 87.4265 68.3427 87.4265C65.2312 85.0533 63.3854 85.0533 60.4849 87.4265C58.6918 86.3717 56.846 85.317 55.053 84.2623C52.2052 82.6274 49.3046 80.9398 46.4569 79.305C46.1404 79.0941 45.9822 78.9358 46.0877 78.514C46.7205 75.8244 45.2439 73.1875 42.5543 72.3965C42.1324 72.291 42.0269 72.08 42.0269 71.6581C42.0269 66.4372 42.0269 61.2162 42.0269 56.048C42.0269 55.6261 42.1324 55.4679 42.5543 55.3097C45.1912 54.5187 46.7205 51.8818 46.0877 49.1922C46.0349 48.8758 45.9822 48.6649 46.3514 48.4539C51.045 45.7643 55.7913 43.022 60.5376 40.2797C61.5923 41.3872 62.858 42.0728 64.4401 42.0728C65.9695 42.0728 67.2879 41.4399 68.3427 40.3324C68.5009 40.3852 68.6591 40.4906 68.7646 40.5434C73.2999 43.1802 77.8353 45.7643 82.3707 48.3484C82.7926 48.5594 82.898 48.7703 82.7926 49.245C82.1597 51.8818 83.6891 54.5187 86.3259 55.257C86.7478 55.3625 86.9061 55.5207 86.9061 55.9426C86.8006 61.3217 86.8006 66.5427 86.8006 71.7636ZM87.6971 53.7276C85.9041 53.7276 84.4274 52.251 84.4801 50.4579C84.4801 48.6649 85.9568 47.241 87.7498 47.241C89.5429 47.241 91.0195 48.6649 91.0195 50.5107C90.9668 52.251 89.5429 53.7276 87.6971 53.7276Z" fill="white"/>
<path id="Vector_2" d="M80.1028 67.5974C80.1028 67.3864 80.1028 67.07 79.9973 66.9646C79.7336 66.7536 79.3645 66.4899 79.0481 66.4899C78.5207 66.4899 78.257 66.9645 78.257 67.4392C78.257 68.6521 78.2043 69.8651 78.257 71.078C78.257 71.7109 78.0461 72.08 77.5187 72.3437C73.6689 74.5587 69.8718 76.7736 66.0221 78.9358C65.8638 79.0413 65.6529 79.094 65.3892 79.2523C65.3892 78.8831 65.3892 78.6721 65.3892 78.4085C65.3892 74.0313 65.3892 69.6541 65.3892 65.277C65.3892 64.6969 65.4947 64.275 66.0748 64.0113C66.9186 63.5894 67.7624 63.062 68.5534 62.5874C68.6589 62.5347 68.8171 62.4819 69.0281 62.3764C69.0281 63.8531 69.0281 65.277 69.0281 66.7009C69.0281 68.1775 70.0828 68.7576 71.3485 68.0193C72.1923 67.5447 72.9833 67.07 73.8271 66.5954C74.6182 66.1735 74.9873 65.5407 74.9873 64.5914C74.9346 62.8511 74.9873 61.1108 74.9873 59.3177C74.9873 59.1068 75.0401 58.8431 75.1983 58.7376C76.1475 58.1575 77.1496 57.5774 78.2043 56.9973C78.2043 57.261 78.2043 57.4192 78.2043 57.6301C78.2043 59.3177 78.2043 61.058 78.2043 62.7456C78.2043 63.4312 78.6262 63.8531 79.1536 63.8531C79.6809 63.8531 80.0501 63.4312 80.1028 62.7456C80.1028 60.6361 80.1028 58.5266 80.1028 56.4172C80.1028 55.3624 79.6282 54.5186 78.7317 53.9913C74.46 51.5126 70.1355 49.034 65.8638 46.5554C64.9146 46.028 64.0181 46.028 63.0688 46.5554C58.7971 49.034 54.4727 51.5126 50.201 53.9913C49.3045 54.5186 48.8298 55.3097 48.8298 56.4172C48.8298 61.3744 48.8298 66.3317 48.8298 71.289C48.8298 72.3437 49.2517 73.1348 50.201 73.6621C54.5254 76.1935 58.8499 78.6721 63.1743 81.1508C64.0181 81.6254 64.9146 81.6254 65.8111 81.1508C66.3385 80.8871 66.8659 80.5707 67.3932 80.2542C71.1376 78.092 74.8819 75.9298 78.6262 73.7676C79.6809 73.1875 80.2083 72.3437 80.1555 71.1308C80.1028 70.0233 80.1028 68.8103 80.1028 67.5974ZM73.0888 64.6441C73.0888 64.7496 72.9833 64.9078 72.8778 65.0133C72.245 65.3824 71.6122 65.7516 70.8739 66.1735C70.8739 64.5387 70.8739 63.0093 70.8739 61.5326C70.8739 61.4272 70.9793 61.269 71.0848 61.2162C71.7177 60.8471 72.3505 60.4779 73.0361 60.056C73.0888 61.6381 73.0888 63.1148 73.0888 64.6441ZM64.1235 48.1902C64.3345 48.0847 64.7036 48.1375 64.8618 48.243C68.9753 50.5634 73.0361 52.9365 77.255 55.3624C76.1475 55.9953 75.1983 56.5754 74.1963 57.1028C74.0908 57.1555 73.8799 57.1027 73.7744 57.05C69.6082 54.6769 65.4947 52.251 61.3812 49.8251C61.3812 49.8251 61.3812 49.7723 61.2757 49.7196C62.225 49.245 63.1743 48.6648 64.1235 48.1902ZM59.1135 51.0907C59.219 51.038 59.4827 51.038 59.6409 51.0907C63.8071 53.4639 67.9206 55.8898 72.0868 58.3157C72.0868 58.3157 72.1395 58.3684 72.1923 58.4212C71.5594 58.7903 70.9266 59.2122 70.241 59.5286C70.1355 59.5814 69.8718 59.5287 69.7136 59.4759C65.5474 57.1028 61.4339 54.6768 57.1623 52.251C57.8478 51.7763 58.4807 51.4072 59.1135 51.0907ZM63.4907 78.9358C63.4907 78.9886 63.438 79.094 63.438 79.2523C63.227 79.1468 63.0688 79.0413 62.8578 78.9358C59.008 76.7209 55.211 74.5059 51.3612 72.3437C50.8338 72.0273 50.6229 71.6581 50.6229 71.0253C50.6229 66.5954 50.6229 62.1655 50.6229 57.6829C50.6229 57.5246 50.6229 57.3137 50.6756 57.05C50.9393 57.2082 51.1503 57.3137 51.3612 57.4192C55.2637 59.6869 59.1663 61.9545 63.1215 64.2222C63.2797 64.3277 63.4907 64.5914 63.4907 64.7496C63.4907 69.4959 63.4907 74.1895 63.4907 78.9358ZM63.9653 62.5346C59.9046 60.2142 55.8438 57.8411 51.7831 55.5206C51.7304 55.5206 51.7303 55.4679 51.6776 55.3624C52.8378 54.6769 53.9453 54.044 55.1055 53.4112C55.211 53.3584 55.3692 53.4112 55.4747 53.4639C59.6409 55.8371 63.7544 58.263 67.9206 60.6889C67.9733 60.6889 67.9733 60.7416 68.026 60.7943C66.9713 61.4272 65.9166 62.06 64.8091 62.5874C64.5982 62.6929 64.1763 62.6401 63.9653 62.5346Z" fill="white"/>
</g>
</g>
</svg>
