<svg width="221" height="52" viewBox="0 0 221 52" fill="none" xmlns="http://www.w3.org/2000/svg">
<g id="1 1">
<g id="Group">
<path id="Vector" d="M21.5469 13.7583C19.7789 13 17.7899 12.5667 15.3589 12.5667H4.08789V39.325H9.17089V31.6333H15.3589C17.7899 31.6333 19.8894 31.2 21.5469 30.4417C23.3149 29.6833 24.6409 28.6 25.5249 27.1917C26.4089 25.7833 26.9614 24.05 26.9614 22.1C26.9614 20.15 26.5194 18.4167 25.5249 17.0083C24.6409 15.6 23.3149 14.5167 21.5469 13.7583ZM20.2209 26.1083C19.1159 27.0833 17.3479 27.5167 15.1379 27.5167H9.17089V16.9H15.1379C17.3479 16.9 19.1159 17.3333 20.2209 18.3083C21.3259 19.175 21.8784 20.5833 21.8784 22.2083C21.8784 23.8333 21.3259 25.1333 20.2209 26.1083Z" fill="#383E56"/>
<path id="Vector_2" d="M49.9453 30.4417C51.7133 29.6833 53.0393 28.6 53.9233 27.1917C54.8073 25.7833 55.3598 24.05 55.3598 22.1C55.3598 20.15 54.9178 18.4167 53.9233 17.0083C53.0393 15.6 51.6028 14.5167 49.9453 13.7583C48.1773 13 46.1883 12.5667 43.7573 12.5667H32.4863V39.325H37.5693V31.525H43.7573C44.0888 31.525 44.4203 31.4167 44.7518 31.4167L50.3873 39.325H55.8018L49.5033 30.55C49.6138 30.55 49.8348 30.55 49.9453 30.4417ZM48.5088 18.2C49.6138 19.0666 50.1663 20.475 50.1663 22.1C50.1663 23.8333 49.6138 25.1333 48.5088 26C47.4038 26.975 45.6358 27.4083 43.4258 27.4083H37.5693V16.6833H43.5363C45.7463 16.7917 47.4038 17.225 48.5088 18.2Z" fill="#383E56"/>
<path id="Vector_3" d="M113.924 30.7666L98.8963 12.5667H94.6973V39.4333H99.6698V21.2333L114.808 39.4333H119.007V12.5667H113.924V30.7666Z" fill="#383E56"/>
<path id="Vector_4" d="M131.825 27.8417H144.975V23.725H131.825V16.7916H146.632V12.5667H126.742V39.4333H147.185V35.2083H131.825V27.8417Z" fill="#383E56"/>
<path id="Vector_5" d="M180.998 33.0416L174.037 12.5667H169.396L162.324 32.9333L155.583 12.5667H150.279L159.34 39.4333H164.755L171.606 19.6083L178.346 39.4333H183.761L192.822 12.5667H187.96L180.998 33.0416Z" fill="#383E56"/>
<path id="Vector_6" d="M216.028 28.3834C215.475 27.5167 214.702 26.7584 213.707 26.2167C212.713 25.675 211.718 25.2417 210.503 24.9167C209.398 24.5917 208.182 24.2667 206.967 24.05C205.751 23.8334 204.757 23.5084 203.762 23.1834C202.768 22.8584 201.994 22.5334 201.442 21.9917C200.889 21.45 200.558 20.8 200.558 20.0417C200.558 19.3917 200.779 18.7417 201.11 18.2C201.552 17.6584 202.105 17.225 202.989 16.9C203.873 16.575 204.978 16.3584 206.414 16.3584C207.63 16.3584 208.845 16.575 210.171 16.9C211.497 17.225 212.713 17.7667 213.928 18.525L215.475 14.625C214.26 13.8667 212.823 13.325 211.276 12.8917C209.619 12.4584 208.072 12.2417 206.414 12.2417C203.873 12.2417 201.884 12.5667 200.226 13.325C198.569 14.0834 197.353 15.0584 196.58 16.25C195.806 17.4417 195.364 18.85 195.364 20.2584C195.364 21.6667 195.696 22.8584 196.248 23.8334C196.801 24.7 197.574 25.4584 198.569 26C199.563 26.5417 200.558 26.975 201.773 27.3C202.878 27.625 204.094 27.95 205.199 28.1667C206.304 28.3834 207.409 28.7084 208.403 29.0334C209.398 29.3584 210.171 29.6834 210.724 30.225C211.276 30.7667 211.608 31.4167 211.608 32.175C211.608 32.825 211.387 33.475 210.945 33.9084C210.503 34.45 209.84 34.8834 208.956 35.1C208.072 35.425 206.967 35.5334 205.53 35.5334C203.873 35.5334 202.215 35.2084 200.558 34.6667C198.9 34.125 197.574 33.3667 196.469 32.6084L194.701 36.5084C195.806 37.4834 197.353 38.2417 199.342 38.7834C201.331 39.4334 203.32 39.65 205.42 39.65C207.961 39.65 209.95 39.325 211.608 38.5667C213.265 37.8084 214.481 36.8334 215.254 35.6417C216.028 34.45 216.47 33.15 216.47 31.6334C216.912 30.4417 216.58 29.25 216.028 28.3834Z" fill="#383E56"/>
<path id="Vector_7" d="M83.0954 29.7917C82.6534 30.875 81.9904 31.9583 81.1064 32.825C80.2224 33.6917 79.2279 34.3417 78.0124 34.775C76.7969 35.2083 75.5814 35.425 74.1449 35.425C72.8189 35.425 71.4929 35.2083 70.2774 34.775C69.0619 34.3417 68.0674 33.6917 67.1834 32.825C66.2994 31.9583 65.6364 30.9833 65.1944 29.7917C64.7524 28.6 64.4209 27.4083 64.4209 26H59.3379C59.3379 27.95 59.6694 29.7917 60.4429 31.525C61.2164 33.15 62.2109 34.6667 63.5369 35.8583C64.8629 37.05 66.4099 38.025 68.1779 38.7833C69.9459 39.4333 71.9349 39.8667 74.0344 39.8667C76.1339 39.8667 78.1229 39.5417 79.8909 38.7833C81.6589 38.1333 83.2059 37.1583 84.5319 35.8583C85.8579 34.6667 86.8524 33.15 87.6259 31.525C88.3994 29.7917 88.7309 27.95 88.7309 26H83.6479C83.7584 27.4083 83.5374 28.6 83.0954 29.7917Z" fill="#53D9F6"/>
</g>
</g>
</svg>
