<svg width="80" height="81" viewBox="0 0 80 81" fill="none" xmlns="http://www.w3.org/2000/svg">
<path d="M52.0057 52.6385C51.9072 51.9228 50.7657 51.8837 50.6207 52.5911C50.4654 54.9894 50.6095 57.4193 50.5612 59.8269C50.5612 60.7379 50.3529 60.9434 49.4355 60.9434C39.8218 60.9434 30.2081 60.9434 20.5944 60.9434C19.6881 60.9434 19.4771 60.7296 19.4771 59.8121C19.4771 46.7432 19.4771 33.6752 19.4771 20.6063C19.4771 19.7018 19.6937 19.4861 20.6075 19.4861C30.2211 19.4861 39.8348 19.4861 49.4485 19.4861C50.3548 19.4861 50.5612 19.6953 50.5612 20.6165C50.6188 25.1919 50.4496 29.7924 50.6262 34.3575C50.7824 35.0389 51.8812 35.0036 52.0011 34.3157C52.121 29.7291 52.0076 25.1212 52.0411 20.5282C52.1312 19.1134 51.1719 17.9774 49.6121 18.01C39.8971 18.0044 30.1821 18.0156 20.468 18.0063C19.2456 17.9207 18.3746 18.7202 18 19.8264C18 33.4177 18 47.009 18 60.5994C18.2742 61.5392 18.8822 62.1472 19.822 62.4214C29.972 62.4214 40.122 62.4214 50.2721 62.4214C51.6674 61.952 52.1015 60.935 52.0606 59.5313C51.9639 57.2371 52.1164 54.929 52.0057 52.6385Z" fill="#8FC0F3"/>
<path d="M61.7746 30.8957C63.9163 27.1486 59.2963 25.3257 57.9038 28.6331C57.2968 28.4305 56.9733 28.7344 56.7028 29.215C56.159 30.1827 55.5864 31.1327 55.0212 32.0967C54.4607 31.8717 53.8667 31.2452 53.401 32.0121C52.899 32.8385 53.7802 33.0477 54.2497 33.4158C52.1442 37.2373 49.7645 40.9165 47.7891 44.8031C47.1049 46.5479 46.5611 48.3466 45.6213 49.9882C45.2551 50.6278 45.3257 51.3222 45.6492 51.9887C45.9662 52.434 44.4501 53.7447 44.147 54.2606C43.5791 52.2936 42.1113 51.2013 40.7578 53.2892C40.6621 52.2629 40.6026 51.3054 40.478 50.2922C40.319 48.8114 38.115 48.6106 37.6632 49.9873C37.0302 51.8139 36.4241 53.6498 35.8218 55.4867C35.7018 55.8529 35.8134 56.1736 36.1694 56.3754C36.6323 56.6366 37.0581 56.4358 37.2561 55.8436C37.8334 54.1602 38.3595 52.4581 38.9563 50.7812C39.2565 51.5797 39.1218 52.5092 39.2603 53.357C39.4109 55.218 41.5266 55.363 42.3083 53.766C42.7332 55.3603 44.0141 56.7072 45.401 55.1167C45.9337 54.6119 46.5788 53.2455 47.2555 53.1293C49.3564 53.3951 49.9866 51.0498 51.143 49.7735C54.5555 45.7429 56.687 40.8552 59.446 36.382C60.6098 36.9593 60.6842 37.1964 60.0688 38.2626C59.2099 39.7508 58.3482 41.2381 57.492 42.7283C57.1899 43.2535 57.2513 43.6699 57.6473 43.906C58.0377 44.1403 58.4588 43.9841 58.7525 43.4775C59.6867 41.8656 60.6228 40.2556 61.5431 38.6353C62.4374 37.1517 61.6073 35.7787 60.1683 35.0983C60.7427 34.1009 61.2782 33.1434 61.8424 32.2027C62.1269 31.7295 62.2236 31.2991 61.7746 30.8957ZM47.6943 51.6438C46.6076 51.4523 46.8921 50.6259 47.3801 49.9399C47.8096 50.1835 48.2158 50.4131 48.6694 50.6705C48.3905 51.1009 48.2846 51.6559 47.6943 51.6438ZM49.4558 49.4073C48.9641 49.12 48.4928 48.8458 47.9945 48.5558C48.3431 47.6215 48.6834 46.7087 49.0431 45.7457C49.8481 46.2123 50.5946 46.6436 51.3708 47.0945C50.7163 47.8855 50.0917 48.6394 49.4558 49.4073ZM52.2204 45.8777C51.3578 45.3794 50.5351 44.9044 49.6585 44.3987C51.6301 40.9816 53.5943 37.5775 55.578 34.1408C56.4342 34.6354 57.2643 35.115 58.1399 35.6207C56.1637 39.0434 54.206 42.4364 52.2204 45.8777ZM58.8808 34.3379C58.0321 33.8489 57.2001 33.3693 56.3189 32.8617C56.8125 32.0065 57.2977 31.1681 57.7988 30.3008C58.6614 30.799 59.4925 31.2796 60.3598 31.7797C59.8531 32.6554 59.3781 33.4762 58.8808 34.3379ZM60.462 30.1223C60.0372 29.8806 59.631 29.6482 59.1755 29.3888C59.4618 28.9659 59.5538 28.3961 60.1534 28.4137C61.2382 28.5941 60.9686 29.4428 60.462 30.1223Z" fill="#8FC0F3"/>
<path d="M44.7784 23.8997C45.1391 23.8393 45.3398 23.5957 45.3659 23.2462C45.4486 22.5973 44.7654 22.4096 44.2402 22.4477C39.6425 22.444 35.0457 22.4449 30.4481 22.4449C28.8436 22.4449 27.2382 22.4412 25.6338 22.4468C24.9227 22.4486 24.6717 22.707 24.6679 23.4191C24.6642 24.1999 24.667 24.9808 24.667 25.7607C24.6679 26.7042 24.8548 26.8892 25.8169 26.8901C32.1324 26.8632 38.4545 26.944 44.7672 26.8594C45.1549 26.8009 45.3547 26.5378 45.3659 26.1734C45.377 25.809 45.1911 25.5311 44.8081 25.4549C38.6014 25.321 32.3788 25.4502 26.1655 25.4065C26.1655 24.8906 26.1655 24.4342 26.1655 23.9248C32.3713 23.9015 38.5781 23.9722 44.7784 23.8997Z" fill="#8FC0F3"/>
<path d="M20.9921 53.7531C21.7106 61.5243 33.4521 61.0409 33.5339 53.2753C33.5822 52.2155 32.1228 52.1588 32.0614 53.2009C32.0447 55.9952 29.4865 58.3294 26.761 57.952C20.5942 57.2148 21.4308 48.1105 27.4554 48.3708C28.4045 48.4136 29.2569 48.7259 30.0443 49.2521C31.0222 49.952 31.8625 48.6079 30.8205 48.0027C29.7533 47.2711 28.5737 46.9039 27.1254 46.8826C23.606 46.903 20.5607 50.2309 20.9921 53.7531Z" fill="#8FC0F3"/>
<path d="M46.5769 33.5506C41.3471 33.5469 36.1182 33.5469 30.8884 33.5506C30.379 33.5162 29.786 33.757 29.8668 34.3612C29.8901 34.9329 30.4618 35.0704 30.9368 35.0258C33.5228 35.0277 36.108 35.0268 38.6941 35.0268C41.4651 35.0035 44.2455 35.0732 47.0128 34.9998C48.054 34.7302 47.5566 33.3702 46.5769 33.5506Z" fill="#8FC0F3"/>
<path d="M38.8612 39.4386C39.9293 39.1235 39.4868 37.7989 38.27 37.9922C33.5273 37.9922 28.7846 37.9857 24.0428 37.9931C23.5055 38.0238 23.2025 38.2897 23.1978 38.7284C23.1476 39.3447 23.8569 39.5334 24.4193 39.4749C26.7042 39.4749 28.9882 39.4749 31.2731 39.4749C33.8015 39.4451 36.3383 39.5362 38.8612 39.4386Z" fill="#8FC0F3"/>
<path d="M42.0608 28.3765C39.7071 28.3756 37.3525 28.3765 34.9988 28.3765C32.674 28.3765 30.3482 28.3756 28.0233 28.3784C27.5213 28.3403 26.8929 28.476 26.9022 29.0867C26.8427 29.7142 27.4971 29.8964 28.0103 29.8583C32.6898 29.8611 37.3683 29.8611 42.0478 29.8601C43.524 29.9745 43.5463 28.2668 42.0608 28.3765Z" fill="#8FC0F3"/>
<path d="M27.5886 43.1699C28.8026 43.1689 30.0166 43.1754 31.2307 43.1661C32.3601 43.1801 32.2978 41.6128 31.1479 41.6937C28.8063 41.69 26.4657 41.69 24.1241 41.6937C23.5338 41.6946 23.1982 41.9707 23.1973 42.4346C23.1963 42.9031 23.5235 43.168 24.1203 43.1689C25.2767 43.1717 26.4331 43.1699 27.5886 43.1699Z" fill="#8FC0F3"/>
<path d="M27.0482 53.8331C26.3306 53.2967 25.3731 51.3958 24.451 52.2361C23.6293 53.1322 25.5842 54.2421 26.1019 54.8984C26.9255 55.6783 27.988 55.1206 28.5969 54.3555C29.2709 53.6825 29.9643 53.0272 30.6011 52.3207C30.9896 51.8931 30.8781 51.1513 30.2451 51.0481C29.3322 51.0936 27.9127 53.1229 27.0482 53.8331Z" fill="#8FC0F3"/>
<path d="M46.6698 37.993C44.9324 38.0404 43.1634 37.8871 41.4391 38.0572C40.793 38.2449 40.8181 39.2805 41.48 39.4255C42.3891 39.5436 43.328 39.446 44.2455 39.4757C45.1527 39.4655 46.0656 39.5064 46.9701 39.4413C47.9944 39.2991 47.6301 37.8369 46.6698 37.993Z" fill="#8FC0F3"/>
<path d="M34.4245 43.1681C35.2333 43.1746 36.042 43.1699 36.8498 43.1699C37.6725 43.1699 38.4961 43.1746 39.3187 43.1681C40.477 43.221 40.4789 41.6686 39.3466 41.6956C37.7003 41.6872 36.055 41.6872 34.4087 41.6956C33.27 41.6612 33.27 43.2136 34.4245 43.1681Z" fill="#8FC0F3"/>
</svg>
