<svg width="80" height="81" viewBox="0 0 80 81" fill="none" xmlns="http://www.w3.org/2000/svg">
<path d="M58.0595 47.4712C57.7102 47.5783 57.3666 47.7011 57.0206 47.816C52.9868 49.1591 48.953 50.5 44.9204 51.8453C44.4527 52.0008 43.9851 52.0819 43.6201 52.0121C43.6201 51.2865 43.7339 50.598 43.5885 49.9693C43.4432 49.3405 43.0398 48.7727 42.7592 48.198C46.793 45.8758 48.473 42.3625 47.7046 37.6357C47.8601 37.6357 48.0268 37.6357 48.1925 37.6357C51.664 37.6357 55.1356 37.6403 58.6071 37.6335C60.2533 37.6301 61.5626 36.4391 61.575 34.8628C61.6032 31.4341 61.5964 28.0042 61.5773 24.5743C61.5705 23.3259 60.6939 22.2329 59.4882 21.9174C59.1142 21.8194 58.7119 21.8104 58.3209 21.798C57.7373 21.7789 57.1536 21.7935 56.5384 21.7935C56.5384 21.4927 56.5451 21.2549 56.5373 21.0183C56.5001 19.8679 55.6167 18.9473 54.4719 18.9281C52.9688 18.9034 51.4635 18.9011 49.9604 18.9304C48.8415 18.9529 47.9558 19.8836 47.9209 21.0025C47.913 21.2515 47.9198 21.5017 47.9198 21.7935C47.2449 21.7935 46.6161 21.7924 45.9885 21.7935C44.0809 21.7969 42.873 22.998 42.8708 24.8943C42.8685 26.9327 42.8708 28.9698 42.8696 31.0081C42.8696 31.1524 42.8573 31.2966 42.8482 31.4814C40.8189 30.4572 38.7412 30.2115 36.5384 30.6498C36.5846 30.4425 36.6274 30.2859 36.6544 30.1248C36.7885 29.3225 36.997 28.5236 37.033 27.7158C37.1096 25.9625 37.104 24.2048 37.1198 22.4481C37.1299 21.3496 36.6139 20.8312 35.5243 20.7603C33.7913 20.6465 32.1339 20.3096 30.722 19.1839C30.2026 18.7704 29.5637 18.8211 29.0082 19.256C28.3446 19.7755 27.6156 20.1721 26.7987 20.3467C25.9232 20.5338 25.0319 20.6622 24.1418 20.7614C23.3429 20.8493 22.7232 21.3665 22.7299 22.1586C22.7491 24.251 22.6713 26.358 22.8989 28.4301C23.3632 32.6589 25.3756 35.887 29.4601 37.6245C29.1773 38.8155 29.1153 40.029 29.3091 41.2481C29.5018 42.4628 29.9277 43.5963 30.5395 44.6904C29.2156 44.1079 27.833 44.0887 26.4426 44.1034C26.322 44.1045 26.153 43.9659 26.0843 43.8476C25.6606 43.1242 25.0556 42.6949 24.2094 42.6825C22.9733 42.6645 21.7361 42.6769 20.4989 42.6803C19.9694 42.6814 19.4747 42.8448 19.1311 43.2358C18.8347 43.5727 18.6432 44.0019 18.4043 44.3896C18.4043 49.7034 18.4043 55.0172 18.4043 60.3298C18.6646 61.2504 19.2573 61.8386 20.1756 62.1011C21.637 62.1011 23.0995 62.1011 24.5609 62.1011C24.8595 61.9535 25.2009 61.8543 25.4454 61.6436C25.7091 61.416 25.9727 61.3743 26.2894 61.3743C32.0235 61.3788 37.7587 61.3698 43.4927 61.3834C44.7806 61.3867 45.9513 61.0735 47.0499 60.3974C50.2319 58.4425 53.4274 56.509 56.6184 54.5665C57.8533 53.8149 59.0984 53.078 60.3198 52.3039C61.4973 51.558 61.9051 50.1383 61.3361 48.909C60.7592 47.6617 59.3981 47.0611 58.0595 47.4712ZM24.8865 59.7834C24.8865 60.3941 24.6184 60.66 24.0111 60.6622C22.9158 60.6679 21.8206 60.6667 20.7254 60.6622C20.0978 60.66 19.8432 60.3963 19.842 59.7518C19.8398 57.2943 19.8409 54.8369 19.8409 52.3794C19.8409 49.9501 19.8398 47.5208 19.8409 45.0904C19.8409 44.3343 20.0606 44.1158 20.8178 44.1135C21.8849 44.1112 22.9519 44.109 24.0201 44.1146C24.6308 44.118 24.8854 44.3749 24.8854 44.9935C24.8899 49.9242 24.8899 54.8538 24.8865 59.7834ZM49.3654 21.0036C49.3992 20.6318 49.6764 20.3636 50.073 20.3603C51.5164 20.349 52.9609 20.3467 54.4043 20.3614C54.8156 20.3659 55.0758 20.6521 55.0995 21.0589C55.113 21.2808 55.1018 21.505 55.1018 21.7687C53.1671 21.7687 51.282 21.7687 49.362 21.7687C49.3609 21.5005 49.3429 21.2504 49.3654 21.0036ZM44.3085 24.8831C44.3096 23.7991 44.8854 23.2301 45.9818 23.229C48.0618 23.2267 50.1418 23.229 52.2206 23.229C54.3006 23.229 56.3806 23.2279 58.4595 23.229C59.584 23.2301 60.1485 23.7901 60.1497 24.9079C60.1508 28.1112 60.1508 31.3158 60.1497 34.5191C60.1497 35.62 59.5863 36.1958 58.5001 36.1958C54.8606 36.198 51.2212 36.1935 47.5818 36.2014C47.3147 36.2014 47.1626 36.1462 47.0398 35.8758C46.4697 34.616 45.6347 33.5524 44.5902 32.6442C44.4381 32.5124 44.3198 32.251 44.3187 32.0481C44.3018 29.6605 44.3063 27.2718 44.3085 24.8831ZM37.3102 31.9783C37.7249 31.9141 38.1474 31.8927 38.5654 31.8521C42.3446 31.8983 45.6009 34.5541 46.3142 38.1946C47.0556 41.9783 45.068 45.6932 41.5254 47.1129C41.3023 47.202 41.0195 47.1738 40.7682 47.1546C40.3232 47.1197 39.8804 47.0093 39.4364 47.0014C38.2567 46.9789 37.0758 46.9845 35.8961 46.998C35.4161 47.0036 34.9925 46.8797 34.5789 46.6386C31.735 44.98 30.1575 41.6245 30.7491 38.4639C31.3891 35.0419 33.9581 32.4988 37.3102 31.9783ZM30.1136 35.7665C30.0471 35.9039 29.9784 36.0391 29.895 36.207C28.9553 35.8701 28.1451 35.3552 27.4139 34.7141C25.6516 33.1681 24.7829 31.1535 24.3874 28.8943C24.0595 27.0262 24.1767 25.1411 24.1519 23.2605C24.1474 22.9259 24.1508 22.5912 24.1508 22.2239C26.2263 22.0684 28.2184 21.7248 29.9006 20.3603C31.5795 21.6943 33.5682 22.0853 35.6911 22.2239C35.6189 25.0318 35.9401 27.8115 35.0511 30.5079C34.8989 30.9698 34.6984 31.2831 34.2308 31.5197C32.3818 32.4594 31.0206 33.9005 30.1136 35.7665ZM59.5063 51.1208C58.4189 51.7924 57.3249 52.4515 56.2342 53.1163C52.9361 55.1253 49.6347 57.1265 46.3446 59.1467C45.4815 59.6763 44.5711 59.9445 43.5547 59.9422C37.975 59.9298 32.3964 59.9366 26.8167 59.9366C26.677 59.9366 26.5373 59.9366 26.348 59.9366C26.348 55.1276 26.348 50.3693 26.348 45.5907C28.1316 45.4194 29.797 45.6628 31.2415 46.8065C32.2173 47.5794 33.3125 48.0988 34.5429 48.3017C35.0116 48.3794 35.4916 48.4177 35.9671 48.4245C37.2178 48.4425 38.4685 48.4166 39.7192 48.4403C40.9001 48.4628 42.0043 49.309 42.2229 50.3355C42.2713 50.5642 42.2826 50.8143 42.2488 51.0453C42.1305 51.8611 41.9243 52.0256 41.1142 52.029C39.7936 52.0346 38.4719 52.0143 37.1513 52.0583C35.6426 52.109 34.3209 52.7107 33.1198 53.5918C32.7874 53.8363 32.7153 54.2453 32.917 54.5619C33.1322 54.9011 33.5322 54.9901 33.913 54.7794C34.0235 54.7186 34.1282 54.6465 34.2308 54.5732C35.3102 53.8115 36.5057 53.4521 37.8296 53.4645C39.6561 53.4814 41.4837 53.451 43.3102 53.4769C44.1947 53.4893 45.033 53.3394 45.8691 53.0566C50.0032 51.6617 54.144 50.2848 58.286 48.9135C58.5564 48.8245 58.8685 48.7749 59.1468 48.8121C59.6618 48.8808 60.0527 49.3158 60.1305 49.8374C60.2116 50.3974 59.9784 50.829 59.5063 51.1208Z" fill="#8FC0F3"/>
<path d="M38.5432 40.509C39.3184 40.5451 39.9021 41.06 39.9866 41.7834C40.0677 42.4752 39.6328 43.1254 38.9522 43.3282C38.0779 43.5885 37.2193 42.9845 37.1246 42.0414C37.0694 41.4938 36.7979 41.2155 36.3472 41.2448C35.9044 41.273 35.6475 41.5975 35.6936 42.1428C35.7928 43.3113 36.4001 44.1327 37.4706 44.5947C37.6936 44.6916 37.8334 44.784 37.8886 45.0431C37.9618 45.3879 38.2424 45.5502 38.5804 45.5411C38.9004 45.5321 39.172 45.3597 39.2238 45.0352C39.2677 44.7535 39.4322 44.6826 39.6475 44.5935C40.728 44.1507 41.4232 43.1175 41.4289 41.9659C41.4367 40.3761 40.2322 39.1513 38.586 39.0747C37.7342 39.0352 37.1291 38.4448 37.1224 37.6471C37.1167 36.8685 37.7072 36.2352 38.4711 36.2026C39.2914 36.1665 39.9066 36.7175 39.9934 37.5626C40.0486 38.1 40.3314 38.375 40.7877 38.3344C41.2136 38.2961 41.4694 37.9716 41.4232 37.4589C41.3173 36.2781 40.71 35.4431 39.6204 34.9755C39.4165 34.8876 39.2711 34.8223 39.2272 34.5597C39.1697 34.2161 38.8936 34.0381 38.5522 34.0403C38.2131 34.0426 37.9415 34.2172 37.8807 34.5654C37.8367 34.8223 37.6914 34.8944 37.4829 34.9778C36.1094 35.531 35.3917 37.0014 35.7883 38.4257C36.1275 39.6369 37.1956 40.4459 38.5432 40.509Z" fill="#8FC0F3"/>
<path d="M52.2262 34.7569C54.9902 34.7603 57.2786 32.4707 57.2741 29.7079C57.2685 26.9428 54.9733 24.6577 52.215 24.669C49.4476 24.6803 47.1682 26.9811 47.1896 29.7394C47.2088 32.4955 49.4769 34.7535 52.2262 34.7569ZM52.2589 26.1112C54.2409 26.1383 55.8499 27.7676 55.833 29.7304C55.8161 31.7034 54.1868 33.3203 52.2228 33.3157C50.2521 33.3101 48.633 31.6887 48.6307 29.7157C48.6285 27.7281 50.2837 26.0831 52.2589 26.1112Z" fill="#8FC0F3"/>
<path d="M33.231 24.1045C32.8986 23.8533 32.467 23.9355 32.1684 24.322C31.8248 24.7659 31.4935 25.2189 31.1566 25.6673C30.2484 26.8775 29.3402 28.0887 28.378 29.371C28.0907 29.0623 27.8619 28.7941 27.6107 28.5518C27.2512 28.2037 26.8321 28.1969 26.5335 28.5124C26.2484 28.8121 26.2631 29.2178 26.5955 29.5614C27.0236 30.0054 27.4608 30.4425 27.9048 30.8718C28.3329 31.2854 28.7555 31.2583 29.1194 30.7761C30.5233 28.918 31.9194 27.0544 33.3132 25.1885C33.6095 24.7885 33.5656 24.358 33.231 24.1045Z" fill="#8FC0F3"/>
<path d="M50.9895 30.4346C51.1518 30.438 51.314 30.4346 51.4864 30.4346C51.563 31.0453 51.3399 31.8385 52.2222 31.8442C53.1304 31.8498 52.8982 31.0318 52.9861 30.4334C53.1822 30.4334 53.3602 30.438 53.5394 30.4323C54.0701 30.4154 54.3946 30.1326 54.3867 29.6999C54.3788 29.2796 54.0678 29.0115 53.5574 28.9923C53.3681 28.9856 53.1777 28.9912 52.9737 28.9912C52.9163 28.3715 53.1135 27.5906 52.2391 27.5816C51.3242 27.5726 51.5664 28.3951 51.4875 28.9912C51.3084 28.9912 51.1574 28.9889 51.0064 28.9912C50.4013 29.0002 50.0723 29.2616 50.0802 29.7247C50.0892 30.172 50.4104 30.4233 50.9895 30.4346Z" fill="#8FC0F3"/>
</svg>
