<svg width="16" height="16" viewBox="0 0 16 16" fill="none" xmlns="http://www.w3.org/2000/svg">
<path d="M10.4997 9.66671C10.3671 9.66671 10.2399 9.71939 10.1461 9.81315C10.0524 9.90692 9.99967 10.0341 9.99967 10.1667C9.99967 10.2993 10.0524 10.4265 10.1461 10.5203C10.2399 10.614 10.3671 10.6667 10.4997 10.6667H12.1663C12.2989 10.6667 12.4261 10.614 12.5199 10.5203C12.6137 10.4265 12.6663 10.2993 12.6663 10.1667C12.6663 10.0341 12.6137 9.90692 12.5199 9.81315C12.4261 9.71939 12.2989 9.66671 12.1663 9.66671H10.4997ZM1.33301 5.50004C1.33301 4.9254 1.56128 4.3743 1.96761 3.96798C2.37394 3.56165 2.92504 3.33337 3.49967 3.33337H12.4997C12.7842 3.33337 13.0659 3.38942 13.3288 3.4983C13.5917 3.60719 13.8305 3.76678 14.0317 3.96798C14.2329 4.16917 14.3925 4.40802 14.5014 4.67089C14.6103 4.93377 14.6663 5.21551 14.6663 5.50004V10.5C14.6663 10.7846 14.6103 11.0663 14.5014 11.3292C14.3925 11.5921 14.2329 11.8309 14.0317 12.0321C13.8305 12.2333 13.5917 12.3929 13.3288 12.5018C13.0659 12.6107 12.7842 12.6667 12.4997 12.6667H3.49967C2.92504 12.6667 2.37394 12.4384 1.96761 12.0321C1.56128 11.6258 1.33301 11.0747 1.33301 10.5V5.50004ZM13.6663 6.33337V5.50004C13.6663 5.19062 13.5434 4.89388 13.3246 4.67508C13.1058 4.45629 12.8091 4.33337 12.4997 4.33337H3.49967C3.19026 4.33337 2.89351 4.45629 2.67472 4.67508C2.45592 4.89388 2.33301 5.19062 2.33301 5.50004V6.33337H13.6663ZM2.33301 7.33337V10.5C2.33301 11.144 2.85567 11.6667 3.49967 11.6667H12.4997C12.8091 11.6667 13.1058 11.5438 13.3246 11.325C13.5434 11.1062 13.6663 10.8095 13.6663 10.5V7.33337H2.33301Z" fill="#8FC0F3"/>
</svg>
