<svg width="80" height="81" viewBox="0 0 80 81" fill="none" xmlns="http://www.w3.org/2000/svg">
<path d="M60.0027 33.5883C60.0027 33.2432 59.8883 32.983 59.6796 32.8561C59.4729 32.7313 59.1928 32.7481 58.8896 32.9054C55.753 34.5293 52.6123 36.1637 49.9141 37.5673C49.4683 37.7991 49.3624 38.0373 49.4777 38.5492C49.5103 38.6919 49.5407 38.8345 49.5743 38.9887L49.6603 39.3842L49.3183 39.3055C49.2113 39.2814 49.12 39.2604 49.0298 39.2384L46.8405 38.7076C45.6278 38.4139 44.4151 38.1201 43.2024 37.8264C42.3045 37.6093 41.4285 37.7037 40.5977 38.1055C40.4603 38.1726 40.3218 38.2754 40.1886 38.3751C39.9578 38.5471 39.7197 38.7254 39.4564 38.738C39.1752 38.7517 38.9025 38.6027 38.6371 38.4579C38.4934 38.3792 38.3444 38.2985 38.1996 38.246C36.9586 37.8023 35.5938 37.8128 33.9059 38.2785C33.1527 38.4863 32.41 38.6656 31.6243 38.8555C31.2781 38.9394 30.9298 39.0234 30.5784 39.1104L30.4326 39.1461L30.4483 38.9971C30.4525 38.9583 30.4557 38.9258 30.4578 38.8964C30.463 38.8398 30.4672 38.7957 30.4746 38.7538C30.6393 37.8768 30.6214 37.84 29.8221 37.4246C28.0754 36.5183 26.3288 35.6119 24.5822 34.7055L21.2274 32.9642C20.6042 32.6411 20.3913 32.6841 20 33.2327V47.7765C20.1532 48.0272 20.386 48.1898 20.7501 48.3031C22.2239 48.7605 23.7199 49.2346 25.1675 49.693L26.6519 50.163C27.0935 50.3025 27.3432 50.3225 27.5111 50.2322C27.6779 50.142 27.7953 49.928 27.9181 49.4937C27.9275 49.4602 27.9422 49.4308 27.96 49.3972C27.9684 49.3804 27.9789 49.3615 27.9905 49.3374L28.0335 49.2472L28.2076 49.3196C28.2716 49.3458 28.3356 49.372 28.3975 49.4014C28.4678 49.4339 28.536 49.4696 28.5905 49.4979L28.6986 49.5535V49.6175C28.6986 49.7916 28.6891 49.9668 28.6797 50.1347C28.6597 50.4987 28.6419 50.8428 28.7143 51.1627C28.943 52.1688 29.607 52.7761 30.6896 52.9713L30.7232 52.9776C30.8984 53.008 31.0966 53.0426 31.1459 53.3573C31.34 54.5857 32.0953 55.3221 33.3321 55.49C33.373 55.4952 33.4108 55.5057 33.4507 55.5173C33.4675 55.5225 33.4863 55.5267 33.5052 55.5319L33.5745 55.5498L33.5839 55.6201C33.7685 57.0363 34.5448 57.8409 35.8918 58.0118L35.9516 58.0192L35.9746 58.0748C36.0418 58.2342 36.1026 58.3926 36.1624 58.5448C36.2914 58.8783 36.4131 59.1941 36.582 59.4805C36.9293 60.0721 37.5629 60.3176 38.1335 60.5002H38.9633C40.5075 59.9651 41.4013 58.7336 42.1838 57.5178L42.2216 57.458L42.2908 57.4706C43.9913 57.7884 44.9963 57.0509 45.4516 55.1522L45.4684 55.0819L45.5407 55.0725C46.9443 54.8973 47.7468 54.0927 47.9273 52.6786L47.9378 52.5989L48.0165 52.5873C49.461 52.3807 50.2446 51.6065 50.4124 50.2228C50.4282 50.0896 50.552 49.9501 50.6611 49.8913C50.9495 49.7371 51.237 49.5986 51.5412 49.4507C51.6492 49.3983 51.7583 49.3458 51.8685 49.2913L51.965 49.2441L52.0101 49.3427C52.0206 49.3657 52.0321 49.3878 52.0416 49.4077C52.0647 49.4539 52.0867 49.4979 52.1014 49.5483C52.2094 49.9291 52.3343 50.1399 52.5032 50.2312C52.6689 50.3204 52.9018 50.3099 53.2606 50.1955C55.2904 49.5514 57.3192 48.9073 59.3481 48.2611C59.8684 48.0954 60.0027 47.9191 60.0027 47.4009C60.0048 42.7999 60.0058 38.1936 60.0027 33.5883ZM26.696 48.7531L21.3868 47.0726V34.5776L29.1161 38.5912L26.696 48.7531ZM31.7712 51.3736C31.5677 51.5614 31.3337 51.6558 31.0851 51.6558C30.9277 51.6558 30.7641 51.617 30.6004 51.5404C30.2217 51.362 30.0046 51.0473 29.9175 50.5501L29.9112 50.5134L29.9291 50.4809C29.9679 50.4106 30.0036 50.3371 30.0392 50.2637C30.1221 50.0938 30.2071 49.9186 30.334 49.7749C30.6728 49.3899 31.0505 49.0301 31.4145 48.6818L31.4418 48.6556C31.9233 48.1961 32.5884 48.1887 33.0227 48.6377C33.4528 49.0825 33.4328 49.7046 32.9723 50.185C32.517 50.6602 32.1352 51.0368 31.7712 51.3736ZM34.1734 53.9364C34.056 54.0444 33.8923 54.0853 33.7832 54.1126C33.7538 54.1199 33.7287 54.1252 33.7119 54.1325L33.693 54.1399H33.6731C33.1433 54.1357 32.8034 53.9542 32.6051 53.5682C32.389 53.1485 32.4247 52.731 32.7027 52.4226C33.1538 51.9212 33.6217 51.4533 34.0927 51.0327C34.4745 50.6907 35.0861 50.7221 35.4847 51.1029C35.8823 51.4827 35.9421 52.1194 35.6159 52.4929C35.1532 53.0216 34.6287 53.5157 34.1734 53.9364ZM36.9156 56.2337L36.8663 56.281C36.6135 56.5222 36.3187 56.6429 36.0323 56.6429C35.7627 56.6429 35.4994 56.5359 35.2865 56.3208C34.8417 55.8729 34.8648 55.2382 35.3421 54.7431C35.8047 54.2637 36.1666 53.9049 36.5149 53.5818C36.8516 53.2692 37.2681 53.2041 37.6856 53.3982C38.0989 53.5902 38.2961 53.9332 38.3234 54.5091L38.3245 54.5385L38.3108 54.5637C38.2951 54.5941 38.2773 54.6329 38.2573 54.6791C38.1954 54.8176 38.1105 55.0085 37.9751 55.1627C37.6426 55.5393 37.2733 55.8918 36.9156 56.2337ZM40.5778 57.5335C40.1078 58.0496 39.662 58.4965 39.214 58.8972C39.0263 59.0651 38.7934 59.1479 38.5573 59.1479C38.2856 59.1479 38.0087 59.0389 37.7895 58.8228C37.3908 58.4294 37.3436 57.8178 37.6825 57.4317C38.0643 56.9953 38.5154 56.5443 39.1018 56.0124C39.2298 55.897 39.4081 55.8498 39.5382 55.8162C39.5801 55.8047 39.6179 55.7952 39.6473 55.7848L39.6714 55.7753L39.6966 55.7785C40.2138 55.8383 40.5379 56.0449 40.7141 56.4268C40.9009 56.8296 40.8516 57.2335 40.5778 57.5335ZM48.7182 50.8879C48.2556 51.3453 47.6241 51.3096 47.1101 50.7977C46.2205 49.9133 45.3341 49.0269 44.4476 48.1394C44.0207 47.7125 43.5937 47.2845 43.1657 46.8575L43.1059 46.7977C43.0346 46.7243 42.9664 46.655 42.8909 46.5984C42.6108 46.3865 42.2331 46.4096 41.9908 46.6519C41.7506 46.8932 41.7328 47.2708 41.9489 47.5509C42.017 47.639 42.0978 47.7188 42.1828 47.8037L42.2342 47.8551C43.5381 49.1601 44.8431 50.4641 46.1481 51.7691C46.5268 52.1478 46.6328 52.5433 46.4733 52.9797C46.3233 53.3888 46.0107 53.6342 45.5701 53.6877C45.1169 53.7433 44.8012 53.4958 44.5526 53.2451C43.5318 52.2191 42.508 51.1963 41.4841 50.1735L40.668 49.3584C40.647 49.3374 40.626 49.3164 40.605 49.2944C40.5348 49.222 40.4676 49.1538 40.3942 49.0972C40.112 48.88 39.7427 48.9 39.4962 49.1454C39.257 49.3836 39.2371 49.7707 39.449 50.0445C39.5099 50.1221 39.5812 50.1934 39.6567 50.2679L39.7092 50.3204C40.0449 50.6571 40.3816 50.9928 40.7183 51.3285C41.6625 52.2705 42.6381 53.2451 43.5895 54.2123C43.792 54.4179 43.9462 54.6728 44.0134 54.9109C44.1361 55.3473 43.9189 55.8183 43.4857 56.0565C43.322 56.1467 43.1437 56.1907 42.9664 56.1907C42.7 56.1907 42.4377 56.0911 42.2342 55.8991C41.8555 55.5403 41.482 55.1658 41.1212 54.8039C40.989 54.6717 40.8579 54.5396 40.7257 54.4074L40.6407 54.3224C40.1036 53.7874 39.5655 53.2524 39.0315 52.7142C38.5951 52.2758 38.1241 52.0324 37.5891 51.9705C37.3048 51.938 37.1789 51.8121 37.1422 51.5236C37.0058 50.4525 36.1823 49.6311 35.0934 49.479C34.7735 49.4339 34.6854 49.2745 34.6476 49.0311C34.4934 48.0345 33.9385 47.3757 32.9985 47.0715C32.0659 46.7704 31.2257 46.9729 30.4987 47.6726C30.4809 47.6894 30.4641 47.7062 30.4473 47.724L30.4158 47.7555C29.6186 48.5433 29.5672 48.5496 28.5853 47.9747C28.4573 47.9002 28.3566 47.6737 28.3891 47.5352C28.8916 45.3689 29.4203 43.1502 29.9574 40.9389C29.9941 40.7899 30.1567 40.621 30.3004 40.5854L31.0935 40.386C32.4908 40.0336 33.9364 39.6685 35.3683 39.3559C36.2547 39.1629 37.1663 39.2657 38.0779 39.6622L38.2447 39.7346L37.6688 40.1595C37.3614 40.386 37.0656 40.6032 36.7719 40.8224C35.8026 41.5442 35.4071 42.6415 35.7124 43.7566C36.0176 44.8706 36.9702 45.6291 38.1409 45.691C38.5154 45.7109 38.9507 45.6333 39.4333 45.4602C40.6407 45.028 41.8534 44.5444 43.0273 44.0776L43.1227 44.0398C43.4123 43.9244 43.5979 43.9643 43.8088 44.1877C44.8473 45.2882 45.9089 46.4012 46.9359 47.4785C47.5077 48.0786 48.0804 48.6776 48.6511 49.2787C49.1515 49.8021 49.1777 50.4337 48.7182 50.8879ZM51.366 48.0261C51.3566 48.0293 51.3482 48.0345 51.3398 48.0387C51.3282 48.045 51.3177 48.0503 51.3062 48.0555C51.1824 48.1122 51.0502 48.1898 50.9233 48.2643C50.6443 48.4279 50.3568 48.5958 50.0841 48.5958C50.0505 48.5958 50.017 48.5937 49.9834 48.5874C49.6855 48.5391 49.4505 48.2401 49.2218 47.9506C49.1347 47.8405 49.0455 47.7272 48.9564 47.6338C48.1193 46.7537 47.2832 45.8735 46.4471 44.9934C45.7432 44.2517 45.0393 43.5101 44.3344 42.7694C43.9525 42.3677 43.792 42.333 43.2622 42.5366C42.7902 42.718 42.3181 42.9006 41.8461 43.0831C40.861 43.4639 39.8424 43.8583 38.8364 44.2349C38.3423 44.4206 37.823 44.3514 37.4485 44.0503C37.1044 43.7734 36.9439 43.3506 37.009 42.8911C37.0572 42.5544 37.2712 42.1778 37.5303 41.9753C38.7168 41.0459 39.7931 40.2549 40.8222 39.5563C41.117 39.3569 41.4695 39.2416 41.781 39.1398C41.9174 39.0957 42.0464 39.0527 42.1639 39.0066L42.1943 38.995L42.2258 39.0024C42.4923 39.0653 42.7461 39.1241 42.9916 39.1818C43.5109 39.3034 43.9934 39.4167 44.4749 39.5332C45.0362 39.6685 45.5984 39.8059 46.1597 39.9423C47.3042 40.2213 48.4875 40.5088 49.654 40.7836C49.9309 40.8487 50.0694 40.9861 50.1323 41.2567C50.6212 43.3454 51.1216 45.4476 51.6188 47.5069C51.6618 47.681 51.6807 47.9223 51.366 48.0261ZM58.62 47.0736L53.3099 48.7531L50.8908 38.5922L58.62 34.5807V47.0736Z" fill="#8FC0F3"/>
<path d="M26.3135 33.3343C27.738 33.3354 29.1626 33.3343 30.5872 33.3343H32.4398H32.9821L33 33.584C33.0063 33.6794 33.0126 33.7634 33.021 33.8473C33.0493 34.1484 33.2182 34.4746 33.6053 34.4851C34.5913 34.5124 35.5795 34.5124 36.5436 34.4862C36.702 34.482 36.8499 34.4148 36.9611 34.2963C37.0859 34.163 37.1541 33.9805 37.1478 33.7959C37.1352 33.4371 36.8635 33.1696 36.4869 33.1465C36.359 33.1392 36.2268 33.1402 36.0988 33.1413C36.0474 33.1413 35.996 33.1413 35.9435 33.1423H34.9071H34.4141L34.4078 33.0437C34.3238 31.7251 34.8578 30.4212 35.8712 29.4665C36.8321 28.5612 38.0888 28.1049 39.2323 28.2476L39.3246 28.2591V28.3514C39.3246 28.4479 39.3246 28.5444 39.3235 28.641C39.3225 28.8518 39.3214 29.07 39.3256 29.2851C39.3351 29.7445 39.5931 30.032 39.9981 30.0351C40.0001 30.0351 40.0022 30.0351 40.0054 30.0351C40.4061 30.0351 40.6715 29.7466 40.6831 29.2976C40.6883 29.0753 40.6873 28.8497 40.6862 28.6305C40.6852 28.5308 40.6852 28.4311 40.6852 28.3325V28.235L40.7817 28.2276C42.0657 28.1311 43.3466 28.6399 44.298 29.6228C45.2306 30.5869 45.71 31.8678 45.582 33.049L45.5715 33.1423H44.9348C44.5194 33.1413 44.1029 33.1413 43.6864 33.1434C43.1703 33.1465 42.8609 33.3983 42.8609 33.8179C42.8609 34.2302 43.184 34.4987 43.6843 34.5019C44.2319 34.505 44.7806 34.504 45.3282 34.504L45.9607 34.5029C46.7895 34.5029 46.9258 34.3781 47.0045 33.5483C47.0087 33.5022 47.0307 33.4654 47.0496 33.4329C47.057 33.4203 47.0643 33.4077 47.0717 33.3931L47.101 33.3343H49.3145C50.8094 33.3343 52.3032 33.3354 53.798 33.3322C54.3404 33.3312 54.5859 33.0899 54.5932 32.5496C54.5964 32.2937 54.5995 31.9905 54.5901 31.6905C54.5313 29.9019 53.7907 28.4553 52.3871 27.3916C52.0514 27.1377 51.68 26.9373 51.2877 26.7244C51.1094 26.6279 50.9258 26.5282 50.7443 26.4233L50.6436 26.3646L50.7118 26.2701C51.3286 25.4257 51.3108 24.4553 51.2227 23.2731C51.1304 22.0279 50.2418 20.961 49.0113 20.6201C47.7504 20.2697 46.4391 20.7197 45.7488 21.7394C44.9285 22.951 44.8498 24.3515 45.5086 26.0194C45.5369 26.0918 45.5778 26.1631 45.6167 26.2324C45.6355 26.2649 45.6534 26.2974 45.6702 26.3289L45.7205 26.4254L45.6229 26.4726C45.5013 26.5314 45.3785 26.5807 45.2589 26.6289C45.0114 26.7286 44.7774 26.823 44.6075 26.9761C44.0463 27.4839 43.4693 27.5174 42.7371 27.0842C42.7266 27.0779 42.7171 27.0706 42.6962 27.0538L42.585 26.9615L42.6406 26.8817C43.0864 26.2418 43.3035 25.5988 43.3035 24.9169C43.3035 24.8109 43.3046 24.705 43.3046 24.599C43.3067 24.2665 43.3088 23.9235 43.2889 23.5888C43.1965 21.9828 41.9094 20.661 40.2928 20.5152C38.6438 20.3662 37.1185 21.4645 36.8184 23.015C36.5835 24.235 36.4649 25.6491 37.3713 26.8954L37.4489 27.0024L37.3272 27.0538C37.2401 27.0905 37.1562 27.1262 37.0734 27.1618C36.852 27.2562 36.6422 27.3454 36.4282 27.4272C36.3348 27.4629 36.1901 27.4692 36.0936 27.4146C35.6593 27.1681 35.2334 26.9174 34.7833 26.652L34.2787 26.3551L34.3511 26.2607C34.9312 25.5044 34.9061 24.5948 34.8798 23.6318L34.8756 23.4734C34.8368 21.9387 33.6829 20.6956 32.1324 20.5194C30.6239 20.3473 29.1951 21.3397 28.8804 22.78C28.5584 24.2508 28.6989 25.3858 29.3242 26.3509L29.3966 26.4632L29.2696 26.5072C28.207 26.8733 27.3593 27.4524 26.6764 28.279C25.7522 29.3984 25.3358 30.7516 25.406 32.4175C25.4375 33.136 25.6316 33.3333 26.3135 33.3343ZM46.4873 23.8836C46.4863 23.763 46.4853 23.6381 46.4894 23.5143C46.522 22.6122 47.2185 21.9051 48.1102 21.8695C49.0197 21.8317 49.774 22.4779 49.8621 23.3696C49.9072 23.8332 49.9072 24.3001 49.8589 24.7564C49.7698 25.6145 49.0533 26.2397 48.1752 26.2397C48.148 26.2397 48.1207 26.2387 48.0934 26.2376C47.207 26.1988 46.5178 25.4844 46.4884 24.5781C46.4842 24.4595 46.4853 24.341 46.4863 24.2256C46.4863 24.1721 46.4873 24.1186 46.4873 24.0661C46.4884 24.0053 46.4873 23.9444 46.4873 23.8836ZM45.0712 28.2843C45.7499 27.8322 46.502 27.6108 47.3696 27.6077H47.4629L47.4745 27.7C47.4902 27.8301 47.4934 27.9706 47.4965 28.1059C47.5102 28.7196 47.5521 29.0973 48.2099 29.0815C48.8277 29.069 48.8613 28.707 48.8634 28.1185C48.8645 27.9853 48.8645 27.8468 48.8781 27.7178L48.8875 27.6286L48.9767 27.6244C50.0782 27.5678 51.1923 28.0294 52.0357 28.8896C52.8539 29.7246 53.2798 30.8041 53.2043 31.851L53.1969 31.9485H46.9279L46.9122 31.8625C46.6604 30.5166 46.0531 29.3994 45.0565 28.4469L44.9621 28.3567L45.0712 28.2843ZM38.0752 23.6434C38.157 22.629 38.9847 21.8684 40.0043 21.8684C40.0096 21.8684 40.0148 21.8684 40.0211 21.8684C41.0219 21.8768 41.859 22.6552 41.9272 23.6402C41.9608 24.1207 41.9597 24.6011 41.9262 25.0659C41.8538 26.0635 41.0271 26.8167 40.0054 26.8188C40.0043 26.8188 40.0033 26.8188 40.0022 26.8188C38.9899 26.8188 38.1633 26.0687 38.0783 25.0722C38.0636 24.898 38.0678 24.7218 38.071 24.5508C38.072 24.4994 38.0731 24.4469 38.0741 24.3955L38.0731 24.319C38.0731 24.2497 38.072 24.1805 38.0699 24.1112C38.0657 23.957 38.0626 23.7997 38.0752 23.6434ZM30.1519 23.3192C30.2452 22.4643 31.0142 21.8275 31.9058 21.8695C32.7692 21.9093 33.4752 22.6195 33.515 23.485C33.5213 23.6213 33.5192 23.7598 33.5182 23.893C33.5182 23.9235 33.5171 23.9528 33.5171 23.9822L33.5643 23.9875L33.5518 24.0934C33.5402 24.192 33.5329 24.2927 33.5245 24.3934C33.5077 24.619 33.4899 24.8529 33.4238 25.0732C33.214 25.7792 32.5667 26.2429 31.8177 26.2429C31.7632 26.2429 31.7076 26.2408 31.6509 26.2355C30.8715 26.1652 30.2263 25.5411 30.1498 24.7858C30.1005 24.2833 30.1005 23.7902 30.1519 23.3192ZM27.9783 28.8906C28.8594 27.9927 30.0029 27.5258 31.0372 27.6412L31.1201 27.6507L31.1295 27.7335C31.1432 27.8584 31.1442 27.9948 31.1453 28.1269C31.1474 28.4395 31.1484 28.7637 31.3247 28.9347C31.4327 29.0396 31.6048 29.0878 31.8481 29.0805C32.4734 29.0637 32.5069 28.6861 32.509 28.0713C32.509 27.9507 32.5101 27.8259 32.5195 27.7073L32.5269 27.6119L32.6234 27.6108C33.4668 27.6014 34.2231 27.8196 34.9344 28.279L35.0456 28.3514L34.9501 28.4437C33.9493 29.4057 33.342 30.5261 33.0944 31.8699L33.0786 31.9559H26.8296L26.818 31.8646C26.688 30.8743 27.1223 29.7634 27.9783 28.8906Z" fill="#8FC0F3"/>
<path d="M40.0159 33.0417C39.5753 33.0354 39.2165 33.3879 39.2207 33.8264C39.2249 34.2418 39.5764 34.5974 39.9897 34.6048C40.4187 34.6132 40.788 34.2449 40.7848 33.8127C40.7817 33.391 40.4397 33.048 40.0159 33.0417Z" fill="#8FC0F3"/>
</svg>
