<svg width="80" height="81" viewBox="0 0 80 81" fill="none" xmlns="http://www.w3.org/2000/svg">
<path d="M36.3392 52.7775C36.2589 52.3299 35.9543 52.1276 35.5035 52.1903C35.3166 52.2156 35.1318 52.2475 34.9416 52.2772C34.9108 52.1914 34.8855 52.1419 34.8756 52.0891C34.6491 50.807 34.4182 49.526 34.2049 48.2427C34.1378 47.8403 33.9993 47.4983 33.7288 47.1783C31.9628 45.0968 30.2002 43.012 28.4661 40.904C27.814 40.1123 27.0762 39.5493 26.0206 39.5713C25.9953 39.5207 25.9766 39.4988 25.9722 39.4746C25.7237 38.0858 25.4785 36.6959 25.2267 35.3071C24.8726 33.3553 22.6943 32.4284 21.1087 33.5697C20.1367 34.2691 19.8574 35.2466 20.0641 36.4034C20.8866 41.0305 21.697 45.6598 22.5283 50.2847C22.5701 50.52 22.7174 50.7773 22.8944 50.94C23.7532 51.7285 24.6428 52.4828 25.5082 53.2646C25.6654 53.4064 25.7556 53.622 25.9227 53.8738C25.6324 53.9309 25.4873 53.9628 25.3399 53.9881C24.7857 54.0849 24.5735 54.3609 24.6703 54.9085C24.954 56.5282 25.2421 58.1468 25.5368 59.7643C25.6566 60.4252 25.9073 60.5824 26.5759 60.4614C27.6007 60.2767 28.6266 60.0975 29.6526 59.916C31.9606 59.5081 34.2687 59.1034 36.5745 58.69C37.1045 58.5954 37.3156 58.3183 37.2332 57.8378C36.9396 56.1499 36.6427 54.4632 36.3392 52.7775ZM24.0545 50.2077C23.9083 50.0725 23.7906 49.8558 23.7554 49.659C22.9571 45.209 22.1687 40.7567 21.3946 36.3022C21.3352 35.9636 21.3286 35.582 21.4221 35.2565C21.5782 34.7122 22.1588 34.3779 22.7042 34.4175C23.2837 34.4593 23.7961 34.8629 23.9039 35.4357C24.1755 36.8762 24.424 38.3211 24.667 39.7671C24.6846 39.8682 24.6142 40.0266 24.5317 40.0969C23.2353 41.2229 23.1144 42.7316 24.2239 44.0544C25.7226 45.8412 27.2214 47.6281 28.7201 49.4138C28.7806 49.4864 28.8466 49.5546 28.9444 49.6623C29.2875 49.3731 29.6009 49.1114 29.9374 48.8277C29.1313 47.8656 28.3396 46.921 27.5479 45.9754C26.7375 45.0077 25.9139 44.0511 25.12 43.0713C24.4702 42.2697 24.8429 41.1668 25.8304 40.9348C26.4175 40.7963 26.8618 41.0492 27.2345 41.4945C28.7828 43.3473 30.3112 45.2166 31.9034 47.031C32.5676 47.7886 33.0151 48.5748 33.1207 49.5919C33.2196 50.5552 33.4396 51.5063 33.6166 52.5268C31.4625 52.9083 29.3249 53.2877 27.1994 53.6637C27.1653 53.6275 27.1312 53.6088 27.1301 53.589C27.1059 52.9567 26.7419 52.5499 26.2757 52.1683C25.5126 51.5415 24.7802 50.8774 24.0545 50.2077ZM26.7496 59.088C26.5198 57.7861 26.2955 56.5227 26.0613 55.1988C29.0896 54.6644 32.0981 54.1333 35.1439 53.5956C35.3749 54.9118 35.5992 56.184 35.8279 57.4881C32.7776 58.0258 29.7779 58.5547 26.7496 59.088Z" fill="#8FC0F3"/>
<path d="M57.5595 33.1442C56.13 32.9254 54.8325 33.8348 54.5543 35.2566C54.4597 35.7404 54.3827 36.2275 54.297 36.7135C54.1276 37.6658 53.9583 38.618 53.7879 39.5714C52.7806 39.5714 52.0538 40.009 51.449 40.738C49.6721 42.8812 47.8797 45.0122 46.0797 47.1366C45.7927 47.4753 45.6344 47.8359 45.5629 48.2703C45.3474 49.5931 45.1022 50.9115 44.8624 52.2717C44.6997 52.2574 44.5908 52.2541 44.4853 52.2365C43.7453 52.1112 43.5396 52.2464 43.4088 52.9699C43.1196 54.5743 42.8359 56.1797 42.5511 57.7851C42.4587 58.3063 42.6578 58.5911 43.1889 58.6856C46.5481 59.2827 49.9074 59.8787 53.2667 60.4725C53.8538 60.5758 54.1232 60.3944 54.2277 59.816C54.5235 58.1853 54.8149 56.5535 55.1019 54.9206C55.1997 54.3653 55.0007 54.0926 54.4487 53.9871C54.2904 53.9563 54.132 53.9211 53.8659 53.865C54.0188 53.6286 54.1045 53.412 54.2585 53.2723C55.1129 52.4993 55.9959 51.7582 56.8392 50.9731C57.0405 50.785 57.201 50.4849 57.2516 50.2133C57.7277 47.6402 58.1785 45.0628 58.6316 42.4864C59.0087 40.3411 59.4101 38.1991 59.7389 36.0472C59.9566 34.6276 58.956 33.3576 57.5595 33.1442ZM53.0247 59.0859C49.9921 58.5515 46.9924 58.0215 43.9465 57.4849C44.1763 56.1797 44.3995 54.9074 44.6315 53.5945C47.6741 54.13 50.6738 54.6578 53.7142 55.1933C53.4767 56.5304 53.2535 57.7928 53.0247 59.0859ZM58.4414 35.957C57.6342 40.5588 56.826 45.1595 56.0068 49.758C55.9783 49.9164 55.865 50.0846 55.7429 50.1957C55.0832 50.7949 54.4058 51.3755 53.7395 51.9682C53.2238 52.4267 52.5816 52.8006 52.6718 53.6737C50.4671 53.2855 48.3295 52.9084 46.16 52.5257C46.4107 51.094 46.6482 49.7063 46.9022 48.322C46.9275 48.1867 47.0396 48.058 47.1342 47.9448C48.9386 45.7885 50.7475 43.6355 52.5552 41.4825C53.1171 40.8128 53.9088 40.7051 54.5103 41.2087C55.0876 41.6925 55.1338 42.504 54.5939 43.1517C53.1094 44.9319 51.6162 46.7044 50.1262 48.4803C50.0382 48.5848 49.9547 48.6914 49.8425 48.83C50.1724 49.106 50.4913 49.3743 50.8442 49.6701C51.283 49.1466 51.703 48.6463 52.1242 48.1449C53.2886 46.7583 54.4575 45.3761 55.6143 43.984C56.6512 42.7371 56.4984 41.1735 55.2657 40.1146C55.1745 40.0365 55.0997 39.8606 55.1184 39.7473C55.3592 38.3013 55.6 36.8554 55.8804 35.4171C56.0167 34.7189 56.7315 34.3054 57.4198 34.4539C58.1203 34.6067 58.5656 35.2489 58.4414 35.957Z" fill="#8FC0F3"/>
<path d="M42.9006 38.8985C43.1227 38.8457 43.27 38.8204 43.4548 38.9711C43.8165 39.2647 44.197 39.5352 44.572 39.8123C44.8952 40.0509 45.2141 40.0377 45.5011 39.7562C46.1081 39.1602 46.7096 38.5576 47.3067 37.9517C47.5871 37.6669 47.608 37.3492 47.3693 37.0237C47.1989 36.7917 47.0494 36.5377 46.847 36.3364C46.4083 35.8988 46.3005 35.4579 46.6337 34.8927C46.7646 34.6706 46.8624 34.5265 47.1285 34.499C47.5783 34.4528 48.0258 34.3836 48.4733 34.311C48.8989 34.2428 49.1012 34.0163 49.1056 33.5864C49.1144 32.7496 49.1144 31.9128 49.1056 31.076C49.1012 30.6482 48.8967 30.4283 48.4678 30.3568C48.1841 30.3096 47.8971 30.2315 47.6134 30.237C46.9746 30.2502 46.6205 29.9665 46.46 29.3485C46.3995 29.1154 46.3643 28.9571 46.5303 28.7569C46.8283 28.3985 47.0966 28.0158 47.3715 27.6397C47.6101 27.3143 47.5827 26.9976 47.3012 26.7128C46.7129 26.1168 46.1235 25.523 45.5253 24.938C45.2053 24.6257 44.9293 24.6104 44.5676 24.8611C44.3531 25.0095 44.1277 25.1514 43.9463 25.335C43.4801 25.8089 43.0006 25.9354 42.3948 25.567C42.1946 25.446 42.0836 25.3438 42.0561 25.1217C41.9978 24.6598 41.9307 24.198 41.8615 23.7373C41.8021 23.3425 41.5712 23.1204 41.1687 23.1171C40.3176 23.1105 39.4665 23.1116 38.6166 23.116C38.2152 23.1182 37.9777 23.3293 37.9128 23.7241C37.8666 24.0078 37.7875 24.2959 37.7974 24.5785C37.8226 25.2635 37.4961 25.644 36.8484 25.7616C36.6868 25.7913 36.4734 25.7781 36.3426 25.6946C35.9621 25.4515 35.6158 25.1568 35.2463 24.8951C35.1055 24.7951 34.9384 24.7324 34.7548 24.6378C34.5766 24.7412 34.3897 24.8072 34.2589 24.9325C33.6563 25.5131 33.0647 26.1058 32.4797 26.7051C32.1696 27.0229 32.1553 27.2967 32.417 27.6617C32.6886 28.0411 32.9921 28.3985 33.245 28.7888C33.3297 28.9197 33.3418 29.1319 33.3132 29.2935C33.1977 29.9687 32.781 30.2744 32.0938 30.2568C31.8364 30.2502 31.5769 30.3184 31.3196 30.3568C30.8886 30.4206 30.672 30.6383 30.6676 31.0606C30.6577 31.9117 30.6577 32.7617 30.6676 33.6127C30.672 34.0174 30.8853 34.245 31.2823 34.3088C31.5528 34.3528 31.8266 34.4209 32.0971 34.4132C32.7876 34.3935 33.1966 34.709 33.3132 35.3798C33.3418 35.5414 33.3264 35.7537 33.2406 35.8845C32.9877 36.2749 32.6908 36.6366 32.4115 37.0105C32.1718 37.3305 32.1696 37.6516 32.4522 37.9396C33.057 38.5576 33.6684 39.169 34.2874 39.7727C34.5601 40.0388 34.8724 40.0487 35.1836 39.8244C35.4057 39.6638 35.6498 39.522 35.8401 39.3295C36.3107 38.8512 36.8132 38.7149 37.3817 39.1272C37.517 39.2251 37.6643 39.3779 37.6962 39.5297C37.7963 39.9981 37.838 40.4775 37.9128 40.9514C37.9711 41.3264 38.1976 41.5474 38.5792 41.5529C39.4435 41.5639 40.3088 41.5628 41.1731 41.554C41.5756 41.5496 41.8021 41.3231 41.8626 40.9283C41.9032 40.6567 41.9758 40.3851 41.9714 40.1146C41.9637 39.4505 42.2375 39.0568 42.9006 38.8985ZM41.5019 38.0166C41.1247 38.142 40.8894 38.3355 40.8443 38.7544C40.7927 39.2427 40.7025 39.7254 40.6277 40.2224C40.1252 40.2224 39.6491 40.2224 39.1455 40.2224C39.0663 39.7001 38.9827 39.1888 38.9123 38.6753C38.8684 38.352 38.688 38.1728 38.3878 38.0595C37.8897 37.8715 37.3971 37.6669 36.9122 37.447C36.6065 37.3085 36.3382 37.3096 36.0677 37.5163C35.6652 37.8242 35.2573 38.1233 34.8405 38.4334C34.503 38.076 34.1764 37.7307 33.8124 37.3459C34.0697 37.0006 34.3512 36.6014 34.6536 36.221C34.9065 35.9021 34.9186 35.5997 34.735 35.2346C34.5206 34.8091 34.3457 34.3605 34.1896 33.9096C34.0642 33.5468 33.8597 33.3356 33.4638 33.2917C32.9756 33.2378 32.4929 33.1487 31.9959 33.0717C31.9959 32.5714 31.9959 32.0953 31.9959 31.5928C32.5193 31.5125 33.0306 31.4289 33.5441 31.3586C33.8674 31.3135 34.0455 31.1321 34.1588 30.833C34.3468 30.3348 34.5525 29.8422 34.7724 29.3584C34.9109 29.0527 34.9076 28.7833 34.702 28.5128C34.3952 28.1104 34.095 27.7024 33.7816 27.2824C34.1445 26.9503 34.4953 26.6281 34.8878 26.2696C35.2199 26.5159 35.6191 26.7974 36.0006 27.1009C36.3206 27.356 36.6219 27.3659 36.9859 27.1801C37.3982 26.9701 37.8325 26.7952 38.2724 26.649C38.6495 26.5225 38.8838 26.3279 38.9288 25.9101C38.9805 25.423 39.0707 24.9391 39.1455 24.4432C39.6491 24.4432 40.1252 24.4432 40.6277 24.4432C40.7069 24.9666 40.7905 25.479 40.8608 25.9925C40.9048 26.3158 41.0862 26.494 41.3864 26.6061C41.8846 26.793 42.3772 26.9976 42.8621 27.2186C43.1678 27.3571 43.4372 27.3527 43.7077 27.1482C44.1112 26.8414 44.5192 26.5412 44.9337 26.2323C45.2735 26.5896 45.6023 26.9338 45.9652 27.3143C45.7045 27.6661 45.4242 28.0664 45.1196 28.4468C44.8634 28.7668 44.8546 29.0681 45.0404 29.4321C45.2504 29.8444 45.4264 30.2788 45.5726 30.7186C45.6991 31.0958 45.8937 31.33 46.3115 31.374C46.7986 31.4256 47.2825 31.5158 47.7784 31.5906C47.7784 32.0953 47.7784 32.5714 47.7784 33.0739C47.255 33.1531 46.7426 33.2367 46.2291 33.306C45.9047 33.3499 45.7276 33.5314 45.6155 33.8316C45.4286 34.3297 45.2229 34.8223 45.0019 35.3061C44.8634 35.6118 44.8667 35.8801 45.0734 36.1506C45.3813 36.552 45.6804 36.961 45.9937 37.38C45.6298 37.712 45.279 38.0331 44.8843 38.3938C44.5555 38.1475 44.1574 37.8649 43.7759 37.5614C43.457 37.3074 43.1546 37.2953 42.7906 37.4822C42.3761 37.6966 41.9406 37.8704 41.5019 38.0166Z" fill="#8FC0F3"/>
<path d="M48.6657 24.4201C48.3754 24.132 48.0807 23.8384 47.7849 23.5459C47.5089 23.8296 47.2252 24.1199 46.9316 24.4212C47.2186 24.717 47.51 25.0161 47.7629 25.2756C48.0763 24.9798 48.3787 24.6928 48.6657 24.4201Z" fill="#8FC0F3"/>
<path d="M46.8926 40.2508C47.1972 40.5554 47.4842 40.8435 47.7591 41.1195C48.0779 40.7995 48.3704 40.5049 48.6387 40.2366C48.3616 39.9628 48.0669 39.6703 47.8173 39.4229C47.5193 39.689 47.2082 39.9672 46.8926 40.2508Z" fill="#8FC0F3"/>
<path d="M48.6934 38.1716C49.0606 38.3872 49.4092 38.5917 49.8248 38.8358C50.047 38.452 50.2592 38.0837 50.4857 37.6911C50.0767 37.458 49.7182 37.2535 49.3443 37.0413C49.1145 37.4426 48.9122 37.7923 48.6934 38.1716Z" fill="#8FC0F3"/>
<path d="M43.2445 42.3568C42.8124 42.4745 42.4132 42.5822 41.9844 42.6988C42.1031 43.1419 42.2076 43.5334 42.3231 43.9644C42.7629 43.8468 43.173 43.7368 43.5942 43.6235C43.4677 43.1683 43.36 42.778 43.2445 42.3568Z" fill="#8FC0F3"/>
<path d="M35.1858 22.8731C34.9527 22.4728 34.7437 22.1154 34.5271 21.7416C34.1214 21.9791 33.7629 22.188 33.3945 22.4035C33.6221 22.7972 33.8256 23.1491 34.0521 23.5416C34.4501 23.3063 34.8075 23.0952 35.1858 22.8731Z" fill="#8FC0F3"/>
<path d="M31.0864 26.4948C30.6895 26.2661 30.3288 26.0583 29.9483 25.8395C29.7207 26.2342 29.5173 26.5861 29.293 26.9765C29.6822 27.2008 30.0429 27.4097 30.4288 27.6329C30.6576 27.2371 30.8654 26.8764 31.0864 26.4948Z" fill="#8FC0F3"/>
<path d="M50.4864 26.9734C50.2478 26.5666 50.0378 26.2081 49.8201 25.8364C49.4143 26.0728 49.0548 26.2829 48.6875 26.4973C48.9217 26.8986 49.1262 27.2505 49.3462 27.6299C49.7343 27.4066 50.0862 27.2043 50.4864 26.9734Z" fill="#8FC0F3"/>
<path d="M31.0897 38.1704C30.85 37.7592 30.6455 37.4073 30.4277 37.0334C30.0286 37.2655 29.6668 37.4744 29.293 37.691C29.5261 38.0946 29.7306 38.4486 29.9494 38.8291C30.3464 38.6004 30.7147 38.387 31.0897 38.1704Z" fill="#8FC0F3"/>
<path d="M40.5167 20.5C40.0802 20.5 39.6744 20.5 39.25 20.5C39.25 20.9244 39.25 21.3302 39.25 21.7689C39.6931 21.7689 40.1088 21.7689 40.5167 21.7689C40.5167 21.3258 40.5167 20.9101 40.5167 20.5Z" fill="#8FC0F3"/>
<path d="M37.789 21.9877C37.6801 21.5687 37.5779 21.1773 37.458 20.7188C37.0149 20.8419 36.6036 20.9552 36.1836 21.0717C36.3078 21.5182 36.4156 21.9085 36.5333 22.3297C36.9632 22.212 37.3536 22.1064 37.789 21.9877Z" fill="#8FC0F3"/>
<path d="M51.7146 31.6948C51.2792 31.6948 50.8734 31.6948 50.4512 31.6948C50.4512 32.149 50.4512 32.5536 50.4512 32.966C50.8899 32.966 51.3045 32.966 51.7146 32.966C51.7146 32.5239 51.7146 32.1083 51.7146 31.6948Z" fill="#8FC0F3"/>
<path d="M28.2695 34.766C28.385 35.1949 28.4927 35.5973 28.6104 36.0383C29.0579 35.9162 29.4494 35.8095 29.8727 35.6941C29.7584 35.2663 29.6539 34.876 29.5374 34.4384C29.1107 34.5494 28.7083 34.6528 28.2695 34.766Z" fill="#8FC0F3"/>
<path d="M29.324 31.6927C28.8951 31.6927 28.4905 31.6927 28.0605 31.6927C28.0605 32.1458 28.0605 32.5603 28.0605 32.9738C28.4971 32.9738 28.9017 32.9738 29.324 32.9738C29.324 32.5383 29.324 32.1238 29.324 31.6927Z" fill="#8FC0F3"/>
<path d="M46.3885 22.3956C45.9894 22.168 45.6298 21.9634 45.2461 21.7446C45.014 22.1471 44.8084 22.5055 44.5918 22.8805C44.9997 23.1125 45.3582 23.3171 45.7321 23.5315C45.9586 23.14 46.162 22.787 46.3885 22.3956Z" fill="#8FC0F3"/>
<path d="M35.1863 41.7938C34.8003 41.5706 34.4407 41.3616 34.0526 41.1362C33.8305 41.5178 33.6193 41.8796 33.3906 42.271C33.7733 42.492 34.1416 42.7043 34.5309 42.9286C34.7607 42.5294 34.963 42.1808 35.1863 41.7938Z" fill="#8FC0F3"/>
<path d="M45.248 42.9263C45.6307 42.7041 46.0001 42.4897 46.385 42.2665C46.1541 41.8684 45.943 41.5045 45.7252 41.1273C45.3272 41.3626 44.9676 41.5749 44.5938 41.7948C44.8181 42.1818 45.016 42.5238 45.248 42.9263Z" fill="#8FC0F3"/>
<path d="M51.5107 34.7649C51.0686 34.6473 50.6783 34.5439 50.245 34.4296C50.123 34.8947 50.0218 35.2829 49.9141 35.6963C50.3583 35.814 50.7585 35.9195 51.183 36.0317C51.2985 35.5852 51.4018 35.1839 51.5107 34.7649Z" fill="#8FC0F3"/>
<path d="M39.25 44.1712C39.6755 44.1712 40.0813 44.1712 40.5178 44.1712C40.5178 43.7247 40.5178 43.3102 40.5178 42.9055C40.0736 42.9055 39.6579 42.9055 39.25 42.9055C39.25 43.3421 39.25 43.7478 39.25 44.1712Z" fill="#8FC0F3"/>
<path d="M50.2491 30.2325C50.6812 30.117 51.0826 30.0104 51.5147 29.8949C51.396 29.4584 51.2871 29.057 51.1716 28.6293C50.7318 28.7491 50.3315 28.8591 49.9082 28.9745C50.0248 29.4067 50.1303 29.797 50.2491 30.2325Z" fill="#8FC0F3"/>
<path d="M29.8705 28.9734C29.4417 28.8569 29.0502 28.7502 28.606 28.6293C28.4862 29.0834 28.3784 29.4925 28.2695 29.907C28.738 30.0247 29.1283 30.1225 29.5407 30.2259C29.6572 29.7849 29.7595 29.3957 29.8705 28.9734Z" fill="#8FC0F3"/>
<path d="M36.1875 43.6002C36.6229 43.7168 37.0155 43.8223 37.4575 43.94C37.573 43.4914 37.6764 43.0911 37.7852 42.67C37.3355 42.5512 36.9462 42.4489 36.5251 42.3379C36.4063 42.7821 36.2997 43.1813 36.1875 43.6002Z" fill="#8FC0F3"/>
<path d="M43.5799 21.0464C43.1379 20.9288 42.7376 20.8221 42.311 20.7078C42.1955 21.1586 42.0921 21.5589 41.9844 21.9778C42.4242 22.0966 42.8036 22.1988 43.2423 22.3176C43.36 21.8755 43.4666 21.4764 43.5799 21.0464Z" fill="#8FC0F3"/>
<path d="M32.7749 24.4947C32.4868 24.1571 32.2163 23.8416 31.9689 23.5535C31.6654 23.8449 31.3718 24.1253 31.0684 24.4167C31.3729 24.7113 31.672 25.0005 31.9843 25.3018C32.2647 25.0148 32.5572 24.7157 32.7749 24.4947Z" fill="#8FC0F3"/>
<path d="M31.9937 39.4561C31.7034 39.7233 31.3966 40.0048 31.1074 40.2709C31.3845 40.5568 31.6671 40.8481 31.9409 41.1307C32.2422 40.8305 32.538 40.5359 32.8173 40.2577C32.5303 39.9784 32.2235 39.6804 31.9937 39.4561Z" fill="#8FC0F3"/>
<path d="M39.8765 28.3829C37.707 28.3807 35.9312 30.1665 35.9356 32.3426C35.94 34.5187 37.7125 36.2824 39.8963 36.2835C42.0669 36.2846 43.8493 34.4945 43.8384 32.3239C43.8274 30.1456 42.0592 28.3851 39.8765 28.3829ZM39.8897 34.9684C38.436 34.9717 37.2496 33.7841 37.2518 32.3272C37.254 30.8889 38.4261 29.7091 39.8622 29.7003C41.3225 29.6915 42.5177 30.8691 42.521 32.3195C42.5254 33.7776 41.3456 34.9651 39.8897 34.9684Z" fill="#8FC0F3"/>
<path d="M43.252 36.5166C43.5236 36.7959 43.8127 37.0939 44.0613 37.3501C44.3581 37.0829 44.6693 36.8036 44.9882 36.5177C44.6814 36.212 44.3933 35.9261 44.1096 35.6447C43.7974 35.9635 43.506 36.2593 43.252 36.5166Z" fill="#8FC0F3"/>
<path d="M34.8496 36.4519C35.1487 36.8016 35.4203 37.1183 35.6325 37.3668C35.9668 37.0688 36.278 36.7917 36.5078 36.5871C36.2274 36.2595 35.9569 35.9428 35.6842 35.6239C35.3752 35.9296 35.0871 36.2166 34.8496 36.4519Z" fill="#8FC0F3"/>
<path d="M36.58 28.1399C36.2821 27.8419 35.9885 27.5484 35.6927 27.2526C35.3958 27.5495 35.1011 27.8441 34.8086 28.1366C35.1044 28.4335 35.398 28.7282 35.6927 29.024C35.9896 28.7293 36.2843 28.4357 36.58 28.1399Z" fill="#8FC0F3"/>
<path d="M44.9503 28.1631C44.6523 27.8651 44.3576 27.5693 44.064 27.2769C43.7836 27.5573 43.49 27.8508 43.1953 28.1466C43.49 28.4424 43.7836 28.736 44.0794 29.0329C44.3785 28.7349 44.6721 28.4413 44.9503 28.1631Z" fill="#8FC0F3"/>
<path d="M46.4407 31.6982C46.0019 31.6982 45.5973 31.6982 45.1816 31.6982C45.1816 32.1348 45.1816 32.5504 45.1816 32.9782C45.6127 32.9782 46.0173 32.9782 46.4407 32.9782C46.4407 32.5185 46.4407 32.104 46.4407 31.6982Z" fill="#8FC0F3"/>
<path d="M33.3203 32.9695C33.7547 32.9695 34.1703 32.9695 34.6013 32.9695C34.6013 32.5417 34.6013 32.136 34.6013 31.7061C34.1483 31.7061 33.7338 31.7061 33.3203 31.7061C33.3203 32.1426 33.3203 32.5472 33.3203 32.9695Z" fill="#8FC0F3"/>
<path d="M39.252 38.8941C39.6907 38.8941 40.1052 38.8941 40.5154 38.8941C40.5154 38.452 40.5154 38.0364 40.5154 37.6229C40.08 37.6229 39.6742 37.6229 39.252 37.6229C39.252 38.0771 39.252 38.4828 39.252 38.8941Z" fill="#8FC0F3"/>
<path d="M40.5271 25.7726C40.0917 25.7726 39.676 25.7726 39.2461 25.7726C39.2461 26.2025 39.2461 26.6072 39.2461 27.0338C39.7024 27.0338 40.1181 27.0338 40.5271 27.0338C40.5271 26.5962 40.5271 26.1915 40.5271 25.7726Z" fill="#8FC0F3"/>
</svg>
