<svg width="80" height="81" viewBox="0 0 80 81" fill="none" xmlns="http://www.w3.org/2000/svg">
<path d="M58.9279 24.6906C58.9279 33.7946 58.9279 42.8996 58.9279 52.0037C58.9047 52.0585 58.8741 52.1113 58.8583 52.1689C58.5187 53.3814 57.7004 54.0708 56.4535 54.1719C56.1529 54.196 55.8477 54.1756 55.5378 54.1756C55.5378 55.4921 55.5378 56.7362 55.5378 58.0156C56.3301 58.0156 57.1048 58.0332 57.8776 58.0091C58.3387 57.9942 58.6959 58.1213 58.9269 58.5351C58.9269 58.8571 58.9269 59.1781 58.9269 59.5C46.457 59.5 33.987 59.5 21.5179 59.5C21.4502 59.4499 21.3825 59.3998 21.3157 59.3488C21.0828 59.1669 20.9668 58.9313 21.0225 58.6363C21.08 58.3301 21.2656 58.1232 21.5727 58.0536C21.7146 58.0212 21.8658 58.0184 22.0133 58.0184C22.8001 58.0156 23.5868 58.0165 24.3828 58.0165C24.3828 56.726 24.3828 55.4726 24.3828 54.2294C23.9032 54.1914 23.4365 54.2109 22.9986 54.1079C21.7415 53.8129 21.0012 52.7988 21.0012 51.4304C20.9993 42.7234 21.0002 34.0154 21.0002 25.3084C21.0002 25.2092 20.9984 25.1099 21.0067 25.0116C21.0976 23.9688 21.5198 23.0967 22.3084 22.3971C22.852 21.9147 23.5172 21.7097 24.1852 21.5C34.7041 21.5 45.223 21.5 55.742 21.5C55.7967 21.5232 55.8486 21.5557 55.9052 21.5687C56.858 21.7755 57.6754 22.2311 58.2024 23.0558C58.5206 23.5513 58.6913 24.1413 58.9279 24.6906ZM22.4819 28.3422C22.4819 28.4953 22.4819 28.6168 22.4819 28.7384C22.4819 36.2829 22.4819 43.8274 22.4819 51.3719C22.4819 51.4833 22.4754 51.5955 22.4902 51.705C22.5496 52.1447 22.7685 52.5029 23.1972 52.6151C23.5757 52.7144 23.9839 52.6968 24.3624 52.7292C24.3912 52.6216 24.4032 52.5984 24.4032 52.5752C24.406 51.9935 24.406 51.4127 24.4079 50.831C24.4107 50.1055 24.6639 49.8513 25.3922 49.8504C26.7996 49.8495 28.207 49.8495 29.6145 49.8504C30.3901 49.8504 30.6294 50.0925 30.6304 50.8737C30.6313 53.1124 30.6304 55.3511 30.6304 57.5897C30.6304 57.7215 30.6304 57.8532 30.6304 57.9878C31.3438 57.9878 32.0146 57.9878 32.7048 57.9878C32.7048 57.8152 32.7048 57.6677 32.7048 57.5211C32.7048 52.5734 32.7048 47.6266 32.7048 42.6788C32.7048 41.8847 32.9479 41.6407 33.7448 41.6397C35.1151 41.6379 36.4854 41.6388 37.8557 41.6397C38.7018 41.6407 38.9273 41.8689 38.9273 42.7215C38.9273 47.6692 38.9273 52.616 38.9273 57.5638C38.9273 57.7066 38.9273 57.8495 38.9273 57.984C39.6491 57.984 40.3198 57.984 41.0017 57.984C41.0017 57.8059 41.0017 57.6584 41.0017 57.51C41.0017 54.6404 41.0008 51.7709 41.0017 48.9013C41.0017 48.1749 41.2569 47.9207 41.9852 47.9197C43.3926 47.9188 44.8 47.9188 46.2074 47.9197C46.9839 47.9197 47.2233 48.161 47.2242 48.9421C47.2251 51.8237 47.2242 54.7054 47.2242 57.5879C47.2242 57.7196 47.2242 57.8514 47.2242 57.9878C47.9367 57.9878 48.6075 57.9878 49.2987 57.9878C49.2987 57.8282 49.2987 57.6937 49.2987 57.5591C49.2987 55.16 49.2987 52.7598 49.2987 50.3607C49.2987 50.2493 49.2931 50.1371 49.3024 50.0267C49.3376 49.5916 49.6364 49.2863 50.0288 49.2789C50.4315 49.2715 50.745 49.5897 50.7766 50.0424C50.784 50.1528 50.7794 50.2651 50.7794 50.3764C50.7794 52.7886 50.7794 55.1998 50.7794 57.612C50.7794 57.7419 50.7794 57.8709 50.7794 57.9915C51.8955 57.9915 52.9522 57.9915 54.0108 57.9915C54.0108 52.6606 54.0108 47.351 54.0108 42.0415C52.9262 42.0415 51.8704 42.0415 50.7794 42.0415C50.7794 42.1973 50.7794 42.3309 50.7794 42.4645C50.7794 43.293 50.7868 44.1224 50.7757 44.9509C50.7692 45.4315 50.4528 45.7618 50.0362 45.7599C49.6197 45.7581 49.32 45.4287 49.2987 44.9463C49.2959 44.8841 49.2977 44.8229 49.2977 44.7607C49.2977 43.6845 49.2968 42.6083 49.2977 41.5331C49.2987 40.7862 49.5473 40.5357 50.2997 40.5339C51.6951 40.5311 53.0895 40.532 54.4848 40.5339C55.2827 40.5348 55.5193 40.7742 55.5193 41.5748C55.5193 45.1365 55.5193 48.6991 55.5193 52.2607C55.5193 52.4017 55.5193 52.5428 55.5193 52.7051C55.7169 52.7051 55.8514 52.7051 55.9869 52.7051C57.0826 52.706 57.4453 52.3396 57.4453 51.2355C57.4453 43.7532 57.4453 36.2699 57.4453 28.7875C57.4453 28.6428 57.4453 28.499 57.4453 28.3394C45.7806 28.3422 34.1568 28.3422 22.4819 28.3422ZM22.4921 26.8188C34.1595 26.8188 45.7908 26.8188 57.4462 26.8188C57.4462 26.3763 57.4462 25.9579 57.4462 25.5385C57.4462 23.8621 56.5658 22.9835 54.8875 22.9835C44.9401 22.9835 34.9917 22.9835 25.0443 22.9835C24.8838 22.9835 24.7233 22.9807 24.5637 22.9937C23.4347 23.0874 22.5793 23.9224 22.5004 25.0533C22.4587 25.6304 22.4921 26.2121 22.4921 26.8188ZM34.2004 57.9887C35.296 57.9887 36.3611 57.9887 37.4299 57.9887C37.4299 53.0317 37.4299 48.1016 37.4299 43.1492C36.3481 43.1492 35.2821 43.1492 34.2004 43.1492C34.2004 48.1016 34.2004 53.0317 34.2004 57.9887ZM45.7166 57.998C45.7166 55.1228 45.7166 52.2746 45.7166 49.4348C44.6256 49.4348 43.5605 49.4348 42.501 49.4348C42.501 52.3025 42.501 55.1414 42.501 57.998C43.5763 57.998 44.6321 57.998 45.7166 57.998ZM25.9053 57.9887C27 57.9887 28.0651 57.9887 29.12 57.9887C29.12 55.7574 29.12 53.5531 29.12 51.3552C28.0345 51.3552 26.9778 51.3552 25.9053 51.3552C25.9053 53.5707 25.9053 55.7667 25.9053 57.9887Z" fill="#8FC0F3"/>
<path d="M50.2232 35.8106C49.5459 34.5526 49.6081 33.4513 50.3995 32.5254C51.2651 31.5114 52.7087 31.3017 53.8526 32.0226C54.9223 32.6971 55.3565 34.0971 54.8638 35.2837C54.3629 36.4916 53.0269 37.1726 51.7707 36.8377C51.5248 36.7718 51.3699 36.7959 51.1871 36.9805C49.6675 38.5188 48.1395 40.0486 46.6068 41.5729C46.4472 41.7316 46.3999 41.8494 46.4955 42.0776C46.9807 43.2383 46.5975 44.5343 45.5779 45.2728C44.6344 45.9557 43.2826 45.9102 42.3762 45.1633C41.4095 44.3683 41.1098 43.0861 41.6489 41.9533C41.7472 41.7464 41.7268 41.6351 41.57 41.4792C40.0104 39.9289 38.4574 38.3722 36.908 36.8117C36.7596 36.6623 36.6445 36.6104 36.4321 36.7087C35.8105 36.9972 35.162 36.9972 34.5255 36.7607C34.3047 36.679 34.1711 36.7152 34.0088 36.8785C32.6793 38.2219 31.3424 39.5588 30.0018 40.892C29.8608 41.032 29.8255 41.136 29.9081 41.3336C30.4982 42.7549 29.806 44.3803 28.4172 44.8748C26.9022 45.4138 25.3426 44.629 24.9158 43.0787C24.6366 42.0656 24.8954 41.1591 25.6636 40.4438C26.4671 39.6961 27.4199 39.53 28.445 39.9113C28.689 40.0022 28.8254 39.9874 29.01 39.8009C30.3015 38.4891 31.6031 37.1874 32.9103 35.8913C33.0773 35.7262 33.1014 35.6065 32.9975 35.3885C32.4641 34.2641 32.7739 32.9689 33.7416 32.1822C34.661 31.4344 36.009 31.3954 36.9433 32.0885C37.9601 32.8427 38.334 34.1323 37.8469 35.2892C37.7588 35.498 37.7866 35.6093 37.9388 35.7615C39.515 37.3303 41.0857 38.9047 42.6518 40.4828C42.7974 40.6294 42.9171 40.6934 43.1314 40.6099C43.792 40.352 44.4525 40.3752 45.1131 40.6415C45.2161 40.6832 45.4109 40.6582 45.4851 40.5839C47.0558 39.0272 48.6163 37.4602 50.1777 35.8941C50.1944 35.8793 50.2009 35.8533 50.2232 35.8106ZM53.5928 34.2548C53.59 33.61 53.0584 33.0793 52.4136 33.0775C51.7679 33.0756 51.2335 33.6016 51.227 34.2474C51.2196 34.9051 51.7698 35.4562 52.4248 35.4469C53.0658 35.4386 53.5956 34.8977 53.5928 34.2548ZM45.2235 43.113C45.2309 42.4654 44.7123 41.9255 44.0694 41.9116C43.4144 41.8967 42.8577 42.4432 42.8587 43.0991C42.8596 43.7402 43.3958 44.2792 44.036 44.282C44.6808 44.2857 45.2161 43.7587 45.2235 43.113ZM36.5731 34.2733C36.5787 33.6165 36.0693 33.0877 35.4218 33.0765C34.7621 33.0654 34.2129 33.6063 34.2166 34.265C34.2194 34.907 34.7556 35.4442 35.3958 35.4469C36.0378 35.4497 36.5675 34.9228 36.5731 34.2733ZM28.6454 42.3875C28.6454 41.7334 28.1296 41.2092 27.4802 41.2037C26.8242 41.1981 26.2741 41.752 26.2861 42.4051C26.2982 43.0536 26.8279 43.5685 27.4792 43.5648C28.1333 43.5611 28.6454 43.0443 28.6454 42.3875Z" fill="#8FC0F3"/>
<path d="M26.9034 32.3363C26.3607 32.3363 25.817 32.3409 25.2743 32.3353C24.7603 32.3298 24.4235 32.0412 24.4124 31.6107C24.4012 31.1691 24.7482 30.8574 25.2798 30.8546C26.3783 30.8491 27.4768 30.8481 28.5752 30.8546C29.091 30.8574 29.426 31.1497 29.4371 31.5801C29.4482 32.0217 29.1003 32.3307 28.5696 32.3363C28.0148 32.34 27.4591 32.3363 26.9034 32.3363Z" fill="#8FC0F3"/>
<path d="M26.8874 35.8978C26.3446 35.8978 25.801 35.9034 25.2582 35.896C24.7498 35.8895 24.4121 35.5861 24.4121 35.1566C24.4121 34.7261 24.7489 34.4199 25.2582 34.4162C26.3687 34.4088 27.4802 34.4088 28.5907 34.4162C29.101 34.4199 29.4368 34.7261 29.4368 35.1566C29.4368 35.587 29.0982 35.8895 28.5907 35.896C28.0229 35.9043 27.4552 35.8978 26.8874 35.8978Z" fill="#8FC0F3"/>
<path d="M32.1908 31.5801C32.1973 31.9818 31.8745 32.3223 31.4783 32.3316C31.0942 32.3409 30.738 31.9967 30.7287 31.6089C30.7194 31.2229 31.0599 30.8685 31.4496 30.8592C31.8429 30.849 32.1834 31.1812 32.1908 31.5801Z" fill="#8FC0F3"/>
<path d="M50.7742 47.6702C50.7751 48.0626 50.4346 48.4013 50.0394 48.4013C49.6442 48.4022 49.3037 48.0645 49.3027 47.6721C49.3018 47.2778 49.6386 46.9447 50.0375 46.9447C50.4374 46.9447 50.7742 47.2768 50.7742 47.6702Z" fill="#8FC0F3"/>
<path d="M45.818 25.6544C43.1767 25.6544 40.5353 25.6544 37.895 25.6544C37.8207 25.6544 37.7465 25.6544 37.6732 25.6544C37.0748 25.6507 36.7148 25.3715 36.7148 24.9113C36.7158 24.4511 37.0748 24.171 37.6751 24.171C43.1052 24.17 48.5354 24.17 53.9665 24.1728C54.1242 24.1728 54.2912 24.184 54.4387 24.2341C54.7514 24.3407 54.9174 24.5894 54.9174 24.9132C54.9174 25.237 54.7514 25.4865 54.4369 25.5904C54.2773 25.6433 54.0982 25.6517 53.9275 25.6517C51.2231 25.6563 48.5206 25.6544 45.818 25.6544Z" fill="#8FC0F3"/>
<path d="M26.4755 24.9215C26.4699 25.3074 26.1155 25.6544 25.7324 25.6489C25.3473 25.6433 25.0004 25.288 25.0059 24.9048C25.0115 24.5188 25.3659 24.1719 25.7491 24.1774C26.1341 24.1821 26.4801 24.5374 26.4755 24.9215Z" fill="#8FC0F3"/>
<path d="M28.7055 25.649C28.3233 25.649 27.9707 25.2974 27.9707 24.9133C27.9707 24.5301 28.3223 24.1776 28.7046 24.1766C29.0868 24.1766 29.4393 24.5283 29.4393 24.9123C29.4403 25.2955 29.0887 25.6481 28.7055 25.649Z" fill="#8FC0F3"/>
<path d="M32.4004 24.9029C32.4069 25.2861 32.0608 25.6423 31.6758 25.6488C31.2926 25.6553 30.9382 25.3093 30.9317 24.9224C30.9252 24.5392 31.2713 24.183 31.6563 24.1765C32.0395 24.17 32.3939 24.517 32.4004 24.9029Z" fill="#8FC0F3"/>
</svg>
