<svg width="80" height="81" viewBox="0 0 80 81" fill="none" xmlns="http://www.w3.org/2000/svg">
<path d="M58.2144 47.256C58.0766 47.0555 58.0662 46.9157 58.2102 46.709C58.6935 46.0159 59.1538 45.3051 59.6236 44.6015C60.2666 43.6381 60.1298 43.3051 58.9795 43.113C59.1006 42.9189 59.2123 42.7331 59.3302 42.5504C60.2175 41.184 60.2196 39.8177 59.3229 38.4555C58.9722 37.9231 58.6225 37.3897 58.252 36.871C57.7102 36.1121 57.5338 35.276 57.6184 34.3574C57.6852 33.632 57.728 32.9034 57.7363 32.1748C57.7509 30.942 57.2207 29.9838 56.1612 29.3533C55.6038 29.0214 55.0255 28.7124 54.4264 28.4671C53.275 27.9953 52.5047 27.1926 52.0224 26.0507C51.7354 25.3722 51.3711 24.7177 50.9734 24.0966C50.511 23.3743 49.8231 22.8879 48.9557 22.843C48.0121 22.7929 47.0601 22.8347 46.1154 22.8962C45.224 22.9536 44.414 22.7971 43.6729 22.2804C43.0435 21.842 42.4078 21.4088 41.7502 21.0163C40.6009 20.3316 39.4235 20.3263 38.2711 21.01C37.6344 21.3879 37.0175 21.8023 36.4131 22.2313C35.6302 22.7866 34.7764 22.9777 33.8286 22.8879C33.0781 22.8169 32.3213 22.7699 31.5687 22.7752C30.0771 22.7856 29.1418 23.6342 28.527 24.9098C28.383 25.2094 28.4759 25.4797 28.7598 25.6498C29.05 25.8242 29.3151 25.7459 29.5186 25.4881C29.6147 25.367 29.6867 25.225 29.7618 25.0883C30.1982 24.2929 30.8683 23.8983 31.7754 23.9359C32.529 23.9672 33.2827 24.0183 34.0363 24.0664C35.0425 24.13 35.9747 23.9161 36.8181 23.3524C37.435 22.9401 38.0498 22.5267 38.6698 22.1207C39.5571 21.5393 40.4506 21.5382 41.3379 22.1217C41.914 22.5006 42.4902 22.8785 43.057 23.271C43.9975 23.9234 45.0361 24.1551 46.1666 24.0559C46.8398 23.9964 47.5173 23.9672 48.1926 23.9348C49.1342 23.8889 49.8262 24.296 50.2626 25.1248C50.5413 25.654 50.822 26.1832 51.0579 26.7312C51.606 28.0005 52.5026 28.8961 53.774 29.4462C54.4044 29.7197 55.014 30.0485 55.609 30.3919C56.2593 30.7677 56.561 31.371 56.5662 32.1163C56.5693 32.5067 56.586 32.9034 56.5234 33.2854C56.2176 35.1455 56.5578 36.8229 57.799 38.2926C58.0975 38.6465 58.3198 39.0703 58.5474 39.4774C58.9263 40.1538 58.9346 40.8511 58.5484 41.5243C58.2572 42.0306 57.9263 42.5149 57.6006 43.0003C57.5516 43.0734 57.4409 43.1475 57.3564 43.1496C56.8136 43.1631 56.2708 43.1569 55.7134 43.1569C55.7134 42.4512 55.7134 41.7926 55.7134 41.0807C55.8825 41.0807 56.0359 41.0911 56.1883 41.0786C56.5349 41.0504 56.7687 40.8229 56.7593 40.5087C56.7489 40.1788 56.5735 39.9722 56.2395 39.9304C56.0725 39.9095 55.9023 39.9137 55.7332 39.9127C55.3616 39.9106 54.989 39.9116 54.5996 39.9116C54.4911 37.6914 53.9399 35.6497 52.941 33.7123C53.3805 33.4577 53.7855 33.228 54.1863 32.989C54.5819 32.7541 54.6998 32.4368 54.5182 32.1205C54.3366 31.8042 54.0047 31.7489 53.6017 31.9754C53.1873 32.2082 52.7761 32.4462 52.3554 32.6863C52.2594 32.5464 52.1905 32.4368 52.1122 32.3345C51.7406 31.8491 51.3794 31.3554 50.988 30.8857C50.7479 30.5976 50.4118 30.5871 50.1582 30.8053C49.9066 31.0214 49.8868 31.3418 50.1081 31.6445C50.1467 31.6967 50.1926 31.7437 50.2344 31.7938C51.6561 33.4733 52.6237 35.3846 53.1007 37.5307C53.2709 38.2958 53.347 39.0818 53.4692 39.8793C44.4526 39.8793 35.529 39.8793 26.5886 39.8793C26.5886 39.7968 26.5855 39.7467 26.5886 39.6966C26.7222 37.6392 27.2901 35.7113 28.2963 33.9096C31.0583 28.9619 36.816 26.2521 42.3681 27.274C44.4672 27.6603 46.3639 28.4849 48.0726 29.7583C48.4453 30.036 48.7814 30.012 48.9995 29.7166C49.2177 29.4201 49.1384 29.0934 48.7678 28.8179C48.4578 28.5861 48.1394 28.3648 47.821 28.1373C48.0872 27.6728 48.3524 27.2396 48.5872 26.7918C48.8054 26.3763 48.5496 25.8805 48.1175 25.9233C47.9119 25.9432 47.6686 26.1217 47.5423 26.3001C47.2605 26.6958 47.0424 27.1363 46.7929 27.5674C44.8263 26.5308 42.7742 26.0173 40.5863 25.8983C40.5863 25.3597 40.5988 24.867 40.5832 24.3753C40.5686 23.9265 40.2606 23.6708 39.8755 23.7605C39.5404 23.8388 39.4214 24.081 39.4193 24.3993C39.4162 24.8899 39.4183 25.3795 39.4183 25.8972C37.2012 26.0121 35.149 26.5642 33.2127 27.5653C32.9528 27.1154 32.7221 26.7083 32.4831 26.3064C32.2514 25.916 31.9257 25.8022 31.6115 25.9922C31.3098 26.1749 31.2524 26.4964 31.4654 26.8784C31.6981 27.297 31.9403 27.7104 32.196 28.1592C30.3443 29.3439 28.8401 30.8658 27.6533 32.6946C27.2107 32.4389 26.8172 32.2092 26.4216 31.9848C25.9978 31.7447 25.6586 31.8021 25.479 32.1362C25.3078 32.4556 25.4321 32.7604 25.8339 32.9963C26.2358 33.2311 26.6398 33.4629 27.0709 33.7123C26.049 35.6674 25.5145 37.7258 25.3955 39.9221C24.8632 39.9221 24.3694 39.9137 23.8768 39.9241C23.4958 39.9325 23.2578 40.1496 23.2421 40.4732C23.2254 40.8114 23.4655 41.0504 23.8601 41.0859C23.9989 41.0984 24.1377 41.1016 24.288 41.1089C24.288 41.7978 24.288 42.4554 24.288 43.1537C24.1294 43.1537 23.9895 43.1537 23.8496 43.1537C22.4091 43.1548 22.43 43.1423 21.6639 41.9304C21.0449 40.9502 21.0303 40.0097 21.6826 39.0536C22.049 38.516 22.406 37.9722 22.7755 37.4367C23.4185 36.5077 23.6534 35.4816 23.5553 34.3637C23.501 33.7541 23.4812 33.1424 23.43 32.5328C23.334 31.3773 23.834 30.585 24.8684 30.0965C25.503 29.797 26.1586 29.5256 26.7494 29.154C27.2796 28.8199 27.7608 28.392 28.2128 27.9536C28.4748 27.6989 28.3955 27.3346 28.1314 27.131C27.8788 26.9358 27.5437 26.9494 27.3318 27.225C26.8757 27.8168 26.2358 28.1289 25.5939 28.4483C25.0124 28.7385 24.4196 29.0099 23.8601 29.3377C22.8977 29.9024 22.3423 30.751 22.2797 31.8773C22.2515 32.3825 22.2442 32.8992 22.3215 33.3961C22.5647 34.9545 22.3183 36.3564 21.2641 37.5964C20.6649 38.301 20.239 39.1246 20 40.0306C20 40.3427 20 40.6559 20 40.968C20.3142 41.6903 20.6273 42.4137 20.9478 43.1516C20.5626 43.0963 20.2015 43.2059 20 43.6245C20 43.755 20 43.8855 20 44.0149C20.6033 44.922 21.2108 45.827 21.8048 46.7403C21.8684 46.8374 21.9144 47.0274 21.8632 47.1046C21.2536 48.0357 20.6242 48.9532 20 49.8739C20 50.0304 20 50.186 20 50.3425C20.2182 50.7027 20.5386 50.8425 20.953 50.7997C21.095 50.7851 21.2401 50.807 21.382 50.7956C22.2348 50.7309 22.9832 50.8154 23.6701 51.4928C24.1576 51.973 24.882 52.2423 25.5385 52.5147C26.6982 52.997 27.4957 53.7861 27.9779 54.9458C28.2462 55.5899 28.5844 56.213 28.955 56.8059C29.5625 57.7746 30.4873 58.2328 31.6188 58.2297C32.3589 58.2276 33.101 58.1838 33.839 58.1138C34.7722 58.0261 35.6229 58.1994 36.3849 58.7599C36.5206 58.8602 36.6678 58.9447 36.8056 59.0439C37.65 59.6514 38.506 60.237 39.5331 60.5C39.8452 60.5 40.1583 60.5 40.4704 60.5C41.5111 60.2317 42.3775 59.6378 43.2324 59.0219C43.3587 58.9311 43.4954 58.8539 43.6207 58.761C44.3816 58.1963 45.2344 58.0282 46.1676 58.1138C46.9317 58.1838 47.701 58.2328 48.4672 58.2255C49.5193 58.2151 50.3899 57.7819 50.9859 56.8957C51.2678 56.4771 51.5131 56.0293 51.7333 55.5742C52.8314 53.306 52.8262 53.3039 55.1132 52.2204C55.8209 51.8853 56.5057 51.5168 57.0391 50.9167C57.11 50.8373 57.2666 50.8039 57.3846 50.8008C57.9701 50.7893 58.5568 50.7903 59.1424 50.7977C59.4597 50.8018 59.7426 50.7444 59.9137 50.4459C60.0985 50.1244 59.9659 49.853 59.7801 49.5795C59.2551 48.8144 58.7457 48.0284 58.2144 47.256ZM25.5062 41.1214C35.1709 41.1214 44.8138 41.1214 54.49 41.1214C54.49 42.8635 54.49 44.5973 54.49 46.3875C54.3251 46.3875 54.1612 46.3875 53.9974 46.3875C46.8367 46.3875 39.6761 46.3875 32.5155 46.3896C32.3349 46.3896 32.147 46.3896 31.9758 46.4376C31.6898 46.518 31.5489 46.7403 31.5781 47.0315C31.6063 47.3186 31.7775 47.5107 32.077 47.5472C32.2315 47.566 32.3891 47.5597 32.5447 47.5597C38.6636 47.5597 44.7825 47.5597 50.9024 47.5597C51.0538 47.5597 51.2051 47.5597 51.4755 47.5597C48.5935 51.8519 44.676 54.0398 39.626 53.9072C34.8891 53.783 31.2242 51.5962 28.5374 47.5597C28.8662 47.5597 29.0938 47.5639 29.3213 47.5587C29.7514 47.5493 30.0051 47.3301 30.0019 46.9773C29.9998 46.6255 29.7451 46.3948 29.3151 46.3917C28.1951 46.3833 27.0761 46.3885 25.9561 46.3885C25.8151 46.3885 25.6742 46.3885 25.5072 46.3885C25.5062 44.6151 25.5062 42.8792 25.5062 41.1214ZM21.6242 49.6129C21.9833 49.0712 22.3152 48.567 22.6513 48.066C23.4342 46.9011 23.429 47.0545 22.6524 45.8948C22.3204 45.4 21.9916 44.9032 21.6325 44.3646C22.5375 44.3646 23.3966 44.3646 24.3089 44.3646C24.3089 45.1788 24.3068 45.971 24.31 46.7633C24.312 47.3708 24.4958 47.5555 25.0991 47.5587C25.5396 47.5618 25.979 47.5597 26.4487 47.5597C26.4487 48.2591 26.4487 48.925 26.4487 49.614C24.8538 49.6129 23.2755 49.6129 21.6242 49.6129ZM54.8909 51.0377C54.6706 51.1494 54.4525 51.2705 54.2218 51.3561C52.5871 51.9636 51.4776 53.0836 50.8492 54.711C50.6582 55.2036 50.3805 55.6671 50.107 56.1232C49.7208 56.7683 49.1227 57.0804 48.3774 57.069C47.702 57.0585 47.0225 57.0387 46.3513 56.9646C45.0184 56.8174 43.8295 57.1368 42.7533 57.9332C42.2731 58.2881 41.7679 58.6117 41.2627 58.9311C40.4214 59.4635 39.5686 59.4604 38.7304 58.9259C38.1166 58.5345 37.5133 58.1253 36.912 57.7151C36.0039 57.095 35.0029 56.8633 33.9131 56.9489C33.2002 57.0053 32.4852 57.0449 31.7702 57.0752C30.8798 57.1128 30.2034 56.7339 29.7806 55.9521C29.4174 55.2778 29.0802 54.5878 28.7483 53.8968C28.2786 52.9187 27.5521 52.2079 26.5771 51.7423C25.9957 51.4647 25.4164 51.1797 24.8517 50.806C25.479 50.806 26.1064 50.806 26.7337 50.806C27.4884 50.806 27.6471 50.6453 27.6481 49.8895C27.6491 49.4344 27.6502 48.9783 27.6533 48.5232C27.6533 48.5023 27.6732 48.4814 27.7097 48.4094C28.8944 50.2215 30.3777 51.7058 32.1908 52.8592C31.932 53.3101 31.6887 53.7245 31.456 54.1442C31.2482 54.5178 31.3151 54.8498 31.623 55.0251C31.9299 55.2005 32.2493 55.0919 32.4695 54.7235C32.7148 54.3122 32.9507 53.8947 33.2086 53.449C35.1501 54.449 37.1928 54.997 39.4162 55.1034C39.4162 55.4792 39.4151 55.8383 39.4172 56.1963C39.4183 56.3779 39.411 56.5617 39.4318 56.7422C39.4694 57.0773 39.6792 57.2631 40.007 57.261C40.3358 57.2589 40.5581 57.069 40.5717 56.7339C40.5936 56.2151 40.5779 55.6953 40.5779 55.1139C42.7648 54.9886 44.8284 54.4771 46.7939 53.4438C47.0517 53.8895 47.2814 54.2955 47.5194 54.6974C47.7522 55.0899 48.0737 55.2068 48.3889 55.0199C48.702 54.8352 48.7542 54.5074 48.5267 54.1014C48.2991 53.6953 48.0643 53.2934 47.8158 52.8623C49.6248 51.6974 51.1112 50.2277 52.3565 48.4501C52.3565 48.9344 52.3565 49.4188 52.3565 49.9021C52.3575 50.639 52.5193 50.805 53.2427 50.806C53.8773 50.8071 54.512 50.806 55.2625 50.806C55.0746 50.925 54.9869 50.9897 54.8909 51.0377ZM53.5527 49.615C53.5527 48.9386 53.5527 48.281 53.5527 47.5587C54.0318 47.5587 54.4848 47.5618 54.9368 47.5576C55.4932 47.5535 55.6915 47.3603 55.6946 46.8092C55.6988 46.0034 55.6957 45.1975 55.6957 44.3625C56.5787 44.3625 57.443 44.3625 58.3678 44.3625C58.2113 44.6015 58.0672 44.8228 57.9211 45.0441C57.633 45.4773 57.3438 45.9094 57.0547 46.3416C56.6758 46.9094 56.6758 47.0472 57.0464 47.6036C57.4138 48.1547 57.7823 48.7069 58.1486 49.2591C58.2175 49.3624 58.277 49.473 58.3616 49.615C56.7353 49.615 55.157 49.615 53.5527 49.615Z" fill="#8FC0F3"/>
<path d="M43.3138 34.6915C43.915 34.2802 44.4985 33.8439 45.0872 33.4139C45.6112 33.0297 45.7783 32.606 45.6071 32.1101C45.4494 31.6519 45.081 31.4243 44.462 31.4202C43.7198 31.4149 42.9777 31.4024 42.2366 31.4264C41.9286 31.4369 41.8075 31.3221 41.724 31.0433C41.509 30.321 41.2658 29.6081 41.0289 28.892C40.8462 28.343 40.5132 28.0747 40.0247 28.0674C39.5143 28.0601 39.1688 28.3273 38.9819 28.892C38.7356 29.6321 38.4903 30.3722 38.2617 31.1164C38.1938 31.3388 38.0936 31.4348 37.8525 31.4233C37.4496 31.4045 37.0456 31.4181 36.6427 31.4181C36.2648 31.4191 35.888 31.4139 35.5102 31.4202C34.9183 31.4296 34.5279 31.6874 34.3912 32.1477C34.2492 32.6268 34.4121 33.035 34.8964 33.3899C35.5049 33.8356 36.1114 34.2855 36.7314 34.7155C36.9475 34.8648 37.007 34.9994 36.9141 35.2604C36.6563 35.9817 36.4298 36.7144 36.197 37.4451C36.0206 38.0004 36.1458 38.4451 36.5456 38.7342C36.9506 39.0276 37.3828 39.0036 37.8775 38.6476C38.5122 38.1925 39.1458 37.7374 39.771 37.2687C39.9464 37.1372 40.0685 37.1341 40.247 37.2677C40.8702 37.7374 41.5059 38.1915 42.1405 38.6455C42.6395 39.0025 43.0643 39.0265 43.4704 38.7322C43.867 38.4451 43.9923 37.9952 43.8159 37.4409C43.5873 36.7228 43.3691 36.0005 43.1102 35.2938C42.9975 35.0015 43.0727 34.8564 43.3138 34.6915ZM42.3075 33.9859C41.8284 34.3429 41.7021 34.7134 41.8785 35.2792C42.1019 35.9953 42.3378 36.7071 42.5685 37.4211C42.5466 37.4368 42.5247 37.4535 42.5027 37.4691C41.9359 37.0579 41.3712 36.6445 40.8034 36.2343C40.1792 35.7834 39.8305 35.7834 39.2157 36.2291C38.6385 36.6476 38.0602 37.0662 37.3995 37.5453C37.6458 36.7802 37.8619 36.1069 38.079 35.4337C38.3222 34.68 38.221 34.3627 37.5811 33.894C37.0268 33.488 36.4705 33.0851 35.8515 32.6341C36.0143 32.6122 36.1072 32.5903 36.2001 32.5903C36.7982 32.5872 37.3963 32.5893 37.9955 32.5882C38.7846 32.5872 39.0675 32.3826 39.3107 31.6415C39.5278 30.9818 39.7449 30.3221 40.0456 29.6603C40.2408 30.2574 40.437 30.8534 40.6301 31.4504C40.9516 32.4452 41.1468 32.5882 42.2 32.5882C42.8221 32.5882 43.4453 32.5882 44.1019 32.6634C43.8086 32.8815 43.5152 33.1007 43.2209 33.3168C42.9171 33.5423 42.6092 33.7604 42.3075 33.9859Z" fill="#8FC0F3"/>
<path d="M35.1186 35.7342C35.4224 35.49 35.5257 35.1622 35.3879 34.7906C35.2574 34.4388 34.9913 34.252 34.6113 34.2468C34.2856 34.2415 33.9589 34.2207 33.6364 34.2499C33.3253 34.2791 33.198 34.1476 33.127 33.8658C33.0477 33.5516 32.936 33.2447 32.8253 32.9399C32.6907 32.5693 32.4141 32.3867 32.0174 32.3741C31.6448 32.3992 31.3796 32.5819 31.2523 32.9347C31.1281 33.276 31.0132 33.6226 30.9141 33.9722C30.8546 34.1831 30.745 34.2593 30.5247 34.2478C30.174 34.2301 29.8222 34.2405 29.4705 34.2457C29.0738 34.252 28.7972 34.4461 28.6793 34.8209C28.5613 35.1935 28.6699 35.5171 28.9841 35.7561C29.2628 35.9691 29.5425 36.1841 29.8379 36.373C30.0247 36.4931 30.0696 36.6142 29.9913 36.8208C29.8723 37.1361 29.7826 37.4628 29.673 37.7822C29.5383 38.1736 29.6302 38.5035 29.9485 38.7592C30.2586 39.0087 30.6124 38.9962 30.9945 38.7342C31.2512 38.5578 31.5111 38.3814 31.7502 38.182C31.9506 38.0139 32.1061 37.9857 32.3191 38.1726C32.5623 38.3866 32.8389 38.5619 33.104 38.7498C33.437 38.9868 33.7846 39.0118 34.1176 38.7655C34.4474 38.5202 34.533 38.183 34.4078 37.7926C34.3002 37.4586 34.1719 37.1298 34.0925 36.7895C34.0664 36.6757 34.127 36.4879 34.2157 36.4117C34.4996 36.1684 34.8253 35.9701 35.1186 35.7342ZM32.9475 37.1559C32.3358 36.5975 31.7502 36.5964 31.1343 37.1559C31.4694 36.4075 31.3086 35.8501 30.5863 35.4367C31.3911 35.5192 31.866 35.205 32.0404 34.3981C32.2063 35.1966 32.6802 35.5108 33.4986 35.4409C32.7825 35.8438 32.603 36.3939 32.9475 37.1559Z" fill="#8FC0F3"/>
<path d="M50.1453 36.3897C50.4605 36.183 50.7643 35.9575 51.0597 35.7237C51.3593 35.4878 51.4355 35.1621 51.3217 34.8104C51.2058 34.4544 50.9459 34.2551 50.5628 34.2467C50.1985 34.2394 49.8332 34.2269 49.4699 34.2478C49.2403 34.2603 49.1463 34.1642 49.0868 33.9617C48.9846 33.6131 48.875 33.2655 48.7487 32.9242C48.6182 32.5714 48.3489 32.3929 47.9679 32.373C47.5608 32.3908 47.2936 32.5985 47.1589 32.9847C47.018 33.3876 46.9898 33.9524 46.7059 34.1507C46.4042 34.3615 45.8593 34.2321 45.4209 34.2415C45.0253 34.2509 44.7508 34.4304 44.613 34.7999C44.4784 35.1621 44.5859 35.4993 44.9251 35.7644C45.1809 35.9648 45.4408 36.1632 45.7153 36.3354C45.9397 36.4763 46.0044 36.6214 45.8969 36.8771C45.7717 37.1757 45.6871 37.492 45.5953 37.803C45.4763 38.207 45.5848 38.5598 45.8938 38.7738C46.2205 38.9992 46.5545 38.9888 46.8771 38.7675C47.1767 38.5608 47.4585 38.326 47.7685 38.137C47.8666 38.0775 48.0618 38.0744 48.1599 38.1339C48.47 38.3228 48.7497 38.5608 49.0514 38.7644C49.4052 39.0024 49.7695 39.0003 50.0649 38.755C50.3634 38.5066 50.4647 38.1903 50.3394 37.8114C50.2288 37.4784 50.1296 37.1412 50.0117 36.8114C49.9459 36.6256 49.9689 36.5055 50.1453 36.3897ZM48.8833 37.1632C48.2507 36.6005 47.6714 36.5776 47.0597 37.1757C47.3833 36.4241 47.257 35.8563 46.5159 35.4419C47.3249 35.5223 47.7988 35.1914 47.971 34.3761C48.1328 35.1955 48.614 35.5191 49.4177 35.4408C48.7163 35.8605 48.5013 36.4001 48.8833 37.1632Z" fill="#8FC0F3"/>
<path d="M27.3864 45.4158C30.6129 45.4158 33.8393 45.4158 37.0658 45.4158C38.7046 45.4158 40.3444 45.4178 41.9833 45.4147C42.5386 45.4137 42.7369 45.2112 42.74 44.6632C42.7432 44.0776 42.7411 43.492 42.7411 42.9064C42.74 42.2498 42.5678 42.0776 41.9091 42.0776C39.476 42.0766 37.0428 42.0776 34.6107 42.0776C32.1515 42.0776 29.6933 42.0766 27.234 42.0787C26.6766 42.0787 26.4814 42.2739 26.4783 42.826C26.4752 43.3855 26.4772 43.945 26.4772 44.5045C26.4772 45.2655 26.6265 45.4158 27.3864 45.4158ZM27.6766 43.2738C32.2913 43.2738 36.904 43.2738 41.5428 43.2738C41.5428 43.5818 41.5428 43.8866 41.5428 44.2279C36.9082 44.2279 32.306 44.2279 27.6766 44.2279C27.6766 43.9074 27.6766 43.6037 27.6766 43.2738Z" fill="#8FC0F3"/>
<path d="M48.7458 45.4125C50.0997 45.4198 51.4535 45.4187 52.8084 45.4135C53.3168 45.4114 53.5213 45.2016 53.5255 44.7016C53.5307 44.0639 53.5307 43.4261 53.5255 42.7873C53.5213 42.2852 53.3168 42.0806 52.8105 42.0775C52.1466 42.0722 51.4828 42.0764 50.8189 42.0764C50.1289 42.0764 49.4389 42.0722 48.749 42.0785C48.2657 42.0827 48.0538 42.2904 48.0496 42.7664C48.0434 43.4177 48.0434 44.068 48.0496 44.7194C48.0528 45.1933 48.2626 45.4104 48.7458 45.4125ZM49.2323 43.2737C50.2636 43.2737 51.2813 43.2737 52.3272 43.2737C52.3272 43.5806 52.3272 43.8843 52.3272 44.2162C51.3084 44.2162 50.2907 44.2162 49.2323 44.2162C49.2323 43.8906 49.2323 43.5952 49.2323 43.2737Z" fill="#8FC0F3"/>
<path d="M34.4951 49.7058C34.6183 49.7371 34.754 49.7236 34.8834 49.7236C38.2936 49.7246 41.7027 49.7246 45.1129 49.7236C45.2423 49.7236 45.378 49.7371 45.5012 49.7069C45.8008 49.6338 45.9782 49.4365 45.9678 49.1202C45.9584 48.806 45.7768 48.6161 45.4688 48.5628C45.3551 48.543 45.235 48.5534 45.1181 48.5534C43.4135 48.5534 41.7079 48.5534 40.0034 48.5534C38.2988 48.5534 36.5932 48.5534 34.8886 48.5534C34.7717 48.5534 34.6517 48.543 34.5379 48.5618C34.23 48.6129 34.0463 48.7998 34.0337 49.114C34.0223 49.4313 34.1966 49.6307 34.4951 49.7058Z" fill="#8FC0F3"/>
<path d="M44.3506 45.4084C45.0521 45.4262 45.7546 45.4262 46.455 45.4074C46.8422 45.3969 47.0374 45.1736 47.05 44.779C47.0604 44.4418 47.052 44.1037 47.052 43.7655C47.052 43.4147 47.0604 43.064 47.05 42.7133C47.0374 42.302 46.8308 42.087 46.4205 42.0807C45.7452 42.0692 45.0688 42.0713 44.3934 42.0797C43.9592 42.0859 43.7463 42.2978 43.741 42.7279C43.7316 43.4032 43.7327 44.0796 43.741 44.755C43.7463 45.1736 43.9435 45.398 44.3506 45.4084ZM44.9456 43.2686C45.2441 43.2686 45.5354 43.2686 45.8548 43.2686C45.8548 43.5817 45.8548 43.8844 45.8548 44.2279C45.5416 44.2279 45.2619 44.2279 44.9456 44.2279C44.9456 43.9105 44.9456 43.6005 44.9456 43.2686Z" fill="#8FC0F3"/>
<path d="M42.0389 50.712C40.6882 50.7057 39.3364 50.7057 37.9857 50.712C37.516 50.7141 37.2665 50.928 37.2676 51.2955C37.2686 51.6639 37.5191 51.8737 37.9878 51.879C38.6632 51.8852 39.3385 51.8811 40.0149 51.8811C40.6903 51.8811 41.3656 51.8863 42.042 51.879C42.4846 51.8737 42.7299 51.666 42.7404 51.3132C42.7518 50.9447 42.4971 50.7141 42.0389 50.712Z" fill="#8FC0F3"/>
</svg>
