<svg width="16" height="16" viewBox="0 0 16 16" fill="none" xmlns="http://www.w3.org/2000/svg">
<path d="M2.30154 3.9351L2.30155 3.9351L7.65275 1.2685L7.65288 1.26844L7.71978 1.40269C7.81246 1.3564 7.91467 1.33241 8.01827 1.33264C8.12187 1.33287 8.22398 1.35732 8.31645 1.40402L2.30154 3.9351ZM2.30154 3.9351L2.30082 3.93547M2.30154 3.9351L2.30082 3.93547M7.62812 14.7178C7.62807 14.7178 7.62801 14.7177 7.62796 14.7177L7.69978 14.586L7.62812 14.7178ZM7.62812 14.7178C1.10494 11.1707 1.84166 4.68208 1.85698 4.56175M7.62812 14.7178L1.85698 4.56175M2.30082 3.93547C2.05896 4.05762 1.89136 4.29167 1.85698 4.56175M2.30082 3.93547L1.85698 4.56175M8.38407 1.27013C8.384 1.2701 8.38394 1.27006 8.38387 1.27003L13.9964 4.60202C13.9857 4.4898 13.9466 4.38216 13.8828 4.28921C13.819 4.19626 13.7326 4.12106 13.6318 4.07069L13.699 3.93662L13.699 3.9366C13.6989 3.93656 13.6989 3.93653 13.6988 3.9365L8.38407 1.27013ZM12.5321 5.17908C12.5185 6.50259 12.1204 10.5069 8.01018 13.0563C3.68466 10.4827 3.4135 6.49505 3.44993 5.18913L8.01688 2.91373L12.5321 5.17908Z" fill="#8FC0F3" stroke="#8FC0F3" stroke-width="0.3"/>
</svg>
