<svg width="30" height="14" viewBox="0 0 30 14" fill="none" xmlns="http://www.w3.org/2000/svg">
<path id="Vector" d="M23.7575 3.85856C23.3155 4.94189 22.6525 6.02523 21.7685 6.89189C20.8845 7.75856 19.89 8.40856 18.6745 8.84189C17.459 9.27523 16.2435 9.4919 14.807 9.4919C13.481 9.4919 12.155 9.27523 10.9395 8.84189C9.724 8.40856 8.7295 7.75856 7.8455 6.89189C6.9615 6.02523 6.2985 5.05023 5.8565 3.85856C5.4145 2.66689 5.083 1.47523 5.083 0.0668945H0C0 2.01689 0.3315 3.85856 1.105 5.5919C1.8785 7.2169 2.873 8.73356 4.199 9.92523C5.525 11.1169 7.072 12.0919 8.84 12.8502C10.608 13.5002 12.597 13.9336 14.6965 13.9336C16.796 13.9336 18.785 13.6086 20.553 12.8502C22.321 12.2002 23.868 11.2252 25.194 9.92523C26.52 8.73356 27.5145 7.2169 28.288 5.5919C29.0615 3.85856 29.393 2.01689 29.393 0.0668945H24.31C24.4205 1.47523 24.1995 2.66689 23.7575 3.85856Z" fill="#53D9F6"/>
</svg>
