<svg width="24" height="25" viewBox="0 0 24 25" fill="none" xmlns="http://www.w3.org/2000/svg">
<path d="M6.75 14.0046C6.55109 14.0046 6.36032 14.0836 6.21967 14.2242C6.07902 14.3649 6 14.5556 6 14.7546V17.7546C6 17.9535 6.07902 18.1442 6.21967 18.2849C6.36032 18.4255 6.55109 18.5046 6.75 18.5046C6.94891 18.5046 7.13968 18.4255 7.28033 18.2849C7.42098 18.1442 7.5 17.9535 7.5 17.7546V17.5056H7.9995C8.46376 17.5056 8.90901 17.3211 9.23729 16.9928C9.56557 16.6646 9.75 16.2193 9.75 15.7551C9.75 15.2908 9.56557 14.8455 9.23729 14.5173C8.90901 14.189 8.46376 14.0046 7.9995 14.0046H6.75ZM7.9995 16.0056H7.5V15.5046H7.9995C8.06594 15.5046 8.12965 15.5309 8.17663 15.5779C8.22361 15.6249 8.25 15.6886 8.25 15.7551C8.25 15.8215 8.22361 15.8852 8.17663 15.9322C8.12965 15.9792 8.06594 16.0056 7.9995 16.0056ZM15.0015 14.7531C15.0019 14.5544 15.0811 14.364 15.2217 14.2237C15.3623 14.0834 15.5528 14.0046 15.7515 14.0046H17.2485C17.4474 14.0046 17.6382 14.0836 17.7788 14.2242C17.9195 14.3649 17.9985 14.5556 17.9985 14.7546C17.9985 14.9535 17.9195 15.1442 17.7788 15.2849C17.6382 15.4255 17.4474 15.5046 17.2485 15.5046H16.4985V16.0071H17.2485C17.4474 16.0071 17.6382 16.0861 17.7788 16.2267C17.9195 16.3674 17.9985 16.5581 17.9985 16.7571C17.9985 16.956 17.9195 17.1467 17.7788 17.2874C17.6382 17.428 17.4474 17.5071 17.2485 17.5071H16.5V17.7531C16.5002 17.8515 16.481 17.9491 16.4435 18.0402C16.406 18.1312 16.3509 18.214 16.2814 18.2838C16.141 18.4248 15.9504 18.5042 15.7515 18.5046C15.5526 18.505 15.3617 18.4263 15.2207 18.2859C15.0798 18.1456 15.0004 17.955 15 17.7561V14.7531H15.0015ZM11.247 14.0046C11.0481 14.0046 10.8573 14.0836 10.7167 14.2242C10.576 14.3649 10.497 14.5556 10.497 14.7546V17.7546C10.497 17.9535 10.576 18.1442 10.7167 18.2849C10.8573 18.4255 11.0481 18.5046 11.247 18.5046H12C12.5967 18.5046 13.169 18.2675 13.591 17.8455C14.0129 17.4236 14.25 16.8513 14.25 16.2546C14.25 15.6578 14.0129 15.0855 13.591 14.6636C13.169 14.2416 12.5967 14.0046 12 14.0046H11.247ZM11.997 17.0046V15.5046H12C12.1989 15.5046 12.3897 15.5836 12.5303 15.7242C12.671 15.8649 12.75 16.0556 12.75 16.2546C12.75 16.4535 12.671 16.6442 12.5303 16.7849C12.3897 16.9255 12.1989 17.0046 12 17.0046H11.997ZM4.5 5.75305V11.1261C4.06089 11.2813 3.68078 11.569 3.41211 11.9494C3.14344 12.3299 2.99945 12.7843 3 13.2501V19.2546C3 19.8513 3.23705 20.4236 3.65901 20.8455C4.08097 21.2675 4.65326 21.5046 5.25 21.5046H18.75C19.3467 21.5046 19.919 21.2675 20.341 20.8455C20.7629 20.4236 21 19.8513 21 19.2546V13.2486C21.0002 12.7831 20.8561 12.329 20.5875 11.9488C20.3188 11.5687 19.9389 11.2812 19.5 11.1261V8.62105C19.5003 8.32492 19.4422 8.03163 19.3289 7.75801C19.2157 7.48439 19.0495 7.23582 18.84 7.02655L15.966 4.16155C15.5442 3.74002 14.9723 3.50318 14.376 3.50305H6.75C6.15326 3.50305 5.58097 3.7401 5.15901 4.16206C4.73705 4.58402 4.5 5.15631 4.5 5.75305ZM6.75 5.00305H13.5V7.25005C13.5 7.84679 13.7371 8.41909 14.159 8.84104C14.581 9.263 15.1533 9.50005 15.75 9.50005H18V10.9986H6V5.75305C6 5.55414 6.07902 5.36337 6.21967 5.22272C6.36032 5.08207 6.55109 5.00305 6.75 5.00305ZM15 5.31505L17.691 8.00005H15.75C15.5511 8.00005 15.3603 7.92103 15.2197 7.78038C15.079 7.63973 15 7.44896 15 7.25005V5.31505ZM5.25 12.5001H18.75C18.9489 12.5001 19.1397 12.5791 19.2803 12.7197C19.421 12.8604 19.5 13.0511 19.5 13.2501V19.2546C19.5 19.4535 19.421 19.6442 19.2803 19.7849C19.1397 19.9255 18.9489 20.0046 18.75 20.0046H5.25C5.05109 20.0046 4.86032 19.9255 4.71967 19.7849C4.57902 19.6442 4.5 19.4535 4.5 19.2546V13.2486C4.5 13.0496 4.57902 12.8589 4.71967 12.7182C4.86032 12.5776 5.05109 12.4986 5.25 12.4986V12.5001Z" fill="white"/>
</svg>
