<svg width="310" height="111" viewBox="0 0 310 111" fill="none" xmlns="http://www.w3.org/2000/svg">
<path d="M39.475 63.936L49.734 46.398L59.993 28.86H39.475H18.957L39.475 63.936Z" fill="white"/>
<path d="M65.1232 8.65799H13.6052C10.2599 8.65799 7.80664 11.322 7.80664 14.43V65.712C7.80664 69.042 10.4829 71.484 13.6052 71.484H65.1232C68.4685 71.484 70.9217 68.82 70.9217 65.712V14.652C71.1448 11.322 68.4685 8.65799 65.1232 8.65799ZM53.08 64.158H25.8714L12.2671 40.404L18.9577 28.638L25.8714 16.65H52.857L59.7707 28.638L66.4613 40.404L53.08 64.158Z" fill="white"/>
<path d="M90.7715 16.872L120.879 71.484H123.779L93.4477 16.872H90.7715Z" fill="#004999"/>
<path d="M123.778 16.872L115.303 25.308L110.619 16.872H93.6697L107.051 41.07L130.468 16.65L123.778 16.872ZM147.864 16.65H133.814L108.166 43.29L123.778 71.262H139.166C117.087 58.83 123.332 25.752 147.864 16.65ZM90.7704 16.872H85.4179L99.2453 42.18L71.1445 71.262H77.3891L105.044 42.846L90.7704 16.872ZM106.382 45.066L80.9575 71.262H100.137L109.727 61.494L115.526 71.262H120.655L106.382 45.066Z" fill="white"/>
<path d="M105.043 42.846L77.3887 71.262H80.957L106.381 45.066L105.043 42.846ZM130.468 16.65L106.828 41.07L108.166 43.29L133.813 16.65H130.468Z" fill="#004999"/>
<path d="M183.325 17.76C122.217 3.10798 111.289 80.364 164.814 71.484L171.059 53.724C142.735 60.828 150.987 24.198 177.526 35.298L183.325 17.76ZM223.692 49.062L211.202 71.262H199.382L196.706 49.062L188.677 71.262H170.167L188.9 16.65H207.634L210.979 43.29L225.699 16.65H243.541L240.418 71.262H222.131L223.692 49.062Z" fill="white"/>
<path d="M270.079 52.17H280.784C277.662 54.39 276.324 55.722 272.309 55.722C258.036 54.39 260.043 32.19 274.317 31.968C276.993 32.19 280.561 33.078 282.568 36.186L299.518 29.304C294.389 12.876 258.259 6.88198 245.324 32.412C243.317 36.186 242.201 40.404 241.978 44.622C241.086 64.824 260.712 78.366 284.799 69.93C296.842 65.268 303.978 50.616 301.748 39.294H272.532L270.079 52.17Z" fill="white"/>
<path d="M11.152 86.358H16.7275C21.1879 86.358 23.6412 88.8 23.6412 93.018C23.6412 97.458 20.9649 101.898 14.4973 101.898H7.80664L11.152 86.358ZM12.9361 98.79H14.7203C17.6196 98.79 19.1807 95.904 19.1807 92.796C19.1807 90.576 18.2887 89.466 16.2815 89.466H14.9433L12.9361 98.79Z" fill="white"/>
<path d="M42.3752 95.682H35.6845L35.0155 98.79H42.8212L41.7061 102.12H30.332L33.6774 86.58H44.8284L44.1594 89.91H37.0227L36.3536 92.574H43.0443L42.3752 95.682Z" fill="white"/>
<path d="M55.088 98.79L53.5268 101.898H49.0664L57.0952 86.358H62.8937L64.4549 101.898H59.9945L59.7714 98.568H55.088V98.79ZM59.7714 95.46C59.5484 93.018 59.3254 90.798 59.3254 89.466C58.6563 91.242 57.5412 93.24 56.6491 95.46H59.7714Z" fill="white"/>
<path d="M74.9368 86.358H79.3972L76.7209 98.79H83.8576L82.7425 102.12H71.8145L74.9368 86.358Z" fill="white"/>
<path d="M102.815 95.682H96.124L95.4549 98.79H103.261L102.146 102.12H90.7715L94.1168 86.58H105.268L104.599 89.91H97.4621L96.7931 92.574H103.484L102.815 95.682Z" fill="white"/>
<path d="M115.749 95.904L114.411 101.898H110.174L113.519 86.358H120.21C123.555 86.358 125.339 87.912 125.339 90.354C125.339 92.574 124.001 93.906 122.217 94.35C123.109 94.794 124.001 95.682 123.555 98.124C123.109 99.678 122.886 101.01 123.109 101.676H118.872C118.872 101.01 118.872 99.9 119.318 97.902C119.541 96.348 119.541 95.682 117.98 95.682H115.749V95.904ZM116.418 93.018H118.426C119.987 93.018 120.879 92.352 120.879 91.02C120.879 90.132 120.433 89.466 119.095 89.466H117.087L116.418 93.018Z" fill="white"/>
<path d="M166.822 86.358H173.513C176.858 86.358 178.419 88.134 178.419 90.132C178.419 91.908 177.304 93.24 175.743 93.906C176.858 94.35 177.75 95.682 177.75 97.014C177.75 99.9 175.52 101.898 171.282 101.898H163.477L166.822 86.358ZM168.383 99.012H170.613C172.174 99.012 173.066 98.346 173.066 97.014C173.066 95.904 172.397 95.46 171.059 95.46H169.052L168.383 99.012ZM171.951 92.574C173.29 92.574 174.182 92.13 174.182 90.798C174.182 89.688 173.29 89.466 172.397 89.466H170.39L169.721 92.574H171.951Z" fill="white"/>
<path d="M196.93 95.682H190.239L189.57 98.79H197.376L196.261 102.12H184.887L188.232 86.58H199.383L198.491 89.688H191.354L190.685 92.352H197.376L196.93 95.682Z" fill="white"/>
<path d="M207.634 86.358H212.094L209.418 98.79H216.555L215.44 102.12H204.512L207.634 86.358Z" fill="white"/>
<path d="M228.598 98.79L227.037 102.12H222.576L230.605 86.58H236.404L237.965 102.12H233.504L233.281 98.79H228.598ZM233.281 95.46C233.058 93.018 232.835 90.798 232.835 89.466C232.166 91.242 231.051 93.24 230.159 95.46H233.281Z" fill="white"/>
<path d="M250.677 95.904L249.339 101.898H245.324L248.67 86.358H255.36C258.706 86.358 260.49 87.912 260.49 90.354C260.49 92.574 259.152 93.906 257.367 94.35C258.259 94.794 259.152 95.682 258.706 98.124C258.259 99.678 258.036 101.01 258.259 101.676H254.022C254.022 101.01 254.022 99.9 254.468 97.902C254.691 96.348 254.691 95.682 253.13 95.682H250.677V95.904ZM251.346 93.018H253.353C254.914 93.018 255.806 92.352 255.806 91.02C255.806 90.132 255.36 89.466 254.022 89.466H252.015L251.346 93.018Z" fill="white"/>
<path d="M273.649 86.358L271.642 96.126C271.196 97.902 271.865 99.012 273.649 99.012C275.433 99.012 275.879 98.124 276.325 96.348L278.556 86.358H283.016L281.009 96.126C280.117 100.122 278.333 102.12 273.426 102.12C269.189 102.12 266.736 100.122 267.628 95.682L269.635 86.358H273.649Z" fill="white"/>
<path d="M292.382 97.014C292.382 98.346 293.274 99.234 294.835 99.234C296.173 99.234 296.842 98.79 296.842 97.68C296.842 96.57 296.173 96.126 294.389 95.682C291.044 94.572 289.706 93.24 289.706 91.242C289.706 88.356 291.713 86.358 295.95 86.358C299.742 86.358 302.195 88.134 302.195 91.242H297.958C297.958 90.576 297.511 89.466 295.95 89.466C294.835 89.466 294.166 89.91 294.166 90.798C294.166 91.464 294.835 91.908 296.619 92.574C300.188 93.684 301.526 95.016 301.526 97.458C301.526 100.344 299.296 102.564 294.612 102.564C290.375 102.564 288.145 100.566 288.145 97.458H292.382V97.014Z" fill="white"/>
</svg>
