<svg width="139" height="50" viewBox="0 0 139 50" fill="none" xmlns="http://www.w3.org/2000/svg">
<path d="M17.7 28.8L22.3 20.9L26.9 13H17.7H8.5L17.7 28.8Z" fill="#004999"/>
<path d="M29.2 3.8999H6.1C4.6 3.8999 3.5 5.0999 3.5 6.4999V29.5999C3.5 31.0999 4.7 32.1999 6.1 32.1999H29.2C30.7 32.1999 31.8 30.9999 31.8 29.5999V6.5999C31.9 5.0999 30.7 3.8999 29.2 3.8999ZM23.8 28.8999H11.6L5.5 18.1999L8.5 12.8999L11.6 7.4999H23.7L26.8 12.8999L29.8 18.1999L23.8 28.8999Z" fill="#004999"/>
<path d="M40.6992 7.59985L54.1992 32.1999H55.4992L41.8992 7.59985H40.6992Z" fill="white"/>
<path d="M55.5004 7.6L51.7004 11.4L49.6004 7.6H42.0004L48.0004 18.5L58.5004 7.5L55.5004 7.6ZM66.3004 7.5H60.0004L48.5004 19.5L55.5004 32.1H62.4004C52.5004 26.5 55.3004 11.6 66.3004 7.5ZM40.7004 7.6H38.3004L44.5004 19L31.9004 32.1H34.7004L47.1004 19.3L40.7004 7.6ZM47.7004 20.3L36.3004 32.1H44.9004L49.2004 27.7L51.8004 32.1H54.1004L47.7004 20.3Z" fill="#004999"/>
<path d="M47.0992 19.3L34.6992 32.1H36.2992L47.6992 20.3L47.0992 19.3ZM58.4992 7.5L47.8992 18.5L48.4992 19.5L59.9992 7.5H58.4992Z" fill="white"/>
<path d="M82.2001 7.99989C54.8001 1.39989 49.9001 36.1999 73.9001 32.1999L76.7001 24.1999C64.0001 27.3999 67.7001 10.8999 79.6001 15.8999L82.2001 7.99989ZM100.3 22.0999L94.7001 32.0999H89.4001L88.2001 22.0999L84.6001 32.0999H76.3001L84.7001 7.49989H93.1001L94.6001 19.4999L101.2 7.49989H109.2L107.8 32.0999H99.6001L100.3 22.0999Z" fill="#004999"/>
<path d="M121.099 23.4998H125.899C124.499 24.4998 123.899 25.0998 122.099 25.0998C115.699 24.4998 116.599 14.4998 122.999 14.3998C124.199 14.4998 125.799 14.8998 126.699 16.2998L134.299 13.1998C131.999 5.79979 115.799 3.09979 109.999 14.5998C109.099 16.2998 108.599 18.1998 108.499 20.0998C108.099 29.1998 116.899 35.2998 127.699 31.4998C133.099 29.3998 136.299 22.7998 135.299 17.6998H122.199L121.099 23.4998Z" fill="#004999"/>
<path d="M5 38.8999H7.5C9.5 38.8999 10.6 39.9999 10.6 41.8999C10.6 43.8999 9.4 45.8999 6.5 45.8999H3.5L5 38.8999ZM5.8 44.4999H6.6C7.9 44.4999 8.6 43.1999 8.6 41.7999C8.6 40.7999 8.2 40.2999 7.3 40.2999H6.7L5.8 44.4999Z" fill="#004999"/>
<path d="M18.9996 43.1H15.9996L15.6996 44.5H19.1996L18.6996 46H13.5996L15.0996 39H20.0996L19.7996 40.5H16.5996L16.2996 41.7H19.2996L18.9996 43.1Z" fill="#004999"/>
<path d="M24.7 44.4999L24 45.8999H22L25.6 38.8999H28.2L28.9 45.8999H26.9L26.8 44.3999H24.7V44.4999ZM26.8 42.9999C26.7 41.8999 26.6 40.8999 26.6 40.2999C26.3 41.0999 25.8 41.9999 25.4 42.9999H26.8Z" fill="#004999"/>
<path d="M33.5992 38.8999H35.5992L34.3992 44.4999H37.5992L37.0992 45.9999H32.1992L33.5992 38.8999Z" fill="#004999"/>
<path d="M46.0992 43.1H43.0992L42.7992 44.5H46.2992L45.7992 46H40.6992L42.1992 39H47.1992L46.8992 40.5H43.6992L43.3992 41.7H46.3992L46.0992 43.1Z" fill="#004999"/>
<path d="M51.9004 43.1999L51.3004 45.8999H49.4004L50.9004 38.8999H53.9004C55.4004 38.8999 56.2004 39.5999 56.2004 40.6999C56.2004 41.6999 55.6004 42.2999 54.8004 42.4999C55.2004 42.6999 55.6004 43.0999 55.4004 44.1999C55.2004 44.8999 55.1004 45.4999 55.2004 45.7999H53.3004C53.3004 45.4999 53.3004 44.9999 53.5004 44.0999C53.6004 43.3999 53.6004 43.0999 52.9004 43.0999H51.9004V43.1999ZM52.2004 41.8999H53.1004C53.8004 41.8999 54.2004 41.5999 54.2004 40.9999C54.2004 40.5999 54.0004 40.2999 53.4004 40.2999H52.5004L52.2004 41.8999Z" fill="#004999"/>
<path d="M74.8008 38.8999H77.8008C79.3008 38.8999 80.0008 39.6999 80.0008 40.5999C80.0008 41.3999 79.5008 41.9999 78.8008 42.2999C79.3008 42.4999 79.7008 43.0999 79.7008 43.6999C79.7008 44.9999 78.7008 45.8999 76.8008 45.8999H73.3008L74.8008 38.8999ZM75.5008 44.5999H76.5008C77.2008 44.5999 77.6008 44.2999 77.6008 43.6999C77.6008 43.1999 77.3008 42.9999 76.7008 42.9999H75.8008L75.5008 44.5999ZM77.1008 41.6999C77.7008 41.6999 78.1008 41.4999 78.1008 40.8999C78.1008 40.3999 77.7008 40.2999 77.3008 40.2999H76.4008L76.1008 41.6999H77.1008Z" fill="#004999"/>
<path d="M88.3004 43.1H85.3004L85.0004 44.5H88.5004L88.0004 46H82.9004L84.4004 39H89.4004L89.0004 40.4H85.8004L85.5004 41.6H88.5004L88.3004 43.1Z" fill="#004999"/>
<path d="M93.0992 38.8999H95.0992L93.8992 44.4999H97.0992L96.5992 45.9999H91.6992L93.0992 38.8999Z" fill="#004999"/>
<path d="M102.501 44.5L101.801 46H99.8008L103.401 39H106.001L106.701 46H104.701L104.601 44.5H102.501ZM104.601 43C104.501 41.9 104.401 40.9 104.401 40.3C104.101 41.1 103.601 42 103.201 43H104.601Z" fill="#004999"/>
<path d="M112.4 43.1999L111.8 45.8999H110L111.5 38.8999H114.5C116 38.8999 116.8 39.5999 116.8 40.6999C116.8 41.6999 116.2 42.2999 115.4 42.4999C115.8 42.6999 116.2 43.0999 116 44.1999C115.8 44.8999 115.7 45.4999 115.8 45.7999H113.9C113.9 45.4999 113.9 44.9999 114.1 44.0999C114.2 43.3999 114.2 43.0999 113.5 43.0999H112.4V43.1999ZM112.7 41.8999H113.6C114.3 41.8999 114.7 41.5999 114.7 40.9999C114.7 40.5999 114.5 40.2999 113.9 40.2999H113L112.7 41.8999Z" fill="#004999"/>
<path d="M122.7 38.8999L121.8 43.2999C121.6 44.0999 121.9 44.5999 122.7 44.5999C123.5 44.5999 123.7 44.1999 123.9 43.3999L124.9 38.8999H126.9L126 43.2999C125.6 45.0999 124.8 45.9999 122.6 45.9999C120.7 45.9999 119.6 45.0999 120 43.0999L120.9 38.8999H122.7Z" fill="#004999"/>
<path d="M131.099 43.6999C131.099 44.2999 131.499 44.6999 132.199 44.6999C132.799 44.6999 133.099 44.4999 133.099 43.9999C133.099 43.4999 132.799 43.2999 131.999 43.0999C130.499 42.5999 129.899 41.9999 129.899 41.0999C129.899 39.7999 130.799 38.8999 132.699 38.8999C134.399 38.8999 135.499 39.6999 135.499 41.0999H133.599C133.599 40.7999 133.399 40.2999 132.699 40.2999C132.199 40.2999 131.899 40.4999 131.899 40.8999C131.899 41.1999 132.199 41.3999 132.999 41.6999C134.599 42.1999 135.199 42.7999 135.199 43.8999C135.199 45.1999 134.199 46.1999 132.099 46.1999C130.199 46.1999 129.199 45.2999 129.199 43.8999H131.099V43.6999Z" fill="#004999"/>
</svg>
