<?xml version="1.0" encoding="utf-8"?><svg viewBox="0 0 104 24" xmlns="http://www.w3.org/2000/svg" xmlns:xlink="http://www.w3.org/1999/xlink"><style>:root>svg{display:none}:root>svg:target{display:block}</style><svg viewBox="0 0 104 24" id="header-logo" xmlns="http://www.w3.org/2000/svg"><path d="M10.14 6.35C9.308 6 8.372 5.8 7.228 5.8H1.924v12.35h2.392V14.6h2.912c1.144 0 2.132-.2 2.912-.55.832-.35 1.456-.85 1.872-1.5.416-.65.676-1.45.676-2.35 0-.9-.208-1.7-.676-2.35-.416-.65-1.04-1.15-1.872-1.5zm-.624 5.7c-.52.45-1.352.65-2.392.65H4.316V7.8h2.808c1.04 0 1.872.2 2.392.65.52.4.78 1.05.78 1.8s-.26 1.35-.78 1.8zm13.988 2c.832-.35 1.456-.85 1.872-1.5.416-.65.676-1.45.676-2.35 0-.9-.208-1.7-.676-2.35-.416-.65-1.092-1.15-1.872-1.5-.832-.35-1.768-.55-2.912-.55h-5.304v12.35h2.392v-3.6h2.912c.156 0 .312-.05.468-.05l2.652 3.65h2.548l-2.964-4.05c.052 0 .156 0 .208-.05zm-.676-5.65c.52.4.78 1.05.78 1.8 0 .8-.26 1.4-.78 1.8-.52.45-1.352.65-2.392.65H17.68V7.7h2.808c1.04.05 1.82.25 2.34.7zm30.784 5.8L46.54 5.8h-1.976v12.4h2.34V9.8l7.124 8.4h1.976V5.8h-2.392v8.4zm8.424-1.35h6.188v-1.9h-6.188v-3.2h6.968V5.8h-9.36v12.4h9.62v-1.95h-7.228v-3.4zm23.14 2.4L81.9 5.8h-2.184l-3.328 9.4-3.172-9.4H70.72l4.264 12.4h2.548l3.224-9.15 3.172 9.15h2.548L90.74 5.8h-2.288l-3.276 9.45zm16.484-2.15c-.26-.4-.624-.75-1.092-1a6.704 6.704 0 00-1.508-.6c-.52-.15-1.092-.3-1.664-.4-.572-.1-1.04-.25-1.508-.4-.468-.15-.832-.3-1.092-.55-.26-.25-.416-.55-.416-.9 0-.3.104-.6.26-.85.208-.25.468-.45.884-.6.416-.15.936-.25 1.612-.25.572 0 1.144.1 1.768.25.624.15 1.196.4 1.768.75l.728-1.8c-.572-.35-1.248-.6-1.976-.8-.78-.2-1.508-.3-2.288-.3-1.196 0-2.132.15-2.912.5-.78.35-1.352.8-1.716 1.35-.364.55-.572 1.2-.572 1.85 0 .65.156 1.2.416 1.65.26.4.624.75 1.092 1 .468.25.936.45 1.508.6.52.15 1.092.3 1.612.4.52.1 1.04.25 1.508.4.468.15.832.3 1.092.55.26.25.416.55.416.9 0 .3-.104.6-.312.8-.208.25-.52.45-.936.55-.416.15-.936.2-1.612.2-.78 0-1.56-.15-2.34-.4a7.5 7.5 0 01-1.924-.95l-.832 1.8c.52.45 1.248.8 2.184 1.05.936.3 1.872.4 2.86.4 1.196 0 2.132-.15 2.912-.5.78-.35 1.352-.8 1.716-1.35a3.26 3.26 0 00.572-1.85c.208-.55.052-1.1-.208-1.5zM39.104 13.75c-.208.5-.52 1-.936 1.4-.416.4-.884.7-1.456.9-.572.2-1.144.3-1.82.3a5.55 5.55 0 01-1.82-.3 3.92 3.92 0 01-1.456-.9c-.416-.4-.728-.85-.936-1.4-.208-.55-.364-1.1-.364-1.75h-2.392c0 .9.156 1.75.52 2.55.364.75.832 1.45 1.456 2s1.352 1 2.184 1.35c.832.3 1.768.5 2.756.5.988 0 1.924-.15 2.756-.5.832-.3 1.56-.75 2.184-1.35.624-.55 1.092-1.25 1.456-2 .364-.8.52-1.65.52-2.55h-2.392c.052.65-.052 1.2-.26 1.75z"/></svg></svg>