<?xml version="1.0" encoding="utf-8"?><svg viewBox="0 0 221 52" xmlns="http://www.w3.org/2000/svg" xmlns:xlink="http://www.w3.org/1999/xlink"><style>:root>svg{display:none}:root>svg:target{display:block}</style><svg viewBox="0 0 16 16" id="delete" xmlns="http://www.w3.org/2000/svg"><path d="M2 4h1.333m0 0H14M3.333 4v9.334a1.333 1.333 0 001.334 1.333h6.666a1.333 1.333 0 001.334-1.333V4H3.333zm2 0V2.667a1.333 1.333 0 011.334-1.333h2.666a1.333 1.333 0 011.334 1.333V4m-4 3.333v4m2.666-4v4"/></svg><svg viewBox="0 0 12 13" id="denied" xmlns="http://www.w3.org/2000/svg"><g clip-path="url(#ba)"><path d="M6 8.5v-2m0-2h.005M11 6.5a5 5 0 11-10 0 5 5 0 0110 0z"/></g><defs><clipPath id="ba"><path transform="translate(0 .5)" d="M0 0h12v12H0z"/></clipPath></defs></svg><svg viewBox="0 0 24 24" id="download" xmlns="http://www.w3.org/2000/svg"><path d="M21 15v4a2 2 0 01-2 2H5a2 2 0 01-2-2v-4m4-5l5 5m0 0l5-5m-5 5V3"/></svg><svg viewBox="0 0 16 16" id="edit" xmlns="http://www.w3.org/2000/svg"><g clip-path="url(#da)"><path d="M7.333 2.667H2.667A1.333 1.333 0 001.333 4v9.333a1.333 1.333 0 001.334 1.334H12a1.333 1.333 0 001.333-1.334V8.667m-1-7a1.414 1.414 0 112 2L8 10l-2.667.667L6 8l6.333-6.333z"/></g><defs><clipPath id="da"><path d="M0 0h16v16H0z"/></clipPath></defs></svg><svg viewBox="0 0 30 14" id="footer-bottom" xmlns="http://www.w3.org/2000/svg"><path d="M23.758 3.859c-.442 1.083-1.105 2.166-1.99 3.033a8.306 8.306 0 01-3.094 1.95c-1.215.433-2.43.65-3.867.65a11.59 11.59 0 01-3.867-.65 8.306 8.306 0 01-3.094-1.95c-.885-.867-1.548-1.842-1.99-3.033-.441-1.192-.773-2.384-.773-3.792H0c0 1.95.332 3.792 1.105 5.525.774 1.625 1.768 3.142 3.094 4.333 1.326 1.192 2.873 2.167 4.641 2.925 1.768.65 3.757 1.084 5.857 1.084 2.099 0 4.088-.325 5.856-1.084a12.917 12.917 0 004.641-2.925c1.326-1.191 2.32-2.708 3.094-4.333.773-1.733 1.105-3.575 1.105-5.525H24.31c.11 1.408-.11 2.6-.552 3.792z"/></svg><svg viewBox="0 0 221 52" id="footer-logo" xmlns="http://www.w3.org/2000/svg"><path d="M21.547 13.758c-1.768-.758-3.757-1.191-6.188-1.191H4.088v26.758H9.17v-7.692h6.188c2.43 0 4.53-.433 6.188-1.191 1.768-.759 3.094-1.842 3.978-3.25.884-1.409 1.436-3.142 1.436-5.092 0-1.95-.442-3.683-1.436-5.092-.884-1.408-2.21-2.491-3.978-3.25zm-1.326 12.35c-1.105.975-2.873 1.409-5.083 1.409H9.17V16.9h5.967c2.21 0 3.978.433 5.083 1.408 1.105.867 1.657 2.275 1.657 3.9s-.552 2.925-1.657 3.9zm29.724 4.334c1.768-.759 3.094-1.842 3.978-3.25.884-1.409 1.437-3.142 1.437-5.092 0-1.95-.442-3.683-1.437-5.092-.884-1.408-2.32-2.491-3.978-3.25-1.768-.758-3.757-1.191-6.188-1.191h-11.27v26.758h5.082v-7.8h6.188c.332 0 .663-.108.995-.108l5.635 7.908h5.415l-6.299-8.775c.11 0 .332 0 .442-.108zM48.51 18.2c1.105.867 1.657 2.275 1.657 3.9 0 1.733-.552 3.033-1.657 3.9-1.105.975-2.873 1.408-5.083 1.408H37.57V16.683h5.967c2.21.109 3.868.542 4.973 1.517zm65.414 12.567l-15.028-18.2h-4.199v26.866h4.973v-18.2l15.138 18.2h4.199V12.567h-5.083v18.2zm17.901-2.925h13.15v-4.117h-13.15v-6.933h14.807v-4.225h-19.89v26.866h20.443v-4.225h-15.36v-7.366zm49.173 5.2l-6.961-20.475h-4.641l-7.072 20.366-6.741-20.366h-5.304l9.061 26.866h5.415l6.851-19.825 6.74 19.825h5.415l9.061-26.866h-4.862l-6.962 20.475zm35.03-4.659a6.33 6.33 0 00-2.321-2.166 14.081 14.081 0 00-3.204-1.3c-1.105-.325-2.321-.65-3.536-.867-1.216-.217-2.21-.542-3.205-.867-.994-.325-1.768-.65-2.32-1.191-.553-.542-.884-1.192-.884-1.95 0-.65.221-1.3.552-1.842.442-.542.995-.975 1.879-1.3.884-.325 1.989-.542 3.425-.542 1.216 0 2.431.217 3.757.542 1.326.325 2.542.867 3.757 1.625l1.547-3.9c-1.215-.758-2.652-1.3-4.199-1.733-1.657-.434-3.204-.65-4.862-.65-2.541 0-4.53.325-6.188 1.083-1.657.758-2.873 1.733-3.646 2.925-.774 1.192-1.216 2.6-1.216 4.008 0 1.409.332 2.6.884 3.575A6.33 6.33 0 00198.569 26c.994.542 1.989.975 3.204 1.3 1.105.325 2.321.65 3.426.867 1.105.216 2.21.541 3.204.866.995.325 1.768.65 2.321 1.192.552.542.884 1.192.884 1.95 0 .65-.221 1.3-.663 1.733-.442.542-1.105.975-1.989 1.192-.884.325-1.989.433-3.426.433-1.657 0-3.315-.325-4.972-.866-1.658-.542-2.984-1.3-4.089-2.059l-1.768 3.9c1.105.975 2.652 1.734 4.641 2.275 1.989.65 3.978.867 6.078.867 2.541 0 4.53-.325 6.188-1.083 1.657-.759 2.873-1.734 3.646-2.925.774-1.192 1.216-2.492 1.216-4.009.442-1.191.11-2.383-.442-3.25zM83.095 29.792c-.442 1.083-1.105 2.166-1.989 3.033a8.306 8.306 0 01-3.094 1.95c-1.215.433-2.43.65-3.867.65a11.6 11.6 0 01-3.868-.65 8.306 8.306 0 01-3.094-1.95c-.884-.867-1.547-1.842-1.989-3.033-.442-1.192-.773-2.384-.773-3.792h-5.083c0 1.95.331 3.792 1.105 5.525.773 1.625 1.768 3.142 3.094 4.333 1.326 1.192 2.873 2.167 4.64 2.925 1.769.65 3.758 1.084 5.857 1.084 2.1 0 4.089-.325 5.857-1.084a12.917 12.917 0 004.64-2.925c1.327-1.191 2.321-2.708 3.095-4.333.773-1.733 1.105-3.575 1.105-5.525h-5.083c.11 1.408-.11 2.6-.553 3.792z"/></svg><svg viewBox="0 0 104 24" id="header-logo" xmlns="http://www.w3.org/2000/svg"><path d="M10.14 6.35C9.308 6 8.372 5.8 7.228 5.8H1.924v12.35h2.392V14.6h2.912c1.144 0 2.132-.2 2.912-.55.832-.35 1.456-.85 1.872-1.5.416-.65.676-1.45.676-2.35 0-.9-.208-1.7-.676-2.35-.416-.65-1.04-1.15-1.872-1.5zm-.624 5.7c-.52.45-1.352.65-2.392.65H4.316V7.8h2.808c1.04 0 1.872.2 2.392.65.52.4.78 1.05.78 1.8s-.26 1.35-.78 1.8zm13.988 2c.832-.35 1.456-.85 1.872-1.5.416-.65.676-1.45.676-2.35 0-.9-.208-1.7-.676-2.35-.416-.65-1.092-1.15-1.872-1.5-.832-.35-1.768-.55-2.912-.55h-5.304v12.35h2.392v-3.6h2.912c.156 0 .312-.05.468-.05l2.652 3.65h2.548l-2.964-4.05c.052 0 .156 0 .208-.05zm-.676-5.65c.52.4.78 1.05.78 1.8 0 .8-.26 1.4-.78 1.8-.52.45-1.352.65-2.392.65H17.68V7.7h2.808c1.04.05 1.82.25 2.34.7zm30.784 5.8L46.54 5.8h-1.976v12.4h2.34V9.8l7.124 8.4h1.976V5.8h-2.392v8.4zm8.424-1.35h6.188v-1.9h-6.188v-3.2h6.968V5.8h-9.36v12.4h9.62v-1.95h-7.228v-3.4zm23.14 2.4L81.9 5.8h-2.184l-3.328 9.4-3.172-9.4H70.72l4.264 12.4h2.548l3.224-9.15 3.172 9.15h2.548L90.74 5.8h-2.288l-3.276 9.45zm16.484-2.15c-.26-.4-.624-.75-1.092-1a6.704 6.704 0 00-1.508-.6c-.52-.15-1.092-.3-1.664-.4-.572-.1-1.04-.25-1.508-.4-.468-.15-.832-.3-1.092-.55-.26-.25-.416-.55-.416-.9 0-.3.104-.6.26-.85.208-.25.468-.45.884-.6.416-.15.936-.25 1.612-.25.572 0 1.144.1 1.768.25.624.15 1.196.4 1.768.75l.728-1.8c-.572-.35-1.248-.6-1.976-.8-.78-.2-1.508-.3-2.288-.3-1.196 0-2.132.15-2.912.5-.78.35-1.352.8-1.716 1.35-.364.55-.572 1.2-.572 1.85 0 .65.156 1.2.416 1.65.26.4.624.75 1.092 1 .468.25.936.45 1.508.6.52.15 1.092.3 1.612.4.52.1 1.04.25 1.508.4.468.15.832.3 1.092.55.26.25.416.55.416.9 0 .3-.104.6-.312.8-.208.25-.52.45-.936.55-.416.15-.936.2-1.612.2-.78 0-1.56-.15-2.34-.4a7.5 7.5 0 01-1.924-.95l-.832 1.8c.52.45 1.248.8 2.184 1.05.936.3 1.872.4 2.86.4 1.196 0 2.132-.15 2.912-.5.78-.35 1.352-.8 1.716-1.35a3.26 3.26 0 00.572-1.85c.208-.55.052-1.1-.208-1.5zM39.104 13.75c-.208.5-.52 1-.936 1.4-.416.4-.884.7-1.456.9-.572.2-1.144.3-1.82.3a5.55 5.55 0 01-1.82-.3 3.92 3.92 0 01-1.456-.9c-.416-.4-.728-.85-.936-1.4-.208-.55-.364-1.1-.364-1.75h-2.392c0 .9.156 1.75.52 2.55.364.75.832 1.45 1.456 2s1.352 1 2.184 1.35c.832.3 1.768.5 2.756.5.988 0 1.924-.15 2.756-.5.832-.3 1.56-.75 2.184-1.35.624-.55 1.092-1.25 1.456-2 .364-.8.52-1.65.52-2.55h-2.392c.052.65-.052 1.2-.26 1.75z"/></svg><svg viewBox="0 0 48 48" id="instagram" xmlns="http://www.w3.org/2000/svg"><g clip-path="url(#ha)"><path d="M36.75 0h-25.5C5.037 0 0 5.037 0 11.25v25.5C0 42.963 5.037 48 11.25 48h25.5C42.963 48 48 42.963 48 36.75v-25.5C48 5.037 42.963 0 36.75 0z"/><path d="M36.75 0h-25.5C5.037 0 0 5.037 0 11.25v25.5C0 42.963 5.037 48 11.25 48h25.5C42.963 48 48 42.963 48 36.75v-25.5C48 5.037 42.963 0 36.75 0z"/><path d="M24.002 5.25c-5.092 0-5.732.022-7.732.113-1.996.092-3.358.408-4.55.871a9.18 9.18 0 00-3.322 2.162 9.203 9.203 0 00-2.164 3.322c-.465 1.192-.781 2.555-.871 4.55-.09 2-.113 2.64-.113 7.732 0 5.093.022 5.73.113 7.73.092 1.996.408 3.358.871 4.55a9.186 9.186 0 002.163 3.322 9.182 9.182 0 003.32 2.164c1.193.464 2.556.78 4.552.871 2 .091 2.639.113 7.73.113 5.093 0 5.73-.022 7.73-.113 1.996-.091 3.36-.407 4.553-.871a9.173 9.173 0 003.32-2.164 9.203 9.203 0 002.164-3.321c.46-1.193.777-2.556.87-4.551.09-2 .114-2.637.114-7.73 0-5.092-.023-5.731-.113-7.731-.094-1.996-.41-3.359-.871-4.55a9.202 9.202 0 00-2.164-3.323 9.16 9.16 0 00-3.32-2.161c-1.196-.464-2.56-.78-4.555-.872-2-.09-2.637-.113-7.731-.113h.006zM22.32 8.629h1.682c5.006 0 5.6.018 7.576.108 1.829.083 2.82.389 3.482.646.875.34 1.499.746 2.154 1.402a5.819 5.819 0 011.404 2.156c.256.66.562 1.652.645 3.48.09 1.977.11 2.57.11 7.575 0 5.004-.02 5.598-.11 7.574-.083 1.828-.389 2.82-.645 3.48a5.796 5.796 0 01-1.404 2.155 5.8 5.8 0 01-2.154 1.402c-.66.258-1.654.563-3.482.646-1.976.09-2.57.11-7.576.11-5.007 0-5.6-.02-7.577-.11-1.828-.084-2.82-.39-3.482-.646a5.808 5.808 0 01-2.156-1.403 5.811 5.811 0 01-1.403-2.155c-.257-.66-.563-1.652-.646-3.48-.09-1.977-.108-2.57-.108-7.578 0-5.007.018-5.597.108-7.574.084-1.828.39-2.82.646-3.481.34-.875.747-1.5 1.403-2.157a5.815 5.815 0 012.156-1.403c.661-.258 1.654-.562 3.482-.646 1.73-.078 2.4-.102 5.895-.106v.005zm11.69 3.113a2.25 2.25 0 100 4.502 2.25 2.25 0 000-4.503v.001zm-10.008 2.63c-5.318 0-9.63 4.31-9.63 9.628 0 5.318 4.312 9.627 9.63 9.627A9.626 9.626 0 0033.629 24c0-5.317-4.31-9.629-9.628-9.629zm0 3.378a6.25 6.25 0 110 12.5 6.25 6.25 0 010-12.5z"/></g><defs><radialGradient id="hb" cx="0" cy="0" r="1" gradientUnits="userSpaceOnUse" gradientTransform="matrix(0 -47.5716 44.2453 0 12.75 51.697)"><stop stop-color="#FD5"/><stop offset=".1" stop-color="#FD5"/><stop offset=".5" stop-color="#FF543E"/><stop offset="1" stop-color="#C837AB"/></radialGradient><radialGradient id="hc" cx="0" cy="0" r="1" gradientUnits="userSpaceOnUse" gradientTransform="rotate(78.681 -6.13 -3.176) scale(21.2648 87.654)"><stop stop-color="#3771C8"/><stop offset=".128" stop-color="#3771C8"/><stop offset="1" stop-color="#60F" stop-opacity="0"/></radialGradient><clipPath id="ha"><path d="M0 0h48v48H0z"/></clipPath></defs></svg><svg viewBox="0 0 48 48" id="telegram" xmlns="http://www.w3.org/2000/svg"><g clip-path="url(#ia)"><path d="M24 0A24.007 24.007 0 000 24a24.007 24.007 0 0024 24 24.007 24.007 0 0024-24A24.007 24.007 0 0024 0z"/><path d="M10.864 23.747c6.997-3.048 11.662-5.058 13.995-6.029 6.667-2.772 8.05-3.254 8.955-3.27.198-.003.64.046.93.28.24.196.307.462.34.65.03.186.072.612.038.944-.36 3.795-1.923 13.004-2.718 17.255-.334 1.798-.998 2.401-1.64 2.46-1.394.129-2.452-.92-3.802-1.805-2.11-1.385-3.303-2.247-5.355-3.598-2.37-1.562-.832-2.42.518-3.823.352-.367 6.495-5.952 6.611-6.459.015-.063.03-.3-.112-.424-.14-.125-.345-.082-.495-.048-.214.048-3.585 2.278-10.125 6.69-.957.659-1.823.98-2.603.962-.855-.018-2.505-.484-3.731-.883-1.5-.488-2.696-.747-2.591-1.576.052-.432.648-.875 1.785-1.326z"/></g><defs><linearGradient id="ib" x1="2400" y1="0" x2="2400" y2="4800" gradientUnits="userSpaceOnUse"><stop stop-color="#2AABEE"/><stop offset="1" stop-color="#229ED9"/></linearGradient><clipPath id="ia"><path d="M0 0h48v48H0z"/></clipPath></defs></svg></svg>