<?xml version="1.0" encoding="utf-8"?><svg viewBox="0 0 128 128" xmlns="http://www.w3.org/2000/svg" xmlns:xlink="http://www.w3.org/1999/xlink"><style>:root>svg{display:none}:root>svg:target{display:block}</style><svg viewBox="0 0 128 128" id="about-1" xmlns="http://www.w3.org/2000/svg"><path d="M97.746 85.6c-.66-3.082-3.137-5.173-6.274-5.229h-1.155V64.633c0-2.366-1.211-3.632-3.632-3.632H70.89c-.275 0-.55 0-.826-.055V36.678c.11.055.166.11.22.11 2.422 2.31 4.788 4.622 7.154 6.933.496.496.716 1.046.716 1.761v11.612c0 .77.385 1.21.99 1.21.606 0 .936-.44.936-1.21V45.482c0-1.32-.495-2.366-1.43-3.246-2.917-2.807-5.834-5.668-8.75-8.475-.496-.44-.936-.55-1.596-.33a1699.55 1699.55 0 01-15.299 5.173c-.22.055-.495.11-.77.22v-3.687C52.18 33.32 50.86 32 49.154 32c-1.871 0-3.137 1.266-3.137 3.192v5.173c0 .495-.165.66-.605.825-1.1.33-2.146.715-3.192 1.1-2.366.771-3.357 2.147-3.357 4.678v33.459c-.165.054-.22.054-.275.054-3.962.33-6.989 3.027-7.429 6.99-.275 2.09-.11 4.237-.11 6.383 0 .715.385 1.376 1.046 1.65.605.276 1.32.44 1.98.44 20.252 0 40.448.001 60.699.056 1.486 0 2.586-.495 3.137-1.926v-8.09c-.055-.22-.11-.275-.165-.385zm-58.883-3.247v5.393h-5.778c.165-2.807 2.862-5.393 5.778-5.393zm0 11.556h-4.127c-1.981 0-1.76.11-1.76-1.761v-2.366h5.887v4.127zm9.135-58.937c0-.606.44-.99 1.101-.99.66 0 1.156.384 1.21 1.045.056.605 0 1.21 0 1.816v2.2c0 .166-.11.441-.22.496-.66.275-1.32.495-2.09.715v-5.282zm3.797 58.882h-3.797v-7.21c0-.164.166-.44.33-.494 1.156-.33 2.257-.66 3.467-.99v8.694zm5.779 0h-3.742v-9.245c1.21-.33 2.476-.66 3.742-1.046v10.29zM46.072 56.378c.165.44.496.716.99.66a4.49 4.49 0 00.826-.22c6.494-2.2 12.987-4.347 19.481-6.548.165-.055.385-.11.66-.22v4.677c0 .166-.33.386-.55.44-3.577 1.211-7.209 2.422-10.786 3.633-3.247 1.1-6.438 2.146-9.685 3.246a2.06 2.06 0 00-.605.276c-.386.275-.496.715-.276 1.155.22.495.66.66 1.211.495.715-.22 1.43-.44 2.091-.715 5.943-1.981 11.942-4.017 17.885-5.998.22-.055.385-.11.715-.22v3.356c0 1.596 0 1.596-1.486 2.092-6.438 2.146-12.932 4.347-19.37 6.493-.11.055-.275.055-.385.11-.606.22-.88.716-.716 1.266.165.55.716.77 1.321.55a56.13 56.13 0 003.247-1.1c5.668-1.871 11.281-3.797 16.95-5.668.11-.056.22-.056.384-.11 0 .22.055.385.055.605v3.797c0 .44-.165.66-.55.77-4.127 1.376-8.255 2.752-12.327 4.128-.165.055-.275.11-.44.165-.55.22-.77.715-.605 1.21.165.55.66.826 1.265.606l4.953-1.651c2.366-.826 4.788-1.596 7.154-2.421.165-.056.33-.11.55-.166V93.69h-8.42v-.716c0-3.026-.054-5.998 0-9.025.056-1.816-1.43-2.916-3.08-2.366-2.808.88-5.67 1.596-8.476 2.366-1.43.386-2.036 1.211-2.036 2.642v6.879c0 .055 0 .11-.055.165h-5.118V46.583c0-1.596.44-2.256 1.982-2.752 8.144-2.751 16.233-5.448 24.378-8.199.22-.055.495-.165.825-.22 0 .22.055.33.055.495v4.238c0 .385-.11.55-.495.715-6.714 2.256-13.482 4.512-20.196 6.769-.275.11-.55.165-.77.275-.496.22-.66.66-.496 1.155.165.496.55.716 1.046.66a3.98 3.98 0 00.77-.22c6.439-2.146 12.932-4.347 19.37-6.493.221-.055.441-.165.771-.275v2.916c0 .66.22 1.541-.11 1.982-.33.44-1.21.55-1.816.77-6.328 2.146-12.657 4.292-19.04 6.383-.165.056-.385.11-.55.22-.44.496-.606.881-.496 1.376zm38.356 37.476H70.065v-4.017h14.363v4.017zm0-6.219c0 .055 0 .055-.055.165H70.065V62.983H86.63c1.321 0 1.706.33 1.706 1.706v15.518c0 .44-.11.716-.55.936-2.146 1.21-3.247 3.082-3.357 5.503 0 .385.055.66 0 .99zm3.632-4.237c1.651-1.32 3.522-1.43 5.393-.55 1.816.825 2.642 2.586 2.422 4.953h-9.356c-.44-1.431.22-3.357 1.541-4.403zm7.32 10.51h-8.916v-4.071h9.466v3.466c0 .33-.166.606-.55.606z"/><path d="M47.338 78.17c1.21-.385 2.421-.77 3.632-1.21.33-.11.55-.55.66-.716-.055-.88-.66-1.32-1.32-1.1a90.68 90.68 0 00-3.577 1.21c-.606.22-.826.716-.66 1.21.164.496.66.771 1.265.606zm36.54-5.338h-9.575c-.99 0-1.596.716-1.651 1.651v2.091c0 1.266.605 1.871 1.87 1.871h9.301c.99 0 1.65-.55 1.706-1.485.055-.88.055-1.761 0-2.587-.055-.935-.715-1.54-1.651-1.54zm-.33 3.632h-8.915v-1.65h8.915v1.65zm-8.97-5.448h9.3c.99 0 1.65-.55 1.706-1.54.055-.881.055-1.761 0-2.587-.055-.88-.715-1.486-1.596-1.486h-9.63c-.936 0-1.596.716-1.596 1.651v2.091c-.11 1.266.495 1.871 1.816 1.871zm.055-3.632h8.915v1.651h-8.915v-1.65zm2.861 12.987c-1.045 0-2.146-.055-3.191 0-.936 0-1.596.66-1.596 1.596v2.422c.055.935.66 1.596 1.596 1.596h3.081c.99 0 1.651-.66 1.706-1.596.055-.826.055-1.596 0-2.422 0-.935-.66-1.54-1.596-1.596zm-.385 3.633h-2.476v-1.651h2.476v1.65z"/></svg><svg viewBox="0 0 128 128" id="about-2" xmlns="http://www.w3.org/2000/svg"><path d="M43.98 49.495c.544-.296.84-.148 1.038.445.346.988 1.038 1.482 2.075 1.532h1.483c1.038 0 1.73-.544 2.026-1.532.198-.593.495-.692 1.088-.396.84.445 1.68.346 2.372-.247.445-.395.939-.84 1.334-1.334.593-.692.692-1.483.247-2.323-.296-.593-.197-.89.445-1.087.939-.297 1.483-.988 1.483-2.026v-1.483c0-1.087-.544-1.73-1.532-2.076-.544-.197-.692-.543-.396-1.038.445-.89.346-1.73-.296-2.47-.297-.346-.643-.643-.989-.989-.89-.89-1.63-.988-2.767-.445-.445.198-.791.1-.89-.346-.247-.89-.79-1.383-1.581-1.68H46.6c-.742.297-1.335.692-1.582 1.483-.198.642-.494.74-1.087.444-.84-.395-1.68-.346-2.373.297-.444.395-.89.84-1.285 1.285-.642.692-.692 1.532-.296 2.372.296.593.148.89-.494 1.087-.89.297-1.434.989-1.483 1.977v1.582c0 1.038.494 1.73 1.483 2.075.593.198.741.495.444 1.038-.444.84-.346 1.73.297 2.422.395.445.79.84 1.236 1.235.79.544 1.63.643 2.52.198zm-3.855-6.82c-.05 0-.05-.05-.198-.099v-1.581c0-.1.198-.297.346-.297 1.483-.395 2.274-2.273 1.483-3.608-.099-.148-.05-.395.05-.543.098-.198.345-.346.494-.544.346-.395.642-.593 1.136-.198.247.198.742.198 1.137.149a4.264 4.264 0 001.384-.544c.296-.198.543-.593.741-.939.148-.198.198-.593.297-.593.543-.05 1.136 0 1.68.05.05 0 .099.247.148.395.099.593.445.988.94 1.235.395.149.74.346 1.185.445.297.05.643.05.989 0 .296-.05.692-.395.84-.296.395.247.741.642 1.087 1.037.099.1.05.346-.05.495-.74 1.334.05 3.212 1.483 3.558.149.05.346.148.346.247.05.494.05.988 0 1.483 0 .099-.197.197-.346.247-1.482.395-2.224 2.273-1.482 3.558.099.148 0 .445-.1.642-.098.198-.345.297-.493.495-.346.395-.643.642-1.137.148a.377.377 0 00-.247-.099c-.84-.296-2.768.395-2.916 1.236-.198.988-.741.89-1.433.89h-.692c-.346-1.483-1.78-2.472-3.064-2.126-.099 0-.148.05-.247.05-.247.098-.643.395-.742.296-.444-.296-.79-.741-1.136-1.137-.05-.049 0-.247.05-.345.938-1.582.147-3.361-1.533-3.707zm48.334 34.693c.049-.05.049-.099.098-.148 1.137-1.285 1.434-2.767.692-4.349-.741-1.581-2.075-2.224-3.805-2.174H84.01v-3.065c0-.692-.495-1.136-1.088-.988-.593.099-.79.544-.79 1.087v2.916h-2.965V56.463c-.1-.444-.347-.741-.84-.79-.495-.05-.791.197-.94.642-.05.247-.05.544-.05.79v13.494h-2.42v-6.87c0-2.372-1.483-3.805-3.856-3.805H69.58c-1.68 0-2.52.84-2.52 2.57v8.055c0 .198-.1.544-.198.593-1.236.445-2.422 1.087-3.657 1.186-2.817.198-5.634.05-8.451.05-.149 0-.396-.198-.396-.297-.445-1.73-1.235-2.372-3.014-2.372h-7.265c-1.928 0-3.015 1.038-3.015 2.965v20.411c0 1.878 1.087 2.916 2.965 2.916h7.067c1.977 0 2.768-.593 3.312-2.471 1.581 0 3.212.099 4.793 0 2.768-.198 5.437.198 7.957 1.334.445.198.94.346 1.433.346 5.733 0 11.466.05 17.199 0 2.47 0 4.2-1.927 3.855-4.25-.149-.84-.643-1.581-.989-2.471a3.824 3.824 0 001.038-2.62c0-1.087-.445-2.026-1.186-2.767 1.532-2.323 1.532-3.36-.05-5.733zM52.38 82.854v9.983c0 1.038-.197 1.236-1.235 1.236h-7.117c-.89 0-1.137-.248-1.137-1.137V72.673c0-.89.248-1.136 1.088-1.136h7.314c.89 0 1.087.197 1.087 1.087v10.23zm33.953-4.497c.938.346 1.433 1.037 1.383 1.878-.05.939-.543 1.532-1.383 1.779-.495.148-.84.445-.84.988 0 .544.345.791.84.94.84.296 1.334.889 1.383 1.828.05.79-.445 1.483-1.334 1.828-.494.198-.89.445-.89.989 0 .593.445.79.89.988.84.297 1.285.94 1.285 1.78 0 .79-.396 1.383-1.137 1.73-.296.147-.692.197-1.038.197H68.74c-.297 0-.593-.05-.84-.198-2.966-1.285-6.08-1.779-9.292-1.532-1.433.099-2.866 0-4.349 0V74.205h4.003c.297 0 .643-.05.94 0 3.014.297 5.88-.296 8.648-1.482.79-.346.989-.495.989-1.384v-8.797c0-.642.197-.84.79-.79.494.049 1.038 0 1.582 0 1.087 0 1.779.691 1.779 1.828v7.512c0 1.136.247 1.384 1.384 1.384H85.69c.79 0 1.433.296 1.829.988.395.692.395 1.433-.1 2.076-.246.346-.642.593-1.087.79-.444.198-.84.445-.84.989 0 .593.396.84.84 1.038z"/><path d="M76.796 47.864c.346.247.444.445.444.84v3.806c0 .74.346 1.186.94 1.186.592 0 .938-.396.938-1.186 0-1.483-.049-3.015 0-4.498 0-.741-.247-1.136-.89-1.482-2.025-1.087-3.063-3.213-2.668-5.486.247-1.285.89-2.323 2.076-3.212 0 .939.05 1.779 0 2.619-.1 1.236.395 2.076 1.433 2.669.79.445 1.483.741 2.323.247.988-.593 1.977-1.137 1.878-2.52-.05-.99 0-1.977 0-3.114.197.148.296.198.395.247 2.916 2.224 2.57 6.82-.692 8.55-.692.395-.988.84-.988 1.63.05 5.042 0 10.083 0 15.123 0 .94.296 1.434.939 1.384.642 0 .939-.445.939-1.433v-14.53c0-.346.05-.593.395-.84 2.422-1.581 3.51-3.855 3.163-6.721-.346-2.817-1.927-4.745-4.596-5.733-.939-.346-1.532 0-1.532 1.038V40.5c0 .495-.544 1.187-.94 1.187-.394 0-.938-.643-.938-1.187v-4.003c0-.939-.593-1.383-1.433-1.038-2.62 1.088-4.201 3.064-4.448 5.93-.148 2.768.988 4.943 3.262 6.475zm-17.101-5.189c.346.198.742.346 1.137.494.79.346 1.582.396 2.273-.247.346-.296.643-.198.94.099l1.186 1.186c.346.346.395.642.049 1.038-.494.593-.544 1.285-.297 1.977.1.247.248.543.346.79.297.84.84 1.384 1.78 1.434.444.049.642.296.642.74v1.632c0 .543-.198.79-.741.79-.692.05-1.186.445-1.483 1.088-.148.346-.296.741-.445 1.087-.346.741-.296 1.483.247 2.076.297.346.248.642-.049.988l-1.186 1.186c-.346.346-.643.346-1.038.05-.593-.495-1.285-.593-1.977-.247-.247.098-.543.247-.79.346-.84.296-1.384.84-1.434 1.779-.05.444-.296.593-.692.593-.543 0-1.037-.05-1.581 0-.593.05-.89-.149-.94-.791-.049-.642-.395-1.087-.938-1.384a11.288 11.288 0 00-1.137-.494c-.79-.346-1.482-.297-2.174.247-.346.297-.643.247-.989-.099s-.692-.741-1.087-1.038c-.494-.395-.494-.74-.099-1.285.84-1.087-.099-3.657-1.384-4.052-.098 0-.148-.05-.247-.05-.642-.098-1.087.149-1.186.643-.148.544.05.939.643 1.186.494.198.741 1.087.444 1.532-.642.94-.593 2.076.149 2.916.543.642 1.186 1.236 1.828 1.829.791.691 1.878.74 2.768.148.642-.396 1.483-.05 1.63.642.248 1.088 1.088 1.829 2.175 1.878.791.05 1.582.05 2.373 0 1.136-.05 1.976-.84 2.223-1.927.149-.643.989-1.038 1.582-.643.939.593 2.026.593 2.817-.098.642-.593 1.285-1.187 1.878-1.829.692-.79.741-1.927.148-2.768-.395-.642-.099-1.482.643-1.63 1.136-.248 1.878-1.137 1.927-2.323v-1.977c0-1.433-.692-2.273-2.076-2.57-.494-.099-.89-1.038-.593-1.483.692-1.087.643-2.174-.247-3.113-.543-.544-1.087-1.137-1.63-1.631a2.235 2.235 0 00-2.719-.198c-.692.396-1.384.198-1.73-.494-.197-.445-.543-.593-1.037-.494-.495.099-.692.395-.742.89-.099.642.198 1.235.84 1.58z"/><path d="M57.62 56.315c-2.372.148-4.102-.89-5.19-2.965-.345-.643-.889-.84-1.383-.544-.494.297-.593.791-.247 1.433 1.334 2.57 3.509 3.855 5.88 3.954 5.783.099 9.341-5.634 6.92-10.329a7.152 7.152 0 00-3.41-3.311c-.643-.297-1.137-.148-1.384.346-.247.494-.05.988.494 1.285.148.099.346.148.494.247 1.977 1.087 3.065 3.46 2.57 5.683-.494 2.323-2.47 4.053-4.744 4.201zm-9.786-10.032c2.521 0 4.646-2.175 4.597-4.646a4.685 4.685 0 00-4.596-4.596c-2.471 0-4.646 2.125-4.646 4.596 0 2.57 2.125 4.646 4.645 4.646zm-.049-7.364c1.483 0 2.768 1.235 2.768 2.718 0 1.483-1.236 2.718-2.718 2.718a2.776 2.776 0 01-2.768-2.668c0-1.434 1.236-2.719 2.718-2.768z"/></svg><svg viewBox="0 0 128 128" id="about-3" xmlns="http://www.w3.org/2000/svg"><path d="M92.813 76.72c-.264-2.056-1.477-3.532-3.481-4.165-.58-.159-.686-.422-.686-.95v-15.24c0-.58.106-.792.686-1.003 2.057-.685 3.217-2.162 3.428-4.324.21-2.215-.686-3.902-2.637-5.01-1.793-1.002-4.008-.791-5.643.475-.264.21-.475.422-.738.633-.053-.053-.106-.053-.158-.053-4.694-2.69-9.335-5.38-14.028-8.069-.317-.21-.317-.37-.264-.686.58-2.478-.633-4.904-2.953-5.906-.422-.158-.844-.316-1.266-.422h-1.477c-.105.053-.21.105-.263.105-2.9.686-4.588 3.323-3.956 6.17.106.475 0 .633-.369.845-4.482 2.584-8.965 5.168-13.395 7.752-.422.264-.633.316-1.055-.106-1.53-1.476-3.797-1.793-5.695-.843-1.899.949-3.006 2.847-2.848 5.062.105 2.004 1.53 3.797 3.533 4.43.475.158.633.37.633.844v15.452c0 .475-.105.738-.633.844-2.004.58-3.428 2.426-3.533 4.377-.158 2.215.95 4.113 2.848 5.063 1.898.949 4.113.58 5.695-.791.159-.159.317-.264.475-.422.21.105.37.21.527.263 4.43 2.532 8.86 5.116 13.29 7.647.527.317.844.58.58 1.213-.105.211-.105.475-.105.686-.053 2.162.896 3.797 2.795 4.799 1.846.949 3.744.79 5.432-.475 1.74-1.318 2.373-3.111 1.898-5.274-.105-.422 0-.632.37-.843 2.794-1.582 5.537-3.217 8.332-4.8 1.898-1.107 3.797-2.162 5.695-3.27.211.212.37.37.58.528l.633.475c.475.264 1.002.158 1.266-.264.264-.422.21-.95-.211-1.266-.158-.158-.316-.263-.475-.369-1.16-1.002-1.424-2.584-.738-3.902.686-1.319 2.162-2.004 3.639-1.688 1.424.317 2.478 1.635 2.478 3.112 0 1.213-.527 2.11-1.476 2.795-.686.474-.686 1.37 0 1.635.316.105.844.052 1.16-.159 1.635-1.213 2.373-2.9 2.11-4.904zM64.387 33.74c1.793 0 3.27 1.424 3.27 3.217 0 1.793-1.424 3.27-3.217 3.27a3.286 3.286 0 01-3.27-3.27c0-1.74 1.477-3.164 3.217-3.217zM37.913 50.3c.053-1.74 1.53-3.112 3.27-3.059 1.793.053 3.27 1.53 3.217 3.322-.053 1.793-1.53 3.217-3.322 3.165a3.234 3.234 0 01-3.165-3.428zm3.217 30.323c-1.793 0-3.27-1.424-3.27-3.217a3.252 3.252 0 013.27-3.27 3.286 3.286 0 013.27 3.27c-.053 1.74-1.477 3.165-3.27 3.217zm23.257 13.448c-1.793 0-3.217-1.476-3.217-3.27 0-1.792 1.53-3.216 3.323-3.216 1.74 0 3.217 1.476 3.217 3.27-.053 1.74-1.53 3.216-3.323 3.216zm22.414-22.307c0 .369-.106.58-.528.685-2.69.791-4.219 3.428-3.533 6.17.105.317.053.528-.264.686-4.64 2.69-9.334 5.38-13.975 8.069-.053.053-.106.053-.158.053-3.112-2.374-4.958-2.374-7.858 0-1.793-1.055-3.639-2.11-5.432-3.165-2.848-1.635-5.748-3.322-8.596-4.957-.317-.21-.475-.37-.37-.791.633-2.69-.843-5.326-3.533-6.117-.422-.106-.527-.317-.527-.739v-15.61c0-.422.105-.58.527-.738a5.109 5.109 0 003.534-6.118c-.053-.316-.106-.527.263-.738 4.694-2.69 9.44-5.432 14.187-8.174 1.054 1.107 2.32 1.793 3.902 1.793 1.53 0 2.848-.633 3.903-1.74.158.052.316.158.422.21 4.535 2.637 9.07 5.221 13.606 7.805.422.211.527.422.422.897a4.996 4.996 0 003.533 6.012c.422.105.58.264.58.686-.105 5.379-.105 10.6-.105 15.82zm.896-18.036c-1.793 0-3.27-1.477-3.217-3.27 0-1.793 1.477-3.217 3.27-3.217a3.252 3.252 0 013.27 3.27 3.322 3.322 0 01-3.323 3.217z"/><path d="M80.103 67.597c0-.21 0-.527-.106-.632-.263-.211-.632-.475-.949-.475-.527 0-.791.475-.791.95 0 1.212-.053 2.425 0 3.638 0 .633-.21 1.002-.738 1.266-3.85 2.215-7.647 4.43-11.497 6.592-.158.105-.37.158-.633.316V65.277c0-.58.106-1.002.686-1.266.844-.422 1.687-.949 2.478-1.424.106-.052.264-.105.475-.21V66.7c0 1.477 1.055 2.057 2.32 1.318.844-.474 1.635-.949 2.48-1.424.79-.421 1.16-1.054 1.16-2.004-.053-1.74 0-3.48 0-5.273 0-.211.052-.475.21-.58.95-.58 1.952-1.16 3.006-1.74v5.748c0 .685.422 1.107.95 1.107.527 0 .896-.422.949-1.107v-6.329c0-1.055-.475-1.898-1.371-2.426-4.272-2.478-8.597-4.957-12.868-7.436-.95-.527-1.846-.527-2.795 0-4.272 2.479-8.596 4.958-12.868 7.436-.897.528-1.371 1.319-1.371 2.426V71.29c0 1.055.422 1.846 1.371 2.373 4.324 2.531 8.649 5.01 12.973 7.489.844.474 1.74.474 2.637 0 .527-.264 1.055-.58 1.582-.897l11.233-6.486c1.055-.58 1.582-1.424 1.53-2.637-.053-1.108-.053-2.32-.053-3.534zm-7.014-2.953c0 .106-.106.264-.211.37-.633.368-1.266.738-2.004 1.16v-4.641c0-.106.105-.264.21-.317a90.42 90.42 0 001.952-1.16c.053 1.582.053 3.059.053 4.588zM64.124 48.19c.21-.105.58-.052.738.053 4.113 2.32 8.174 4.694 12.393 7.12-1.108.632-2.057 1.212-3.059 1.74-.105.053-.316 0-.422-.053-4.166-2.373-8.28-4.799-12.393-7.225 0 0 0-.053-.105-.105.949-.475 1.898-1.055 2.848-1.53zm-5.01 2.9c.105-.052.369-.052.527 0 4.166 2.374 8.28 4.8 12.446 7.226l.105.105c-.633.37-1.265.791-1.951 1.108-.106.052-.37 0-.527-.053-4.167-2.373-8.28-4.8-12.552-7.225a15.747 15.747 0 011.952-1.16zm4.377 27.846c0 .053-.053.158-.053.316-.211-.105-.37-.21-.58-.316-3.85-2.215-7.647-4.43-11.497-6.592-.527-.317-.738-.686-.738-1.319V57.683c0-.158 0-.37.053-.633.263.158.474.264.685.37 3.903 2.267 7.805 4.535 11.76 6.802.159.106.37.37.37.528v14.186zm.474-16.401c-4.06-2.32-8.121-4.694-12.182-7.014-.053 0-.053-.053-.105-.159 1.16-.685 2.267-1.318 3.428-1.95.105-.054.263 0 .369.052 4.166 2.373 8.28 4.799 12.446 7.225.052 0 .052.053.105.105-1.055.633-2.11 1.266-3.217 1.793-.21.106-.633.053-.844-.052z"/></svg><svg viewBox="0 0 128 128" id="about-5" xmlns="http://www.w3.org/2000/svg"><path d="M95.751 43.885c-.25-.298-.448-.547-.747-.796-3.337-3.331-6.674-6.713-10.011-10.045a12.891 12.891 0 00-.847-.746c-.1-.1-.249-.199-.348-.298h-38.3c-.05 0-.05 0-.1.05-.1.05-.2.1-.3.1-1.593.497-2.54 1.74-2.59 3.38v.15c0 .447-.049.945 0 1.392.1.796-.298 1.144-.896 1.442-6.026 2.984-9.313 7.907-9.612 14.67 0 .448.05.746.249.995.2.199.548.298 1.046.298h14.792c.996 0 1.295-.348 1.345-1.343V38.365c0-.497-.1-.845-.349-1.044-.199-.199-.548-.298-1.046-.249-.697.05-1.394.1-2.141.2-.349.049-.648.049-.996.099l-.25.05v-1.343c0-1.492.499-2.04 1.993-2.04h35.91v7.609c0 2.387 1.494 3.879 3.835 3.879h7.62V92.17c0 1.344-.548 1.84-1.893 1.84H46.543c-1.394 0-1.942-.546-1.942-1.939V81.978c0-.647-.25-1.094-.697-1.243-.35-.1-.648-.05-.897.099-.299.199-.448.597-.448 1.094v1.84c0 2.834 0 5.719.05 8.603 0 .597.199 1.243.547 1.989.449.945 1.445 1.343 2.391 1.641h47.514c1.345-.448 2.142-1.044 2.59-2.039.1-.199.2-.447.25-.646.05-.1.05-.2.099-.249V44.134c-.05 0-.15-.15-.249-.249zm-48.66-4.674h.25v13.227h-13.2v-.248c.1-2.984 1.495-6.117 3.836-8.554 2.44-2.635 5.678-4.177 9.114-4.425zm41.19 4.276h-2.143c-.946-.05-1.544-.597-1.593-1.442-.05-1.392 0-2.785 0-4.127v-2.139l7.72 7.708H88.28z"/><path d="M56.056 74.07c8.866-1.74 14.643-10.393 12.9-19.245-1.494-7.459-8.069-13.029-15.64-13.228-.597 0-.945.05-1.145.25-.199.198-.298.596-.298 1.193v13.924H37.778c-.498 0-.797.099-.996.298-.2.199-.3.547-.25.994.05.895.1 1.94.3 2.885.846 4.276 3.286 7.956 6.972 10.393 3.636 2.536 7.969 3.431 12.252 2.536zm-2.092-30.334h.25c2.64.1 6.026 1.541 7.77 3.182l.148.15-8.168 8.155V43.736zM38.624 59.25v-.249h13.747c.647 0 1.145-.199 1.593-.646 2.092-2.089 4.234-4.227 6.276-6.316l2.74-2.735c.099-.1.198-.199.298-.348l.15-.149.149-.199.199.2c1.594 1.64 2.79 4.127 3.237 6.762.498 3.034.1 6.017-1.245 8.752-2.44 4.973-7.57 8.106-12.9 8.106-.946 0-1.942-.1-2.888-.298-7.072-1.592-11.057-7.659-11.356-12.88zm29.684 20.539c-.299-.299-.398-.597-.299-1.045.25-1.094.05-2.188-.647-3.033-.648-.845-1.694-1.343-2.79-1.343-1.145 0-2.14.547-2.838 1.442a3.495 3.495 0 00-.498 3.133c.15.448.05.746-.25 1.044-1.444 1.443-2.738 2.686-3.934 3.93-.299.347-.647.397-1.046.248a3.273 3.273 0 00-1.145-.2c-.697 0-1.395.25-2.042.697-1.494 1.094-1.893 3.033-.947 4.625.897 1.541 2.84 2.138 4.483 1.442 1.693-.746 2.49-2.586 1.893-4.326-.15-.448-.05-.746.248-1.045.598-.547 1.146-1.144 1.694-1.69a91.956 91.956 0 012.241-2.189c.2-.198.648-.298.947-.248 1.045.298 1.842.248 2.54-.1.498-.248.796-.05 1.045.2 1.395 1.441 2.74 2.734 3.985 4.027.299.299.398.647.249 1.094-.498 1.442.05 3.083 1.295 3.978 1.195.846 2.889.846 4.084 0 1.295-.944 1.793-2.486 1.295-3.978-.15-.398-.05-.696.249-.994 2.141-2.139 4.333-4.327 6.524-6.564.349-.349.648-.299.947-.25.1 0 .199.05.299.05.647.1 1.294.2 1.842.1.897-.199 1.644-.746 2.142-1.541a3.49 3.49 0 00.398-2.736c-.498-1.89-2.39-3.033-4.233-2.585-.946.248-1.793.845-2.241 1.69a3.571 3.571 0 00-.349 2.686c.15.447.05.795-.299 1.094-2.141 2.088-4.333 4.326-6.524 6.564-.25.248-.548.447-.996.248a2.918 2.918 0 00-2.242 0c-.498.2-.797 0-1.046-.298-1.245-1.392-2.64-2.735-4.034-4.127zm-13.397 9.2c-.847 0-1.495-.747-1.495-1.542 0-.398.2-.746.449-1.044.298-.299.647-.448 1.046-.398.398 0 .747.199 1.045.497.3.298.449.646.399 1.044 0 .796-.648 1.442-1.444 1.442zm9.662-9.648c-.399 0-.797-.15-1.046-.447a1.603 1.603 0 01-.398-1.045c0-.795.647-1.442 1.494-1.442h.05c.398 0 .746.15 1.045.448.25.298.399.646.399 1.044-.05.796-.747 1.442-1.544 1.442zm22.412-5.47c.399 0 .747.15 1.046.448.299.298.399.646.399 1.044 0 .796-.698 1.442-1.495 1.442h-.05c-.398 0-.746-.199-1.045-.497-.3-.299-.399-.647-.399-1.045.05-.746.747-1.392 1.544-1.392zM73.538 86.403c.299-.299.647-.398 1.046-.398.398 0 .747.199 1.046.497.299.298.448.646.398 1.044 0 .796-.697 1.442-1.494 1.442h-.05c-.797 0-1.444-.696-1.444-1.541.05-.398.199-.746.498-1.044zm.697-34.81h14.942c.448 0 .796-.15 1.045-.348.2-.2.25-.448.2-.746-.05-.597-.498-.895-1.295-.945H74.185c-.648 0-.996.249-1.146.796-.05.348 0 .596.15.845.2.249.598.398 1.046.398zm-1.195 5.371c.199.447.548.646 1.145.646h14.992c.199 0 .398-.05.548-.1.448-.149.647-.447.647-.944 0-.448-.2-.796-.647-.945-.25-.1-.548-.1-.797-.1H74.086c-.399 0-.797.2-.947.498a1.085 1.085 0 00-.1.945zm5.28 4.674h-4.135c-.697 0-1.195.447-1.195 1.044s.498.995 1.195.995h6.226c.747 0 1.195-.398 1.245-.995 0-.248-.1-.497-.249-.696-.2-.199-.548-.348-.996-.348h-2.092zm7.072 1.044c0 .249.1.547.298.746.2.199.449.299.698.299.548 0 .996-.498.996-.995 0-.249-.1-.497-.299-.696a.984.984 0 00-.697-.299c-.548-.1-.996.398-.996.945zM43.555 76.159a.98.98 0 00-.697.298c-.2.199-.3.447-.349.696 0 .497.448 1.044.996 1.044.25 0 .498-.1.697-.298.2-.199.3-.448.35-.696.049-.547-.45-1.044-.997-1.044.05 0 .05 0 0 0z"/></svg><svg viewBox="0 0 128 128" id="about-6" xmlns="http://www.w3.org/2000/svg"><path d="M95.95 43.498c-.05-4.728-3.732-8.41-8.41-8.46-8.61-.05-17.618-.05-27.521 0-3.932 0-7.316 2.737-8.162 6.618-.398 1.891-.348 3.882-.249 5.823.05.746.05 1.543.05 2.29 0 .497.498.796.945.845.299 0 .548-.1.697-.248.2-.2.299-.498.349-.896v-5.425c0-1.99.646-3.732 1.94-5.026 1.245-1.244 2.986-1.941 4.977-1.941H87.54c3.434.05 6.37 2.886 6.37 6.22.05 7.267.05 13.786 0 20.007-.05 2.24-1.145 4.08-3.235 5.325-1.194.697-2.538.995-4.18.896-.697-.05-1.195.149-1.643.647-.448.497-.945.995-1.443 1.443-.199.15-.348.348-.547.498-.2.199-.448.398-.697.646l-.796.747v-2.09c0-.896-.05-1.443-.299-1.692-.249-.25-.796-.299-1.692-.299H74.5l-.05-.199c-.995-3.732-1.543-5.076-3.285-7.266-3.085-3.832-7.017-5.922-11.695-6.121-3.533-.15-7.116-.1-10.55-.1h-.548c-1.443 0-2.737.15-3.882.448-5.673 1.443-9.555 4.977-11.545 10.401-.349.896-.498 1.892-.697 2.887-.1.448-.15.896-.249 1.344v2.389c.05.05.05.149.05.248.398 4.18 2.19 7.764 5.325 10.7.249.249.348.647.398.946v2.488c0 1.095 0 2.24.05 3.384 0 .349.199.747.398.996.15.149.298.248.498.248.298 0 .597-.149.945-.448 1.393-1.343 2.538-2.488 3.533-3.583.349-.398.747-.398 1.145-.348l.349.05c.945.149 1.89.348 2.836.348a538 538 0 008.958.05h1.692c2.34 0 4.43-.398 6.27-1.195 4.928-2.09 8.163-5.673 9.606-10.7.299-.995.448-2.04.597-3.185.05-.497.15-.995.249-1.542l.05-.2h4.429v4.131c0 .597.1 1.045.647 1.294.547.249.945 0 1.393-.448l1.344-1.343a50.098 50.098 0 002.787-2.837c.547-.597 1.145-.846 1.94-.846 4.729-.05 8.461-3.782 8.511-8.46 0-6.62 0-13.239-.05-19.46zM72.062 76.194c-1.045 3.434-3.434 6.37-6.668 8.262a13.876 13.876 0 01-6.968 1.841h-1.095c-3.185 0-6.42 0-9.655-.05-1.244-.05-2.488-.298-3.533-.597-.796-.199-1.294-.05-1.791.498a37.52 37.52 0 01-1.394 1.443l-.597.597-.1.1-.448-.2v-3.434c.05-.746-.199-1.343-.846-1.84-2.14-1.792-3.633-4.181-4.429-7.018-1.493-5.375.548-11.546 5.027-14.93 2.587-1.99 5.524-2.986 8.709-2.986h2.24c2.886-.05 5.872-.05 8.858.1 5.275.298 9.306 2.936 11.695 7.714 1.692 3.334 2.04 7.066.995 10.5z"/><path d="M87.739 47.08H65.792c-.548.1-.946.498-.946.996s.398.946.945.995h22.047c.448 0 .796-.099 1.045-.298.25-.2.349-.398.349-.747-.1-.846-1.046-.945-1.493-.945zm-8.659 8.113h8.609c.249 0 .547 0 .796-.1.547-.199.647-.597.647-.945 0-.448-.199-.797-.647-.946-.249-.1-.547-.1-.746-.1H70.37c-.199 0-.448 0-.647.05a.96.96 0 00-.746.946.96.96 0 00.746.946c.2.05.498.05.697.05h6.818l1.841.099zm-1.543 6.022h10.301c.448 0 .846-.15 1.046-.349.149-.199.248-.398.248-.697 0-.646-.497-.995-1.294-.995H77.486c-.746 0-1.144.349-1.194.946 0 .298.05.547.25.697.248.298.596.398.995.398zM60.168 49.121c.498 0 .995-.448 1.045-.995 0-.498-.448-.995-.995-1.045-.498 0-.996.497-.996.995 0 .249.1.498.299.697.1.249.398.348.647.348zm-6.569 16.025c-2.04-.199-3.982 1.344-4.33 3.434-.1.547-.05.995.15 1.294.149.2.348.348.646.398.299.05.548 0 .747-.199.199-.199.348-.597.448-1.095.149-.945.896-1.642 1.89-1.742h.15c.796 0 1.642.548 1.941 1.294.348.896.05 1.941-.697 2.439-.249.15-.497.249-.697.348-.099.05-.149.05-.248.1-.498.199-1.095.597-1.195 1.343-.1.946-.05 1.941 0 2.837.05.548.498.846.946.846.497 0 .896-.348.995-.846.05-.497.05-.995.05-1.443-.05-.547.15-.896.697-1.145 1.443-.647 2.289-1.841 2.389-3.334-.05-2.439-1.593-4.33-3.882-4.529zM53.3 78.882c-.547 0-.995.497-.995.995 0 .249.1.498.298.697.2.199.448.299.697.299a.98.98 0 00.697-.3.983.983 0 00.298-.696c0-.498-.448-.995-.995-.995z"/></svg><svg viewBox="0 0 16 16" id="arrow-down" xmlns="http://www.w3.org/2000/svg"><path d="M6 13l4-4-4-4"/></svg><svg viewBox="0 0 16 16" id="chevron-down" xmlns="http://www.w3.org/2000/svg"><path d="M4 6l4 4 4-4"/></svg><svg viewBox="0 0 16 16" id="fax" xmlns="http://www.w3.org/2000/svg"><path d="M15.248 7.302L13.25 5.525V2.793L10.957.5H4.75v4H2.5a.75.75 0 00-.75.75v9.5a.751.751 0 00.75.75h13V7.862a.75.75 0 00-.252-.56zM4.75 14.5h-2v-9h2v9zm5.5-13h.293l1.707 1.707V3.5h-2v-2zm-4.5 0h3.5v3h3v2.25h-6.5V1.5zm8.75 13H5.75V7.75h7.5v-.887l1.25 1.112V14.5z"/><path d="M7.25 10.75h1v1h-1v-1zm2 0h1v1h-1v-1zm-2 2h1v1h-1v-1zm2 0h1v1h-1v-1zm2-2h1v1h-1v-1zm0 2h1v1h-1v-1zm-4-4h5v1h-5v-1z"/></svg><svg viewBox="0 0 80 81" id="leasing-1" xmlns="http://www.w3.org/2000/svg"><path d="M58.06 47.471c-.35.107-.693.23-1.04.345-4.033 1.343-8.067 2.684-12.1 4.03-.467.155-.935.236-1.3.166 0-.726.114-1.414-.031-2.043-.146-.629-.55-1.196-.83-1.771 4.034-2.322 5.714-5.836 4.946-10.562h.488c3.471 0 6.943.004 10.414-.003 1.646-.003 2.956-1.194 2.968-2.77.028-3.429.021-6.859.002-10.289-.006-1.248-.883-2.341-2.089-2.657-.374-.098-.776-.107-1.167-.119-.584-.02-1.167-.004-1.783-.004 0-.301.007-.54 0-.776-.038-1.15-.921-2.07-2.066-2.09a125.65 125.65 0 00-4.512.002c-1.118.023-2.004.954-2.04 2.073-.007.248 0 .499 0 .79h-1.931c-1.908.004-3.116 1.205-3.118 3.101-.003 2.039 0 4.076-.001 6.114 0 .144-.013.289-.022.473-2.03-1.024-4.107-1.27-6.31-.831.047-.207.09-.364.116-.525.134-.802.343-1.601.379-2.41.077-1.753.071-3.51.087-5.267.01-1.098-.506-1.617-1.596-1.688-1.733-.114-3.39-.45-4.802-1.576-.52-.414-1.158-.363-1.714.072-.663.52-1.392.916-2.21 1.09a27.07 27.07 0 01-2.656.415c-.8.088-1.419.605-1.412 1.398.02 2.092-.059 4.199.169 6.271.464 4.229 2.477 7.457 6.561 9.194a9.274 9.274 0 00-.15 3.624c.192 1.215.618 2.348 1.23 3.442-1.324-.582-2.707-.601-4.097-.587-.121.002-.29-.137-.359-.255-.423-.724-1.028-1.153-1.875-1.166-1.236-.018-2.473-.005-3.71-.002-.53.001-1.024.165-1.368.556-.296.337-.488.766-.727 1.154v15.94c.26.92.853 1.509 1.772 1.771h4.385c.299-.148.64-.247.884-.457.264-.228.528-.27.844-.27 5.734.005 11.47-.004 17.204.01 1.288.003 2.458-.31 3.557-.987 3.182-1.954 6.377-3.888 9.568-5.83 1.235-.752 2.48-1.489 3.702-2.263 1.177-.746 1.585-2.166 1.016-3.395-.577-1.247-1.938-1.848-3.276-1.438zM24.886 59.783c0 .611-.268.877-.875.88-1.095.005-2.19.004-3.286 0-.627-.003-.882-.267-.883-.911-.002-2.458-.001-4.915-.001-7.373V45.09c0-.756.22-.974.977-.977 1.067-.002 2.134-.004 3.202.002.61.003.865.26.865.878.005 4.931.005 9.86.002 14.79zm24.48-38.78a.687.687 0 01.707-.643 240.52 240.52 0 014.331.001c.412.005.672.291.695.698.014.222.003.446.003.71h-5.74c-.001-.268-.02-.519.003-.765zm-5.057 3.88c0-1.084.576-1.653 1.673-1.654 2.08-.002 4.16 0 6.239 0h6.239c1.124.001 1.688.561 1.69 1.679v9.611c0 1.101-.564 1.677-1.65 1.677-3.64.002-7.279-.002-10.918.005-.267 0-.42-.055-.542-.325-.57-1.26-1.405-2.324-2.45-3.232a.888.888 0 01-.271-.596c-.017-2.388-.013-4.776-.01-7.165zm-6.999 7.095c.415-.064.837-.085 1.255-.126 3.78.046 7.036 2.702 7.75 6.343.74 3.783-1.247 7.498-4.79 8.918-.223.089-.505.06-.757.042-.445-.035-.888-.146-1.332-.154a116.06 116.06 0 00-3.54-.003 2.48 2.48 0 01-1.317-.36c-2.844-1.658-4.422-5.014-3.83-8.174.64-3.422 3.21-5.965 6.561-6.486zm-7.196 3.788c-.067.138-.136.273-.219.441-.94-.337-1.75-.852-2.481-1.493-1.762-1.546-2.631-3.56-3.027-5.82-.328-1.868-.21-3.753-.235-5.633-.005-.335-.001-.67-.001-1.037 2.075-.156 4.067-.5 5.75-1.864 1.678 1.334 3.667 1.725 5.79 1.864-.072 2.808.25 5.587-.64 8.284-.152.462-.353.775-.82 1.012-1.85.94-3.21 2.38-4.117 4.247zm29.392 15.355c-1.087.671-2.181 1.33-3.272 1.995-3.298 2.01-6.6 4.01-9.89 6.03a5.172 5.172 0 01-2.79.796c-5.579-.012-11.158-.005-16.737-.005h-.469V45.59c1.784-.172 3.449.072 4.893 1.215.976.773 2.072 1.293 3.302 1.496.469.077.949.116 1.424.123 1.25.018 2.502-.008 3.752.015 1.181.023 2.285.869 2.504 1.896.048.228.06.478.026.71-.119.815-.325.98-1.135.983-1.32.006-2.642-.015-3.963.03-1.508.05-2.83.652-4.031 1.533-.333.244-.405.653-.203.97.215.34.615.428.996.217.11-.06.215-.133.318-.206 1.08-.761 2.275-1.12 3.599-1.108 1.826.016 3.654-.014 5.48.012a7.55 7.55 0 002.56-.42 2315.31 2315.31 0 0112.416-4.144c.27-.088.582-.138.86-.1.516.068.907.503.984 1.024.082.56-.152.992-.624 1.284z"/><path d="M38.543 40.509c.775.036 1.36.551 1.444 1.274a1.443 1.443 0 01-1.035 1.545c-.874.26-1.733-.344-1.827-1.287-.056-.547-.327-.825-.778-.796-.443.028-.7.352-.653.898.099 1.168.706 1.99 1.777 2.452.223.097.362.189.418.448.073.345.353.507.691.498.32-.009.592-.181.644-.506.044-.281.208-.352.424-.441a2.85 2.85 0 001.78-2.628c.009-1.59-1.196-2.815-2.842-2.891-.852-.04-1.457-.63-1.464-1.428a1.416 1.416 0 011.35-1.444c.82-.037 1.435.514 1.521 1.36.056.537.338.812.795.771.426-.038.681-.362.635-.875-.106-1.18-.713-2.016-1.803-2.484-.203-.087-.349-.153-.393-.415-.057-.344-.333-.522-.675-.52-.339.003-.61.177-.671.525-.044.257-.19.33-.398.413a2.864 2.864 0 00-1.695 3.448c.34 1.21 1.408 2.02 2.755 2.083zm13.683-5.752c2.764.003 5.053-2.286 5.048-5.05-.005-2.764-2.3-5.05-5.059-5.038-2.767.011-5.047 2.312-5.025 5.07.019 2.756 2.287 5.015 5.036 5.018zm.033-8.646c1.982.027 3.59 1.657 3.574 3.62-.017 1.972-1.646 3.59-3.61 3.585a3.62 3.62 0 01-3.592-3.6c-.002-1.988 1.653-3.633 3.628-3.605zm-19.028-2.006c-.332-.252-.764-.17-1.063.217-.343.444-.674.897-1.011 1.345l-2.779 3.704c-.287-.309-.516-.577-.767-.82-.36-.347-.779-.354-1.078-.039-.285.3-.27.706.063 1.05.428.443.865.88 1.309 1.31.428.413.85.386 1.214-.096 1.404-1.858 2.8-3.722 4.194-5.587.296-.4.253-.831-.082-1.084z"/><path d="M50.99 30.435c.162.003.324 0 .496 0 .077.61-.146 1.404.736 1.41.908.005.676-.813.764-1.412.196 0 .374.005.553 0 .531-.018.856-.3.848-.733-.008-.42-.32-.688-.83-.708-.189-.006-.38 0-.583 0-.058-.62.14-1.401-.735-1.41-.915-.01-.673.813-.752 1.41-.179 0-.33-.003-.48 0-.606.008-.935.27-.927.733.01.447.33.698.91.71z"/></svg><svg viewBox="0 0 80 81" id="leasing-2" xmlns="http://www.w3.org/2000/svg"><path d="M52.006 52.639c-.099-.716-1.24-.755-1.385-.048-.156 2.398-.012 4.828-.06 7.236 0 .91-.208 1.116-1.126 1.116h-28.84c-.907 0-1.118-.213-1.118-1.13V20.605c0-.904.217-1.12 1.13-1.12H49.45c.906 0 1.112.21 1.112 1.13.058 4.576-.111 9.176.065 13.742.156.68 1.255.646 1.375-.042.12-4.587.007-9.195.04-13.788.09-1.415-.87-2.55-2.429-2.518-9.715-.006-19.43.006-29.144-.004-1.222-.085-2.093.714-2.468 1.82V60.6c.274.94.882 1.548 1.822 1.822h30.45c1.395-.469 1.83-1.486 1.789-2.89-.097-2.294.055-4.602-.055-6.892z"/><path d="M61.775 30.896c2.141-3.747-2.479-5.57-3.871-2.263-.607-.203-.93.101-1.201.582-.544.968-1.117 1.918-1.682 2.882-.56-.225-1.154-.852-1.62-.085-.502.827.38 1.036.849 1.404-2.106 3.821-4.486 7.5-6.46 11.387-.685 1.745-1.229 3.544-2.169 5.185-.366.64-.295 1.334.028 2 .317.446-1.199 1.757-1.502 2.273-.568-1.967-2.036-3.06-3.39-.972-.095-1.026-.154-1.984-.279-2.997-.159-1.48-2.363-1.681-2.815-.305a346.231 346.231 0 00-1.841 5.5c-.12.366-.009.687.347.888.463.262.89.06 1.087-.531.577-1.684 1.103-3.386 1.7-5.063.3.799.166 1.728.304 2.576.15 1.861 2.267 2.006 3.048.409.425 1.594 1.706 2.941 3.093 1.35.533-.504 1.178-1.87 1.854-1.987 2.101.266 2.732-2.08 3.888-3.355 3.413-4.031 5.544-8.919 8.303-13.392 1.164.577 1.238.814.623 1.88-.86 1.489-1.72 2.976-2.577 4.466-.302.526-.24.942.155 1.178.39.234.812.078 1.105-.428.935-1.612 1.87-3.222 2.791-4.843.894-1.483.064-2.856-1.375-3.537.575-.997 1.11-1.955 1.674-2.895.285-.474.382-.904-.067-1.307zm-14.08 20.748c-1.087-.192-.803-1.018-.315-1.704l1.29.73c-.28.43-.385.986-.976.974zm1.76-2.237c-.49-.287-.962-.561-1.46-.851l1.048-2.81 2.328 1.348-1.915 2.313zm2.765-3.53L49.658 44.4l5.92-10.258 2.562 1.48-5.92 10.257zm6.66-11.54l-2.561-1.475 1.48-2.561 2.56 1.479-1.478 2.558zm1.582-4.215l-1.287-.733c.287-.423.379-.993.978-.975 1.085.18.816 1.029.309 1.708zM44.778 23.9c.361-.06.562-.304.588-.654.083-.649-.6-.836-1.126-.798-4.598-.004-9.194-.003-13.792-.003-1.604 0-3.21-.004-4.814.002-.711.002-.962.26-.966.972-.004.78-.001 1.562-.001 2.342 0 .943.188 1.128 1.15 1.13 6.315-.028 12.638.053 18.95-.032.388-.058.588-.321.599-.686.011-.364-.175-.642-.558-.718-6.207-.134-12.43-.005-18.642-.048v-1.482c6.205-.024 12.412.047 18.612-.025zM20.992 53.753c.719 7.771 12.46 7.288 12.542-.478.048-1.06-1.411-1.116-1.473-.074-.016 2.794-2.575 5.128-5.3 4.751-6.167-.737-5.33-9.841.694-9.581.95.043 1.802.355 2.59.881.977.7 1.817-.644.775-1.25-1.067-.73-2.246-1.098-3.695-1.12-3.519.021-6.564 3.349-6.133 6.871zM46.577 33.55c-5.23-.003-10.459-.003-15.689 0-.509-.034-1.102.207-1.021.811.023.572.595.71 1.07.665 2.586.002 5.171 0 7.757 0 2.771-.023 5.551.047 8.319-.026 1.041-.27.544-1.63-.436-1.45zm-7.716 5.889c1.068-.316.626-1.64-.591-1.447-4.743 0-9.485-.006-14.227.001-.537.03-.84.297-.845.735-.05.617.659.805 1.221.747h6.854c2.528-.03 5.065.061 7.588-.036zm3.199-11.062H35c-2.325 0-4.65-.001-6.976.001-.502-.038-1.13.098-1.12.709-.06.627.594.81 1.107.771 4.68.003 9.358.003 14.038.002 1.476.114 1.498-1.593.013-1.483zM27.589 43.17c1.214-.001 2.428.005 3.642-.004 1.13.014 1.067-1.553-.083-1.472-2.342-.004-4.682-.004-7.024 0-.59 0-.926.277-.927.74 0 .47.326.734.923.735 1.157.003 2.313 0 3.469 0z"/><path d="M27.048 53.833c-.717-.536-1.675-2.437-2.597-1.597-.822.896 1.133 2.006 1.65 2.662.825.78 1.887.223 2.496-.543.674-.672 1.367-1.328 2.004-2.034.389-.428.277-1.17-.356-1.273-.913.046-2.332 2.075-3.197 2.785zm19.622-15.84c-1.738.047-3.507-.106-5.23.064-.647.188-.622 1.224.04 1.368.91.119 1.848.021 2.766.05.907-.01 1.82.031 2.724-.034 1.024-.142.66-1.604-.3-1.448zm-12.245 5.175c.808.007 1.617.002 2.425.002.822 0 1.646.005 2.469-.002 1.158.053 1.16-1.5.028-1.472a483.79 483.79 0 00-4.938 0c-1.139-.035-1.139 1.518.016 1.472z"/></svg><svg viewBox="0 0 16 16" id="mail" xmlns="http://www.w3.org/2000/svg"><path d="M14.666 4c0-.733-.6-1.333-1.333-1.333H2.666c-.733 0-1.333.6-1.333 1.333m13.333 0v8c0 .733-.6 1.333-1.333 1.333H2.666c-.733 0-1.333-.6-1.333-1.333V4m13.333 0L8 8.667 1.333 4"/></svg><svg viewBox="0 0 16 16" id="map" xmlns="http://www.w3.org/2000/svg"><g clip-path="url(#la)" stroke-width="1.5" stroke-linecap="round" stroke-linejoin="round"><path d="M14 6.667c0 4.666-6 8.666-6 8.666s-6-4-6-8.666a6 6 0 1112 0z"/><path d="M8 8.667a2 2 0 100-4 2 2 0 000 4z"/></g><defs><clipPath id="la"><path d="M0 0h16v16H0z"/></clipPath></defs></svg><svg viewBox="0 0 16 16" id="payment" xmlns="http://www.w3.org/2000/svg"><path d="M10.5 9.667a.5.5 0 000 1h1.666a.5.5 0 000-1H10.5zM1.333 5.5A2.167 2.167 0 013.5 3.333h9A2.167 2.167 0 0114.666 5.5v5a2.166 2.166 0 01-2.166 2.167h-9A2.167 2.167 0 011.333 10.5v-5zm12.333.833V5.5A1.167 1.167 0 0012.5 4.333h-9A1.167 1.167 0 002.333 5.5v.833h11.333zm-11.333 1V10.5c0 .644.523 1.167 1.167 1.167h9a1.167 1.167 0 001.166-1.167V7.333H2.333z"/></svg><svg viewBox="0 0 16 16" id="people" xmlns="http://www.w3.org/2000/svg"><path d="M2 5.5a3.5 3.5 0 115.898 2.549 5.508 5.508 0 013.034 4.084.749.749 0 11-1.482.235 4 4 0 00-7.9 0 .75.75 0 11-1.482-.236A5.507 5.507 0 013.102 8.05 3.493 3.493 0 012 5.5zM11 4a3.001 3.001 0 012.22 5.018 5.01 5.01 0 012.56 3.012.749.749 0 11-1.434.44 3.507 3.507 0 00-2.522-2.372.75.75 0 01-.574-.73v-.352a.75.75 0 01.416-.672A1.5 1.5 0 0011 5.5.75.75 0 0111 4zm-5.5-.5a2 2 0 10-.09 4 2 2 0 00.09-4z"/></svg><svg viewBox="0 0 16 16" id="phone" xmlns="http://www.w3.org/2000/svg"><g clip-path="url(#oa)"><path d="M14.667 11.28v2a1.332 1.332 0 01-1.454 1.333 13.194 13.194 0 01-5.753-2.046 13 13 0 01-4-4 13.193 13.193 0 01-2.047-5.78A1.333 1.333 0 012.74 1.333h2A1.333 1.333 0 016.073 2.48a8.56 8.56 0 00.467 1.873 1.333 1.333 0 01-.3 1.407l-.847.847a10.667 10.667 0 004 4l.847-.847a1.334 1.334 0 011.407-.3 8.56 8.56 0 001.873.467 1.334 1.334 0 011.147 1.353z"/></g><defs><clipPath id="oa"><path d="M0 0h16v16H0z"/></clipPath></defs></svg><svg viewBox="0 0 80 81" id="service-1" xmlns="http://www.w3.org/2000/svg"><path d="M58.214 47.256c-.137-.2-.148-.34-.004-.547.483-.693.944-1.404 1.414-2.108.643-.963.506-1.296-.645-1.488.122-.194.233-.38.351-.563.888-1.366.89-2.732-.007-4.094-.35-.533-.7-1.066-1.071-1.585-.542-.759-.718-1.595-.634-2.514.067-.725.11-1.454.118-2.182.015-1.233-.515-2.191-1.575-2.822a13.182 13.182 0 00-1.735-.886c-1.151-.472-1.921-1.274-2.404-2.416a13.174 13.174 0 00-1.049-1.954c-.462-.723-1.15-1.21-2.017-1.254-.944-.05-1.896-.008-2.84.053-.892.058-1.702-.099-2.443-.616a32.787 32.787 0 00-1.923-1.264c-1.15-.684-2.327-.69-3.479-.006-.637.378-1.254.792-1.858 1.221-.783.556-1.637.747-2.584.657a22.379 22.379 0 00-2.26-.113c-1.492.01-2.427.86-3.042 2.135-.144.3-.051.57.233.74.29.174.555.096.759-.162.096-.121.168-.263.243-.4.436-.795 1.106-1.19 2.013-1.152.754.031 1.508.082 2.261.13 1.006.064 1.939-.15 2.782-.714.617-.412 1.232-.825 1.852-1.231.887-.582 1.78-.583 2.668 0 .576.38 1.152.758 1.719 1.15.94.652 1.98.884 3.11.785.673-.06 1.35-.089 2.026-.121.941-.046 1.633.361 2.07 1.19.278.529.559 1.058.795 1.606.548 1.27 1.445 2.165 2.716 2.715.63.274 1.24.602 1.835.946.65.376.952.979.957 1.724.003.39.02.787-.043 1.17-.305 1.86.035 3.537 1.276 5.007.298.354.52.777.748 1.184.38.677.388 1.374.001 2.047-.29.507-.622.99-.947 1.476-.05.073-.16.148-.245.15-.542.013-1.085.007-1.643.007V41.08c.17 0 .323.01.475-.002.347-.029.58-.256.571-.57-.01-.33-.185-.537-.52-.579-.166-.02-.337-.016-.506-.017-.371-.002-.744-.001-1.133-.001a14.884 14.884 0 00-1.659-6.2c.44-.254.844-.484 1.245-.723.396-.235.514-.552.332-.868-.181-.317-.513-.372-.916-.146-.415.233-.826.471-1.247.711-.096-.14-.164-.25-.243-.352-.371-.485-.733-.979-1.124-1.448-.24-.288-.576-.299-.83-.08-.251.215-.271.536-.05.838.039.053.085.1.126.15 1.422 1.68 2.39 3.59 2.867 5.737.17.765.246 1.55.368 2.348H26.59c0-.082-.003-.132 0-.182a13.516 13.516 0 011.707-5.787c2.762-4.948 8.52-7.658 14.072-6.636 2.1.386 3.996 1.21 5.705 2.484.372.278.708.254.926-.041.219-.297.14-.624-.231-.9-.31-.23-.629-.452-.947-.68.266-.464.531-.897.766-1.345.218-.416-.037-.912-.47-.869-.205.02-.448.199-.575.377-.282.396-.5.836-.75 1.267-1.966-1.036-4.018-1.55-6.206-1.669 0-.538.013-1.031-.003-1.523-.014-.448-.322-.704-.707-.614-.336.078-.455.32-.457.638-.003.49 0 .98 0 1.498-2.218.115-4.27.667-6.206 1.668-.26-.45-.49-.857-.73-1.259-.232-.39-.557-.504-.871-.314-.302.183-.36.504-.147.886.233.419.475.832.731 1.281a15.013 15.013 0 00-4.543 4.536c-.442-.256-.836-.486-1.231-.71-.424-.24-.763-.183-.943.151-.171.32-.047.624.355.86.402.235.806.467 1.237.716-1.022 1.955-1.556 4.014-1.676 6.21-.532 0-1.026-.008-1.518.002-.381.008-.62.226-.635.55-.017.337.223.576.618.612.139.012.278.016.428.023v2.045h-.438c-1.44 0-1.42-.012-2.186-1.224-.62-.98-.634-1.92.019-2.876.366-.538.723-1.082 1.093-1.617.643-.93.877-1.955.78-3.073-.055-.61-.075-1.222-.126-1.831-.096-1.156.404-1.948 1.438-2.437.635-.299 1.29-.57 1.881-.942.53-.334 1.012-.762 1.464-1.2.262-.255.182-.62-.082-.823-.252-.195-.587-.182-.8.094-.455.592-1.095.904-1.737 1.223-.582.29-1.174.562-1.734.89-.962.564-1.518 1.413-1.58 2.54-.029.505-.036 1.021.041 1.518.244 1.559-.003 2.96-1.057 4.2A6.157 6.157 0 0020 40.031v.937l.948 2.184c-.385-.056-.747.054-.948.472v.39c.603.908 1.21 1.813 1.805 2.726.063.097.11.287.058.365-.61.93-1.239 1.848-1.863 2.769v.468c.218.36.539.5.953.458.142-.015.287.007.429-.004.853-.065 1.601.02 2.288.697.488.48 1.212.75 1.868 1.022 1.16.482 1.958 1.271 2.44 2.43.268.645.606 1.268.977 1.86.608.97 1.532 1.428 2.664 1.425.74-.002 1.482-.046 2.22-.116.933-.088 1.784.085 2.546.646.136.1.283.185.42.284.845.607 1.701 1.193 2.728 1.456h.937c1.041-.268 1.907-.862 2.762-1.478.127-.09.263-.168.389-.261.76-.565 1.613-.733 2.547-.647.764.07 1.533.119 2.3.111 1.051-.01 1.922-.443 2.518-1.33.282-.418.527-.866.747-1.32 1.098-2.269 1.093-2.271 3.38-3.355.708-.335 1.393-.703 1.926-1.303.071-.08.228-.113.346-.116.585-.012 1.172-.01 1.757-.003.318.004.6-.054.772-.352.184-.322.052-.593-.134-.866-.525-.766-1.034-1.552-1.566-2.324zm-32.708-6.135H54.49v5.267h-.493c-7.16 0-14.32 0-21.481.002-.181 0-.369 0-.54.048-.286.08-.427.302-.398.593.028.288.2.48.499.516.154.019.312.013.468.013h18.93c-2.882 4.292-6.799 6.48-11.849 6.347-4.737-.124-8.402-2.31-11.089-6.347.33 0 .557.004.784-.001.43-.01.684-.229.68-.582-.001-.351-.256-.582-.686-.585-1.12-.009-2.239-.004-3.359-.004h-.449v-5.267zm-3.882 8.492c.36-.542.691-1.046 1.027-1.547.783-1.165.778-1.012.001-2.171-.332-.495-.66-.992-1.02-1.53h2.677c0 .814-.002 1.606.001 2.398.002.608.186.793.79.796.44.003.879 0 1.349 0v2.055l-4.825-.001zm33.267 1.425c-.22.111-.438.233-.67.318-1.634.608-2.743 1.728-3.372 3.355-.19.493-.468.956-.742 1.412-.386.645-.984.957-1.73.946a21.54 21.54 0 01-2.026-.104c-1.333-.148-2.521.172-3.598.968-.48.355-.985.679-1.49.998-.842.533-1.694.53-2.533-.005a70.47 70.47 0 01-1.818-1.21c-.908-.621-1.91-.853-2.999-.767-.713.056-1.428.096-2.143.126-.89.038-1.567-.341-1.99-1.123-.363-.674-.7-1.364-1.032-2.055a4.468 4.468 0 00-2.17-2.155c-.582-.277-1.162-.562-1.726-.936h1.882c.754 0 .913-.16.914-.916.001-.456.002-.912.005-1.367 0-.02.02-.042.057-.114a14.763 14.763 0 004.48 4.45c-.258.451-.501.865-.734 1.285-.208.374-.14.706.167.881.307.175.626.067.846-.301.246-.412.482-.83.74-1.275 1.941 1 3.984 1.548 6.207 1.654l.001 1.093c.001.182-.006.366.015.546.037.335.247.521.575.519.329-.002.551-.192.565-.527.022-.519.006-1.039.006-1.62 2.187-.125 4.25-.637 6.216-1.67.258.445.487.851.725 1.253.233.393.555.51.87.323.313-.185.365-.513.138-.919-.228-.406-.463-.808-.711-1.239 1.809-1.165 3.295-2.634 4.54-4.412v1.452c.002.737.163.903.887.904h2.02c-.188.119-.276.184-.372.232zm-1.338-1.423v-2.056c.479 0 .932.003 1.384-.001.556-.005.755-.198.758-.749.004-.806 0-1.611 0-2.447h2.673c-.157.24-.3.46-.447.682l-.866 1.298c-.38.567-.38.705-.009 1.262.368.55.736 1.103 1.103 1.655.069.103.128.214.213.356h-4.81z"/><path d="M43.314 34.691c.601-.41 1.184-.847 1.773-1.277.524-.384.691-.808.52-1.304-.158-.458-.526-.686-1.145-.69-.742-.005-1.484-.018-2.225.006-.308.01-.43-.104-.513-.383-.215-.722-.458-1.435-.695-2.151-.183-.549-.516-.817-1.004-.825-.51-.007-.856.26-1.043.825-.246.74-.492 1.48-.72 2.224-.068.223-.168.319-.41.307-.402-.018-.806-.005-1.21-.005-.377.001-.754-.004-1.132.002-.592.01-.982.267-1.119.728-.142.479.021.887.505 1.242.609.446 1.215.895 1.835 1.325.216.15.276.284.183.545-.258.722-.484 1.454-.717 2.185-.176.555-.051 1 .349 1.29.405.293.837.269 1.331-.087.635-.456 1.269-.91 1.894-1.38.175-.13.297-.134.476 0 .623.47 1.259.923 1.894 1.377.498.357.923.381 1.33.087.396-.287.521-.737.345-1.291-.229-.718-.447-1.44-.706-2.147-.112-.292-.037-.438.204-.602zm-1.007-.705c-.479.357-.605.727-.428 1.293.223.716.459 1.428.69 2.142l-.066.048c-.567-.411-1.132-.825-1.7-1.235-.624-.45-.972-.45-1.587-.005L37.4 37.545l.679-2.111c.243-.754.142-1.071-.498-1.54-.554-.406-1.11-.809-1.73-1.26.163-.022.256-.044.35-.044.597-.003 1.195 0 1.794-.002.79 0 1.073-.205 1.316-.947.217-.66.434-1.319.735-1.98.195.596.391 1.192.584 1.79.322.994.517 1.137 1.57 1.137.622 0 1.245 0 1.902.075-.293.219-.587.438-.881.654-.304.225-.612.443-.913.669z"/><path d="M35.119 35.734c.303-.244.407-.572.269-.943-.13-.352-.397-.539-.777-.544-.325-.005-.652-.026-.975.003-.31.03-.438-.102-.509-.384a9.808 9.808 0 00-.302-.926c-.134-.37-.41-.553-.808-.566-.372.025-.637.208-.765.56-.124.342-.239.689-.338 1.038-.06.211-.169.287-.39.276-.35-.018-.702-.008-1.053-.002-.397.006-.674.2-.792.575-.118.373-.01.696.305.935.279.213.558.428.854.617.187.12.232.241.153.448-.119.315-.208.642-.318.961-.135.392-.043.722.276.977.31.25.663.237 1.045-.025.257-.176.517-.353.756-.552.2-.168.356-.196.57-.01.242.215.519.39.784.578.333.237.68.262 1.014.016.33-.246.415-.583.29-.973-.108-.334-.236-.663-.316-1.004a.458.458 0 01.124-.377c.284-.244.61-.442.903-.678zm-2.172 1.422c-.611-.559-1.197-.56-1.813 0 .335-.748.175-1.306-.548-1.72.805.083 1.28-.231 1.454-1.038.166.799.64 1.113 1.459 1.043-.717.403-.896.953-.552 1.715zm17.198-.766c.316-.207.62-.432.915-.666.3-.236.375-.562.262-.914-.116-.356-.376-.555-.76-.563-.363-.008-.729-.02-1.092 0-.23.013-.324-.083-.383-.285a15.77 15.77 0 00-.338-1.038c-.13-.353-.4-.531-.781-.551-.407.018-.674.226-.81.612-.14.403-.168.967-.452 1.166-.302.21-.847.081-1.285.09-.396.01-.67.19-.808.559-.135.362-.027.7.312.964.256.2.516.4.79.571.225.141.29.286.182.542-.125.299-.21.615-.302.926-.119.404-.01.757.299.97.327.226.66.216.983-.006.3-.206.581-.441.892-.63a.451.451 0 01.39-.003c.311.189.59.427.892.63.354.238.718.236 1.014-.009.298-.248.4-.565.274-.944-.11-.333-.21-.67-.327-1-.066-.185-.043-.306.133-.421zm-1.262.773c-.632-.563-1.212-.585-1.823.013.323-.752.197-1.32-.544-1.734.809.08 1.283-.25 1.455-1.066.162.82.643 1.143 1.447 1.065-.702.42-.917.96-.535 1.722zm-21.497 8.253h9.68c1.639 0 3.278.002 4.917-.001.556-.001.754-.204.757-.752.003-.585.001-1.171.001-1.757-.001-.656-.173-.828-.832-.828H27.234c-.557 0-.753.196-.756.748-.003.56 0 1.119 0 1.678 0 .762.148.912.908.912zm.29-2.142h13.867v.954H27.677v-.954zm21.07 2.139c1.354.007 2.707.006 4.062 0 .509-.002.713-.211.718-.711.005-.638.005-1.276 0-1.915-.005-.502-.21-.706-.716-.71-.663-.005-1.327 0-1.991 0-.69 0-1.38-.005-2.07.002-.483.004-.695.211-.7.687-.006.652-.006 1.302 0 1.953.004.474.214.691.697.694zm.486-2.14h3.095v.943h-3.095v-.942zm-14.737 6.433c.123.031.259.018.388.018h10.23c.13 0 .265.013.388-.017.3-.073.477-.27.467-.587-.01-.314-.191-.504-.5-.557-.113-.02-.233-.01-.35-.01H34.89c-.117 0-.237-.01-.351.009-.308.05-.492.238-.504.552-.012.317.163.517.461.592zm9.855-4.298c.702.018 1.405.018 2.105 0 .387-.011.582-.234.595-.629.01-.337.002-.675.002-1.014 0-.35.008-.701-.002-1.052-.013-.411-.22-.626-.63-.632a68.833 68.833 0 00-2.027-.001c-.434.006-.647.218-.652.648a76.09 76.09 0 000 2.027c.005.419.203.643.61.653zm.596-2.14h.909v.96h-.91v-.96zm-2.907 7.444c-1.35-.006-2.703-.006-4.053 0-.47.002-.72.216-.718.583 0 .369.251.579.72.584.675.006 1.35.002 2.027.002.675 0 1.35.005 2.027-.002.443-.005.688-.213.698-.566.012-.368-.243-.599-.701-.601z"/></svg><svg viewBox="0 0 80 81" id="service-2" xmlns="http://www.w3.org/2000/svg"><path d="M60.003 33.588c0-.345-.115-.605-.323-.732-.207-.125-.487-.108-.79.05-3.137 1.623-6.278 3.258-8.976 4.661-.446.232-.552.47-.436.982l.096.44.086.395-.342-.078a16.583 16.583 0 01-.288-.068l-2.19-.53-3.638-.882a3.791 3.791 0 00-2.604.28c-.138.067-.276.17-.41.27-.23.171-.468.35-.732.362-.28.014-.553-.135-.819-.28a3.278 3.278 0 00-.437-.212c-1.241-.444-2.606-.433-4.294.032-.753.208-1.496.388-2.282.578-.346.083-.694.167-1.046.254l-.145.036.015-.149a2.81 2.81 0 00.01-.1 1.83 1.83 0 01.017-.143c.164-.877.146-.914-.653-1.33l-5.24-2.718-3.355-1.742c-.623-.323-.836-.28-1.227.269v14.544c.153.25.386.413.75.526 1.474.458 2.97.932 4.418 1.39l1.484.47c.441.14.691.16.86.07.166-.091.283-.305.406-.74a.482.482 0 01.042-.096c.008-.017.019-.035.03-.06l.044-.09.174.073c.064.026.128.052.19.081.07.033.138.069.192.097l.109.056v.063c0 .175-.01.35-.02.518-.02.364-.037.708.035 1.028.229 1.006.893 1.613 1.976 1.808l.033.007c.175.03.374.065.423.38.194 1.228.95 1.964 2.186 2.132.041.005.079.016.119.027l.054.015.07.018.009.07c.184 1.416.96 2.22 2.308 2.392l.06.007.023.056c.067.16.128.318.187.47.13.333.251.65.42.935.347.592.98.838 1.551 1.02h.83c1.544-.535 2.438-1.766 3.22-2.982l.039-.06.069.013c1.7.317 2.705-.42 3.16-2.319l.017-.07.073-.01c1.403-.175 2.206-.98 2.386-2.393l.01-.08.08-.012c1.444-.206 2.228-.98 2.395-2.364.016-.133.14-.273.25-.332.288-.154.575-.292.88-.44l.326-.16.097-.047.045.099c.01.023.022.045.032.065.023.046.045.09.06.14.107.381.232.592.401.683.166.09.399.079.758-.035l6.087-1.935c.52-.166.655-.342.655-.86.002-4.601.003-9.207 0-13.813zM26.696 48.753l-5.31-1.68V34.578l7.73 4.013-2.42 10.162zm5.075 2.62a.996.996 0 01-.686.283c-.157 0-.32-.039-.485-.116-.378-.178-.595-.493-.683-.99l-.006-.037.018-.032c.039-.07.075-.144.11-.217.083-.17.168-.345.295-.49.339-.384.716-.744 1.08-1.092l.028-.026c.481-.46 1.146-.467 1.58-.018.43.445.41 1.067-.05 1.547a27.73 27.73 0 01-1.2 1.189zm2.402 2.563c-.117.108-.28.15-.39.177-.03.007-.054.012-.071.02l-.019.007h-.02c-.53-.004-.87-.186-1.068-.572-.216-.42-.18-.837.098-1.145.45-.502.919-.97 1.39-1.39.381-.342.993-.31 1.392.07.397.38.457 1.016.13 1.39-.462.529-.986 1.023-1.442 1.443zm2.743 2.298l-.05.047c-.252.241-.547.362-.834.362a1.04 1.04 0 01-.745-.322c-.445-.448-.422-1.083.055-1.578.463-.48.825-.838 1.173-1.161a1.008 1.008 0 011.17-.184c.414.192.611.535.638 1.111l.002.03-.014.025c-.016.03-.034.069-.054.115-.062.139-.146.33-.282.484-.332.376-.702.729-1.06 1.07zm3.662 1.3c-.47.516-.916.962-1.364 1.363a.978.978 0 01-.657.25c-.271 0-.548-.108-.768-.324-.398-.394-.445-1.005-.107-1.391.382-.437.833-.888 1.42-1.42.128-.115.306-.162.436-.196.042-.011.08-.02.11-.031l.023-.01.026.004c.517.06.84.266 1.017.648.187.403.138.806-.136 1.106zm8.14-6.646c-.462.457-1.094.422-1.608-.09-.89-.885-1.776-1.771-2.662-2.659l-1.282-1.282-.06-.06a1.89 1.89 0 00-.215-.199.68.68 0 00-.9.054.676.676 0 00-.042.899c.068.088.149.168.234.253l.051.051 3.914 3.914c.379.379.485.774.325 1.21-.15.41-.462.655-.903.709-.453.055-.769-.192-1.017-.443-1.021-1.026-2.045-2.049-3.069-3.072l-.816-.815-.063-.064a2.025 2.025 0 00-.21-.197.668.668 0 00-.899.048.682.682 0 00-.047.9c.06.077.132.148.208.223l.052.052c.336.337.673.673 1.01 1.008.944.942 1.92 1.917 2.87 2.884.203.206.357.46.424.699.123.436-.094.907-.527 1.145a1.064 1.064 0 01-1.252-.157 55.049 55.049 0 01-1.113-1.095l-.395-.397-.085-.085c-.537-.535-1.075-1.07-1.61-1.608-.436-.438-.907-.682-1.442-.743-.284-.033-.41-.159-.447-.447-.136-1.072-.96-1.893-2.049-2.045-.32-.045-.408-.204-.445-.448-.155-.996-.71-1.655-1.65-1.96-.932-.3-1.772-.098-2.5.602a1.246 1.246 0 00-.05.051l-.032.032c-.797.787-.849.794-1.83.219-.129-.075-.23-.301-.197-.44a658.98 658.98 0 011.568-6.596.548.548 0 01.343-.354l.793-.199c1.398-.352 2.843-.718 4.275-1.03.887-.193 1.798-.09 2.71.306l.167.073-.576.425c-.308.226-.603.443-.897.662-.97.722-1.365 1.82-1.06 2.935.306 1.114 1.258 1.872 2.429 1.934.374.02.81-.058 1.292-.23 1.208-.433 2.42-.917 3.594-1.383l.096-.038c.29-.116.475-.076.686.148 1.038 1.1 2.1 2.213 3.127 3.29l1.715 1.8c.5.524.527 1.156.067 1.61zm2.648-2.862c-.01.003-.018.008-.026.013a4.484 4.484 0 00-.416.226c-.28.163-.567.33-.84.33a.543.543 0 01-.1-.008c-.299-.048-.534-.347-.762-.636-.087-.11-.177-.224-.266-.317l-2.509-2.64-2.113-2.225c-.382-.401-.542-.436-1.072-.232l-1.416.546c-.985.38-2.004.775-3.01 1.152-.494.186-1.013.116-1.387-.185-.345-.277-.505-.7-.44-1.159a1.53 1.53 0 01.521-.916 59.833 59.833 0 013.292-2.419c.295-.2.647-.314.959-.416a6.76 6.76 0 00.383-.133l.03-.012.032.007.766.18c.519.121 1.001.235 1.483.351l1.685.41c1.144.278 2.328.566 3.494.84.277.066.415.203.478.474.49 2.088.99 4.19 1.487 6.25.043.174.062.415-.253.52zm7.254-.952l-5.31 1.68-2.42-10.162 7.73-4.011v12.493z"/><path d="M26.314 33.334h6.667l.018.25c.006.095.013.18.021.263.028.301.197.628.584.638.986.027 1.975.027 2.939.001a.59.59 0 00.417-.19.702.702 0 00.187-.5c-.013-.359-.285-.626-.661-.65a5.98 5.98 0 00-.388-.005l-.155.001h-1.53l-.006-.098c-.084-1.319.45-2.623 1.463-3.577.961-.906 2.218-1.362 3.361-1.22l.093.012v.092c0 .097 0 .193-.002.29 0 .21-.002.429.003.644.01.46.267.747.672.75h.007c.401 0 .666-.288.678-.737.005-.223.004-.448.003-.667v-.396l.096-.007c1.284-.097 2.565.412 3.516 1.395.933.964 1.412 2.245 1.284 3.426l-.01.093h-.637l-1.249.001c-.516.004-.825.255-.825.675 0 .412.323.68.823.684.548.003 1.097.002 1.644.002l.633-.001c.828 0 .965-.125 1.044-.955.004-.046.026-.083.045-.115a.711.711 0 00.022-.04l.029-.059h2.214c1.494 0 2.988.001 4.483-.002.542 0 .788-.242.795-.782.003-.256.006-.56-.003-.86-.059-1.788-.8-3.235-2.203-4.298-.336-.254-.707-.455-1.1-.668a22.194 22.194 0 01-.543-.3l-.1-.06.068-.094c.617-.844.599-1.815.51-2.997-.092-1.245-.98-2.312-2.21-2.653-1.262-.35-2.573.1-3.263 1.12-.82 1.211-.9 2.612-.24 4.28.028.072.069.143.108.212l.053.097.05.096-.097.048a6.222 6.222 0 01-.364.156c-.248.1-.482.194-.651.347-.562.508-1.139.541-1.87.108a.372.372 0 01-.042-.03l-.111-.092.056-.08c.445-.64.663-1.283.663-1.965v-.318c.003-.332.005-.675-.015-1.01-.093-1.606-1.38-2.928-2.996-3.074-1.65-.149-3.175.95-3.475 2.5-.234 1.22-.353 2.634.553 3.88l.078.107-.122.052a37.76 37.76 0 00-.254.108c-.221.094-.43.183-.645.265a.432.432 0 01-.334-.012c-.435-.247-.86-.498-1.31-.763l-.505-.297.072-.094c.58-.757.555-1.666.529-2.63l-.004-.158c-.04-1.534-1.193-2.777-2.744-2.954-1.508-.172-2.937.82-3.252 2.261-.322 1.47-.181 2.606.444 3.57l.073.113-.127.044c-1.063.366-1.91.945-2.594 1.772-.924 1.12-1.34 2.473-1.27 4.138.032.719.226.916.908.917zm20.173-9.45a8.947 8.947 0 01.002-.37 1.687 1.687 0 011.621-1.645c.91-.037 1.664.609 1.752 1.5.045.464.045.931-.003 1.387-.09.858-.806 1.484-1.684 1.484l-.082-.002c-.886-.04-1.575-.754-1.605-1.66a8.299 8.299 0 01-.002-.352l.001-.16v-.182zm-1.416 4.4c.679-.452 1.431-.673 2.299-.676h.093l.011.092c.016.13.02.27.023.406.013.614.055.991.713.975.618-.012.651-.374.653-.962.002-.134.002-.272.015-.401l.01-.09.089-.004c1.101-.056 2.215.405 3.059 1.266.818.835 1.244 1.914 1.168 2.961l-.007.098h-6.27l-.015-.087a6.141 6.141 0 00-1.855-3.415l-.095-.09.11-.073zm-6.996-4.64a1.917 1.917 0 011.93-1.776h.016c1 .009 1.838.787 1.906 1.772.034.48.033.961 0 1.426-.073.998-.9 1.75-1.922 1.753h-.003a1.909 1.909 0 01-1.924-1.747c-.014-.174-.01-.35-.007-.521l.003-.155v-.077c0-.07-.002-.139-.004-.208a4.352 4.352 0 01.005-.468zm-7.923-.325c.093-.855.862-1.491 1.754-1.45.863.04 1.57.75 1.609 1.616.006.136.004.275.003.408v.09l.046.005-.012.105c-.012.099-.02.2-.027.3-.017.226-.035.46-.101.68-.21.706-.857 1.17-1.606 1.17a1.58 1.58 0 01-.167-.008c-.78-.07-1.425-.694-1.501-1.45-.05-.502-.05-.995.002-1.466zm-2.174 5.572c.881-.898 2.025-1.365 3.06-1.25l.082.01.01.082c.013.125.014.262.015.394.002.313.003.637.18.808.108.105.28.153.523.146.625-.017.659-.395.661-1.01 0-.12.001-.245.01-.364l.008-.095.096-.001c.844-.01 1.6.209 2.311.668l.112.072-.096.093c-1 .962-1.608 2.082-1.856 3.426l-.015.086h-6.25l-.011-.091c-.13-.99.304-2.102 1.16-2.974z"/><path d="M40.016 33.042a.78.78 0 00-.795.784.8.8 0 00.769.779.796.796 0 00.795-.792.78.78 0 00-.77-.771z"/></svg><svg viewBox="0 0 80 81" id="service-3" xmlns="http://www.w3.org/2000/svg"><path d="M36.34 52.778c-.081-.448-.386-.65-.837-.588-.186.026-.371.058-.561.087-.031-.086-.056-.135-.066-.188-.227-1.282-.458-2.563-.671-3.846a2.108 2.108 0 00-.476-1.065 539.045 539.045 0 01-5.263-6.274c-.652-.792-1.39-1.355-2.445-1.333-.026-.05-.044-.072-.049-.096-.248-1.39-.494-2.78-.745-4.168-.354-1.952-2.533-2.879-4.118-1.737-.972.7-1.252 1.677-1.045 2.833.823 4.628 1.633 9.257 2.464 13.882.042.235.19.492.366.655.86.788 1.749 1.543 2.614 2.325.157.141.248.357.415.609-.29.057-.436.089-.583.114-.554.097-.767.373-.67.92.284 1.62.572 3.239.867 4.856.12.661.37.818 1.039.697 1.025-.184 2.05-.364 3.077-.545 2.308-.408 4.616-.813 6.922-1.226.53-.095.74-.372.658-.852a868.75 868.75 0 00-.894-5.06zm-12.286-2.57a1.05 1.05 0 01-.299-.549c-.798-4.45-1.586-8.902-2.36-13.357-.06-.338-.066-.72.027-1.045.156-.545.737-.88 1.282-.84.58.042 1.092.446 1.2 1.019.271 1.44.52 2.885.763 4.331.018.101-.053.26-.135.33-1.297 1.126-1.418 2.635-.308 3.957l4.496 5.36c.06.072.127.14.224.248.344-.289.657-.55.993-.834l-2.39-2.853c-.81-.967-1.633-1.924-2.427-2.904-.65-.801-.277-1.904.71-2.136.588-.139 1.032.114 1.405.56 1.548 1.852 3.076 3.722 4.668 5.536.665.758 1.112 1.544 1.218 2.56.099.964.319 1.915.496 2.936l-6.418 1.137c-.034-.037-.068-.055-.069-.075-.024-.632-.388-1.04-.854-1.42a51.42 51.42 0 01-2.221-1.961zm2.696 8.88l-.689-3.89 9.083-1.602c.23 1.316.455 2.588.684 3.892l-9.078 1.6zm30.81-25.944a2.62 2.62 0 00-3.006 2.113c-.094.483-.171.97-.257 1.457l-.51 2.857c-1.006 0-1.733.438-2.338 1.167a780.97 780.97 0 01-5.37 6.399 2.238 2.238 0 00-.516 1.133c-.216 1.323-.46 2.641-.7 4.002-.163-.015-.272-.018-.378-.035-.74-.126-.945.01-1.076.733-.29 1.604-.573 3.21-.858 4.815-.092.521.107.806.638.9 3.36.598 6.718 1.194 10.078 1.787.587.104.856-.078.96-.656.297-1.63.588-3.263.875-4.895.098-.556-.101-.828-.653-.934-.159-.03-.317-.066-.583-.122.153-.236.239-.453.392-.593.855-.773 1.738-1.514 2.581-2.299.202-.188.362-.488.413-.76.476-2.573.926-5.15 1.38-7.727.377-2.145.778-4.287 1.107-6.439.218-1.42-.783-2.69-2.18-2.903zm-4.535 25.942l-9.078-1.601.684-3.89 9.083 1.598-.69 3.893zm5.416-23.129c-.807 4.602-1.615 9.203-2.434 13.801a.852.852 0 01-.264.438c-.66.599-1.337 1.18-2.004 1.772-.515.459-1.157.833-1.067 1.706l-6.512-1.148c.25-1.432.488-2.82.742-4.204.026-.135.138-.264.232-.377 1.805-2.157 3.614-4.31 5.421-6.462.562-.67 1.354-.778 1.955-.274.578.483.624 1.295.084 1.943-1.485 1.78-2.978 3.552-4.468 5.328-.088.105-.171.211-.283.35l1.001.84 1.28-1.525c1.165-1.387 2.334-2.769 3.49-4.161 1.037-1.247.884-2.81-.348-3.87-.091-.078-.166-.253-.148-.367.241-1.446.482-2.892.762-4.33.137-.698.851-1.112 1.54-.963.7.153 1.146.795 1.021 1.503zM42.9 38.898c.223-.052.37-.078.555.073.361.294.742.564 1.117.841.323.239.642.226.93-.056.606-.596 1.208-1.198 1.805-1.804.28-.285.301-.603.062-.928-.17-.232-.32-.486-.522-.688-.439-.437-.547-.878-.213-1.443.13-.222.228-.367.495-.394.45-.046.897-.115 1.344-.188.426-.068.628-.295.633-.725.008-.836.008-1.673 0-2.51-.005-.428-.21-.648-.638-.72-.284-.046-.57-.125-.855-.119-.638.013-.992-.27-1.153-.888-.06-.234-.096-.392.07-.592.298-.359.567-.741.841-1.117.24-.326.212-.642-.07-.927a141.53 141.53 0 00-1.776-1.775c-.32-.312-.596-.328-.957-.077-.215.148-.44.29-.622.474-.466.474-.945.6-1.551.232-.2-.121-.311-.223-.339-.445a59.438 59.438 0 00-.194-1.385c-.06-.394-.29-.617-.693-.62-.851-.007-1.702-.005-2.552-.001-.402.002-.64.213-.704.608-.046.284-.125.572-.116.854.026.686-.3 1.066-.949 1.184-.161.03-.375.016-.505-.067-.38-.244-.727-.538-1.097-.8-.14-.1-.308-.163-.491-.257-.178.103-.365.17-.496.294a81.914 81.914 0 00-1.78 1.773c-.31.318-.324.592-.062.957.272.38.575.736.828 1.127.085.13.097.343.068.505-.115.675-.532.98-1.22.963-.257-.007-.516.061-.773.1-.431.064-.648.281-.652.704-.01.85-.01 1.7 0 2.552.004.404.217.632.614.696.27.044.545.112.815.104.69-.02 1.1.296 1.216.967.029.161.013.374-.072.505-.253.39-.55.752-.83 1.126-.24.32-.241.64.041.929a113.26 113.26 0 001.835 1.833c.273.266.585.276.897.051.222-.16.466-.302.656-.494.47-.479.973-.615 1.542-.203.135.098.282.25.314.403.1.468.142.947.217 1.421.058.375.285.596.666.602.864.01 1.73.01 2.594.001.403-.004.63-.23.69-.626.04-.271.113-.543.108-.813-.007-.665.267-1.058.93-1.217zm-1.398-.881c-.377.125-.613.319-.658.737-.051.489-.142.971-.216 1.468h-1.483c-.079-.522-.162-1.033-.233-1.547-.044-.323-.224-.502-.524-.615-.498-.189-.99-.393-1.476-.613-.306-.139-.574-.137-.844.07-.403.307-.81.606-1.227.916l-1.029-1.087c.258-.345.54-.745.842-1.125.252-.319.265-.621.081-.986a10.69 10.69 0 01-.545-1.325c-.126-.363-.33-.574-.726-.618-.488-.054-.971-.143-1.468-.22v-1.48c.523-.08 1.035-.163 1.548-.233.323-.046.502-.227.615-.526.188-.498.394-.99.613-1.475.139-.305.136-.575-.07-.845-.307-.403-.607-.81-.92-1.23.363-.333.713-.655 1.106-1.013.332.246.731.527 1.113.83.32.256.62.266.985.08.412-.21.847-.385 1.286-.531.378-.127.612-.321.657-.739.051-.487.142-.97.216-1.467h1.483c.079.524.163 1.036.233 1.55.044.323.225.501.525.613.499.187.991.392 1.476.613.306.138.575.134.846-.07.403-.308.811-.608 1.226-.917l1.031 1.082c-.26.352-.54.752-.845 1.133-.257.32-.265.621-.08.985.21.412.386.847.533 1.287.126.377.32.611.739.655.487.052.97.142 1.466.217v1.483c-.523.08-1.035.163-1.549.232-.324.044-.501.225-.614.526a23 23 0 01-.613 1.474c-.139.306-.135.574.071.845.308.401.607.81.92 1.229l-1.109 1.014c-.328-.246-.727-.53-1.108-.833-.319-.254-.621-.266-.985-.079a8.99 8.99 0 01-1.29.535zm7.164-13.597c-.29-.288-.585-.582-.881-.874l-.853.875.83.855.904-.856zm-1.773 15.83l.866.87c.319-.32.611-.615.88-.883l-.822-.814c-.298.266-.609.544-.924.828zm1.8-2.078l1.132.664.66-1.145-1.14-.65c-.23.402-.433.751-.652 1.13zm-5.448 4.185l-1.26.342.338 1.265 1.271-.34-.35-1.267zm-8.059-19.484l-.659-1.131-1.133.662c.228.393.432.745.658 1.138.398-.236.755-.447 1.134-.669zm-4.1 3.622c-.396-.229-.757-.437-1.138-.655l-.655 1.137c.39.224.75.433 1.136.656l.657-1.138zm19.4.478l-.666-1.137-1.133.661c.235.402.44.753.66 1.133l1.14-.657zM31.09 38.17c-.24-.41-.445-.763-.662-1.137l-1.135.658.656 1.138 1.14-.659zm9.427-17.67H39.25v1.269h1.267V20.5zm-2.728 1.488l-.331-1.27-1.274.354.35 1.258 1.255-.342zm13.926 9.707H50.45v1.271h1.264v-1.271zM28.27 34.766l.34 1.272 1.263-.344c-.115-.428-.22-.818-.336-1.256l-1.267.328zm1.054-3.073H28.06v1.28h1.264v-1.28zm17.065-9.297l-1.143-.651-.654 1.136 1.14.65.657-1.135zM35.186 41.794c-.386-.223-.745-.432-1.133-.658l-.662 1.135 1.14.658.655-1.135zm10.062 1.132l1.137-.66-.66-1.139-1.131.668.654 1.131zm6.262-8.161c-.441-.118-.832-.221-1.265-.335l-.33 1.266 1.268.336.328-1.267zm-12.26 9.406h1.268v-1.265H39.25v1.265zm11-13.938l1.265-.338-.343-1.266-1.264.345.341 1.259zm-20.38-1.26l-1.264-.344-.337 1.278 1.272.319.33-1.253zM36.188 43.6l1.27.34.327-1.27-1.26-.332-.337 1.262zm7.392-22.554l-1.269-.338-.327 1.27c.44.119.82.22 1.258.34.118-.443.225-.842.338-1.272zm-10.805 3.449a398.25 398.25 0 00-.806-.942l-.9.864.915.885.79-.807zm-.781 14.961l-.887.815.834.86.876-.873-.823-.802z"/><path d="M39.877 28.383c-2.17-.002-3.946 1.784-3.941 3.96a3.957 3.957 0 003.96 3.94c2.17.002 3.953-1.788 3.942-3.96a3.962 3.962 0 00-3.962-3.94zm.013 6.585a2.64 2.64 0 01-2.638-2.64 2.638 2.638 0 012.61-2.628 2.638 2.638 0 012.659 2.62 2.64 2.64 0 01-2.631 2.648zm3.362 1.549l.81.833.926-.832a534.85 534.85 0 00-.878-.873l-.858.872zm-8.402-.065l.782.915.876-.78-.824-.963-.834.828zm1.73-8.312l-.887-.887-.884.884.884.887.887-.884zm8.37.023c-.298-.298-.592-.594-.886-.886l-.869.87.884.886c.3-.298.593-.592.871-.87zm1.49 3.535h-1.258v1.28h1.259v-1.28zM33.32 32.97h1.281v-1.264h-1.28v1.263zm5.932 5.924h1.263v-1.271h-1.263v1.271zm1.275-13.121h-1.28v1.26h1.28v-1.26z"/></svg><svg viewBox="0 0 80 81" id="service-4" xmlns="http://www.w3.org/2000/svg"><path d="M58.928 24.69v27.314c-.023.055-.054.107-.07.165-.34 1.212-1.158 1.902-2.404 2.003-.301.024-.606.004-.916.004v3.84c.792 0 1.567.017 2.34-.007.46-.015.818.112 1.049.526v.965h-37.41l-.201-.151c-.233-.182-.35-.418-.293-.713.057-.306.243-.513.55-.582.142-.033.293-.036.44-.036.787-.002 1.574-.002 2.37-.002V54.23c-.48-.038-.947-.018-1.384-.121C21.74 53.813 21 52.798 21 51.43c-.002-8.707 0-17.415 0-26.122 0-.099-.003-.198.006-.296.09-1.043.513-1.915 1.301-2.615.544-.482 1.21-.687 1.877-.897h31.557c.055.023.107.056.163.069.953.207 1.77.662 2.297 1.487.319.495.49 1.085.726 1.635zm-36.446 3.652v23.03c0 .111-.007.224.008.333.06.44.279.798.707.91.379.1.787.082 1.165.114.03-.107.041-.13.041-.154.003-.582.003-1.162.005-1.744.003-.726.256-.98.984-.98 1.408-.002 2.815-.002 4.223 0 .775 0 1.014.242 1.015 1.023v7.114h2.075V42.679c0-.794.243-1.038 1.04-1.04 1.37-.001 2.74 0 4.11 0 .847.002 1.072.23 1.072 1.082v15.263h2.075v-9.083c0-.726.255-.98.983-.981h4.222c.777 0 1.016.241 1.017 1.022v9.046H49.3V50.36c0-.112-.006-.224.003-.334.036-.435.334-.74.727-.748.402-.008.716.31.748.763.007.11.002.223.002.334v7.616h3.232v-15.95H50.78v.422c0 .829.008 1.658-.003 2.487-.007.48-.323.81-.74.809-.416-.002-.716-.331-.737-.814-.003-.062-.001-.123-.001-.185v-3.228c0-.747.25-.997 1.002-1 1.395-.002 2.79-.001 4.185 0 .798.002 1.034.241 1.034 1.042v11.13h.468c1.096.001 1.458-.365 1.458-1.47V28.34c-11.664.003-23.288.003-34.963.003zm.01-1.523h34.954v-1.28c0-1.677-.88-2.556-2.558-2.556H25.044c-.16 0-.32-.002-.48.01-1.13.094-1.985.93-2.064 2.06-.041.577-.008 1.16-.008 1.766zM34.2 57.989h3.23v-14.84H34.2v14.84zm11.517.009v-8.563H42.5v8.563h3.216zm-19.812-.01h3.215v-6.633h-3.215v6.634z"/><path d="M50.223 35.81c-.677-1.257-.615-2.359.177-3.285.865-1.014 2.309-1.223 3.453-.502 1.07.674 1.503 2.074 1.01 3.26-.5 1.209-1.836 1.89-3.092 1.555-.246-.066-.401-.042-.584.142a731.832 731.832 0 01-4.58 4.593c-.16.159-.207.276-.111.505.485 1.16.101 2.456-.918 3.195-.944.683-2.295.637-3.202-.11-.966-.795-1.266-2.077-.727-3.21.098-.207.078-.318-.079-.474a976.798 976.798 0 01-4.662-4.667c-.148-.15-.264-.202-.476-.103-.622.288-1.27.288-1.907.052-.22-.082-.354-.046-.516.117a711.827 711.827 0 01-4.007 4.014c-.141.14-.176.244-.094.442.59 1.42-.102 3.046-1.49 3.54-1.516.54-3.075-.245-3.502-1.795-.28-1.013-.02-1.92.748-2.635.803-.748 1.756-.914 2.781-.533.244.091.38.076.565-.11a457.857 457.857 0 013.9-3.91c.167-.165.191-.285.088-.502-.534-1.125-.224-2.42.744-3.207.919-.748 2.267-.787 3.201-.093 1.017.754 1.391 2.043.904 3.2-.088.209-.06.32.092.472 1.576 1.57 3.147 3.144 4.713 4.722.145.146.265.21.48.127.66-.258 1.32-.235 1.981.032.103.041.298.016.372-.058 1.57-1.557 3.131-3.124 4.693-4.69.016-.015.023-.04.045-.083zm3.37-1.555a1.189 1.189 0 00-1.18-1.178 1.188 1.188 0 00-1.186 1.17 1.195 1.195 0 001.198 1.2 1.197 1.197 0 001.168-1.192zm-8.37 8.858a1.19 1.19 0 00-1.154-1.201 1.198 1.198 0 00-1.21 1.187c0 .641.537 1.18 1.177 1.183a1.188 1.188 0 001.188-1.169zm-8.65-8.84a1.173 1.173 0 00-1.151-1.197 1.19 1.19 0 00-1.205 1.189c.002.642.539 1.18 1.179 1.182a1.182 1.182 0 001.177-1.174zm-7.928 8.114c0-.654-.515-1.178-1.165-1.183a1.195 1.195 0 00-1.194 1.201 1.182 1.182 0 001.193 1.16 1.164 1.164 0 001.166-1.177zm-1.742-10.051c-.542 0-1.086.005-1.629 0-.514-.006-.85-.295-.862-.725-.01-.442.336-.754.868-.756a301.66 301.66 0 013.295 0c.516.002.851.295.862.725.011.442-.337.75-.867.756-.555.004-1.11 0-1.667 0zm-.016 3.562c-.542 0-1.086.005-1.629-.002-.508-.007-.846-.31-.846-.74s.337-.736.846-.74a264.5 264.5 0 013.333 0c.51.004.846.31.846.74 0 .431-.339.733-.846.74-.568.008-1.136.002-1.704.002zm5.303-4.318a.741.741 0 01-.712.752c-.384.009-.74-.335-.75-.723-.009-.386.332-.74.722-.75a.74.74 0 01.74.721zm18.584 16.09a.747.747 0 01-.735.731.748.748 0 01-.736-.729.74.74 0 01.735-.727c.4 0 .736.332.736.725zm-4.956-22.016h-8.145c-.598-.003-.958-.282-.958-.743 0-.46.36-.74.96-.74 5.43-.001 10.86-.001 16.292.002.157 0 .324.011.472.061.312.107.478.355.478.68 0 .323-.166.572-.48.676a1.64 1.64 0 01-.51.062c-2.704.004-5.406.002-8.109.002zm-19.342-.732c-.006.385-.36.732-.744.727-.385-.006-.732-.361-.726-.744.006-.386.36-.733.743-.728.385.005.731.36.727.745zm2.23.727a.767.767 0 01-.735-.736c0-.383.351-.735.734-.736.382 0 .734.351.734.735a.766.766 0 01-.733.737zm3.694-.746c.007.383-.34.74-.724.746-.383.006-.738-.34-.744-.727-.007-.383.34-.739.724-.745.383-.007.738.34.744.726z"/></svg><svg viewBox="0 0 16 16" id="shield" xmlns="http://www.w3.org/2000/svg"><path d="M2.302 3.935l5.35-2.667.068.135a.665.665 0 01.596.001L2.302 3.935zm0 0H2.3m5.327 10.783l.072-.132-.072.132zm0 0C1.105 11.17 1.842 4.682 1.857 4.562m5.771 10.156L1.857 4.562m.444-.627a.819.819 0 00-.444.627m.444-.627l-.444.627M8.384 1.27l5.612 3.332a.664.664 0 00-.364-.531l.067-.134L8.384 1.27zm4.148 3.91c-.014 1.323-.412 5.327-4.522 7.876-4.325-2.573-4.596-6.56-4.56-7.867l4.567-2.275 4.515 2.265z"/></svg></svg>